<mxfile host="app.diagrams.net" modified="2024-04-24T11:46:54.489Z" agent="Mozilla/5.0 (Windows NT 10.0; Win64; x64) AppleWebKit/537.36 (KHTML, like Gecko) Chrome/120.0.0.0 YaBrowser/24.1.0.0 Safari/537.36" etag="8Qbt6SKXVbiVtTGOVkYJ" version="24.2.8" type="google">
  <diagram name="Страница — 1" id="8gHwuTay7HjODtAt0ymn">
    <mxGraphModel dx="2649" dy="2214" grid="1" gridSize="10" guides="1" tooltips="1" connect="1" arrows="1" fold="1" page="1" pageScale="1" pageWidth="827" pageHeight="1169" math="0" shadow="0">
      <root>
        <mxCell id="0" />
        <mxCell id="1" parent="0" />
        <mxCell id="-28X3IPU-qpVwxlm2ra_-170" value="" style="rounded=0;whiteSpace=wrap;html=1;fillColor=none;" parent="1" vertex="1">
          <mxGeometry x="980" y="280" width="690" height="320" as="geometry" />
        </mxCell>
        <mxCell id="-28X3IPU-qpVwxlm2ra_-171" value="" style="rounded=0;whiteSpace=wrap;html=1;fillColor=none;" parent="1" vertex="1">
          <mxGeometry x="1670" y="280" width="580" height="320" as="geometry" />
        </mxCell>
        <mxCell id="-28X3IPU-qpVwxlm2ra_-195" value="" style="rounded=0;whiteSpace=wrap;html=1;fillColor=none;" parent="1" vertex="1">
          <mxGeometry x="1380" y="1240" width="270" height="380" as="geometry" />
        </mxCell>
        <mxCell id="-28X3IPU-qpVwxlm2ra_-172" value="" style="rounded=0;whiteSpace=wrap;html=1;fillColor=none;" parent="1" vertex="1">
          <mxGeometry x="2250" y="280" width="400" height="320" as="geometry" />
        </mxCell>
        <mxCell id="-28X3IPU-qpVwxlm2ra_-169" value="" style="rounded=0;whiteSpace=wrap;html=1;fillColor=none;" parent="1" vertex="1">
          <mxGeometry x="400" y="280" width="580" height="320" as="geometry" />
        </mxCell>
        <mxCell id="-28X3IPU-qpVwxlm2ra_-64" value="" style="rounded=0;whiteSpace=wrap;html=1;fillColor=none;" parent="1" vertex="1">
          <mxGeometry x="-180" y="280" width="580" height="320" as="geometry" />
        </mxCell>
        <mxCell id="-28X3IPU-qpVwxlm2ra_-173" value="1 Этаж" style="rounded=0;whiteSpace=wrap;html=1;fontFamily=Helvetica;fontSize=11;fontColor=default;labelBackgroundColor=default;" parent="1" vertex="1">
          <mxGeometry x="-180" y="280" width="120" height="60" as="geometry" />
        </mxCell>
        <mxCell id="-28X3IPU-qpVwxlm2ra_-174" value="2 Этаж" style="rounded=0;whiteSpace=wrap;html=1;fontFamily=Helvetica;fontSize=11;fontColor=default;labelBackgroundColor=default;" parent="1" vertex="1">
          <mxGeometry x="400" y="280" width="120" height="60" as="geometry" />
        </mxCell>
        <mxCell id="-28X3IPU-qpVwxlm2ra_-177" value="5 Этаж" style="rounded=0;whiteSpace=wrap;html=1;fontFamily=Helvetica;fontSize=11;fontColor=default;labelBackgroundColor=default;" parent="1" vertex="1">
          <mxGeometry x="2250" y="280" width="70" height="40" as="geometry" />
        </mxCell>
        <mxCell id="-28X3IPU-qpVwxlm2ra_-179" value="" style="sketch=0;points=[[0.5,0,0],[1,0.5,0],[0.5,1,0],[0,0.5,0],[0.145,0.145,0],[0.8555,0.145,0],[0.855,0.8555,0],[0.145,0.855,0]];verticalLabelPosition=bottom;html=1;verticalAlign=top;aspect=fixed;align=center;pointerEvents=1;shape=mxgraph.cisco19.rect;prIcon=router;fillColor=#FAFAFA;strokeColor=#005073;fontFamily=Helvetica;fontSize=11;fontColor=default;labelBackgroundColor=default;" parent="1" vertex="1">
          <mxGeometry x="1455" y="1270" width="50" height="50" as="geometry" />
        </mxCell>
        <mxCell id="-28X3IPU-qpVwxlm2ra_-180" value="" style="sketch=0;points=[[0.015,0.015,0],[0.985,0.015,0],[0.985,0.985,0],[0.015,0.985,0],[0.25,0,0],[0.5,0,0],[0.75,0,0],[1,0.25,0],[1,0.5,0],[1,0.75,0],[0.75,1,0],[0.5,1,0],[0.25,1,0],[0,0.75,0],[0,0.5,0],[0,0.25,0]];verticalLabelPosition=bottom;html=1;verticalAlign=top;aspect=fixed;align=center;pointerEvents=1;shape=mxgraph.cisco19.rect;prIcon=l2_switch;fillColor=#FAFAFA;strokeColor=#005073;" parent="1" vertex="1">
          <mxGeometry x="1440" y="1540" width="50" height="50" as="geometry" />
        </mxCell>
        <mxCell id="-28X3IPU-qpVwxlm2ra_-181" value="" style="sketch=0;points=[[0.015,0.015,0],[0.985,0.015,0],[0.985,0.985,0],[0.015,0.985,0],[0.25,0,0],[0.5,0,0],[0.75,0,0],[1,0.25,0],[1,0.5,0],[1,0.75,0],[0.75,1,0],[0.5,1,0],[0.25,1,0],[0,0.75,0],[0,0.5,0],[0,0.25,0]];verticalLabelPosition=bottom;html=1;verticalAlign=top;aspect=fixed;align=center;pointerEvents=1;shape=mxgraph.cisco19.rect;prIcon=l3_switch;fillColor=#FAFAFA;strokeColor=#005073;" parent="1" vertex="1">
          <mxGeometry x="1455" y="1410" width="50" height="50" as="geometry" />
        </mxCell>
        <mxCell id="-28X3IPU-qpVwxlm2ra_-182" value="" style="sketch=0;points=[[0.015,0.015,0],[0.985,0.015,0],[0.985,0.985,0],[0.015,0.985,0],[0.25,0,0],[0.5,0,0],[0.75,0,0],[1,0.25,0],[1,0.5,0],[1,0.75,0],[0.75,1,0],[0.5,1,0],[0.25,1,0],[0,0.75,0],[0,0.5,0],[0,0.25,0]];verticalLabelPosition=bottom;html=1;verticalAlign=top;aspect=fixed;align=center;pointerEvents=1;shape=mxgraph.cisco19.rect;prIcon=l3_switch;fillColor=#dae8fc;strokeColor=#6c8ebf;" parent="1" vertex="1">
          <mxGeometry x="1545" y="1410" width="50" height="50" as="geometry" />
        </mxCell>
        <mxCell id="-28X3IPU-qpVwxlm2ra_-183" value="" style="sketch=0;points=[[0.015,0.015,0],[0.985,0.015,0],[0.985,0.985,0],[0.015,0.985,0],[0.25,0,0],[0.5,0,0],[0.75,0,0],[1,0.25,0],[1,0.5,0],[1,0.75,0],[0.75,1,0],[0.5,1,0],[0.25,1,0],[0,0.75,0],[0,0.5,0],[0,0.25,0]];verticalLabelPosition=bottom;html=1;verticalAlign=top;aspect=fixed;align=center;pointerEvents=1;shape=mxgraph.cisco19.rect;prIcon=l2_switch;fillColor=#FAFAFA;strokeColor=#005073;" parent="1" vertex="1">
          <mxGeometry x="1560" y="1540" width="50" height="50" as="geometry" />
        </mxCell>
        <mxCell id="-28X3IPU-qpVwxlm2ra_-186" style="edgeStyle=none;rounded=0;orthogonalLoop=1;jettySize=auto;html=1;exitX=0.5;exitY=0;exitDx=0;exitDy=0;exitPerimeter=0;entryX=0.5;entryY=1;entryDx=0;entryDy=0;entryPerimeter=0;strokeColor=default;align=center;verticalAlign=middle;fontFamily=Helvetica;fontSize=11;fontColor=default;labelBackgroundColor=default;endArrow=none;endFill=0;" parent="1" source="-28X3IPU-qpVwxlm2ra_-180" target="-28X3IPU-qpVwxlm2ra_-181" edge="1">
          <mxGeometry relative="1" as="geometry" />
        </mxCell>
        <mxCell id="-28X3IPU-qpVwxlm2ra_-187" style="edgeStyle=none;rounded=0;orthogonalLoop=1;jettySize=auto;html=1;exitX=0.5;exitY=0;exitDx=0;exitDy=0;exitPerimeter=0;entryX=0.5;entryY=1;entryDx=0;entryDy=0;entryPerimeter=0;strokeColor=default;align=center;verticalAlign=middle;fontFamily=Helvetica;fontSize=11;fontColor=default;labelBackgroundColor=default;endArrow=none;endFill=0;" parent="1" source="-28X3IPU-qpVwxlm2ra_-180" target="-28X3IPU-qpVwxlm2ra_-182" edge="1">
          <mxGeometry relative="1" as="geometry" />
        </mxCell>
        <mxCell id="-28X3IPU-qpVwxlm2ra_-189" style="edgeStyle=none;rounded=0;orthogonalLoop=1;jettySize=auto;html=1;exitX=0.5;exitY=0;exitDx=0;exitDy=0;exitPerimeter=0;entryX=0.5;entryY=1;entryDx=0;entryDy=0;entryPerimeter=0;strokeColor=default;align=center;verticalAlign=middle;fontFamily=Helvetica;fontSize=11;fontColor=default;labelBackgroundColor=default;endArrow=none;endFill=0;" parent="1" source="-28X3IPU-qpVwxlm2ra_-183" target="-28X3IPU-qpVwxlm2ra_-181" edge="1">
          <mxGeometry relative="1" as="geometry" />
        </mxCell>
        <mxCell id="-28X3IPU-qpVwxlm2ra_-190" style="edgeStyle=none;rounded=0;orthogonalLoop=1;jettySize=auto;html=1;exitX=0.5;exitY=0;exitDx=0;exitDy=0;exitPerimeter=0;entryX=0.5;entryY=1;entryDx=0;entryDy=0;entryPerimeter=0;strokeColor=default;align=center;verticalAlign=middle;fontFamily=Helvetica;fontSize=11;fontColor=default;labelBackgroundColor=default;endArrow=none;endFill=0;" parent="1" source="-28X3IPU-qpVwxlm2ra_-183" target="-28X3IPU-qpVwxlm2ra_-182" edge="1">
          <mxGeometry relative="1" as="geometry" />
        </mxCell>
        <mxCell id="-28X3IPU-qpVwxlm2ra_-191" style="edgeStyle=none;rounded=0;orthogonalLoop=1;jettySize=auto;html=1;exitX=0.5;exitY=1;exitDx=0;exitDy=0;exitPerimeter=0;entryX=0.5;entryY=0;entryDx=0;entryDy=0;entryPerimeter=0;strokeColor=default;align=center;verticalAlign=middle;fontFamily=Helvetica;fontSize=11;fontColor=default;labelBackgroundColor=default;endArrow=none;endFill=0;" parent="1" source="-28X3IPU-qpVwxlm2ra_-179" target="-28X3IPU-qpVwxlm2ra_-181" edge="1">
          <mxGeometry relative="1" as="geometry" />
        </mxCell>
        <mxCell id="-28X3IPU-qpVwxlm2ra_-192" style="edgeStyle=none;rounded=0;orthogonalLoop=1;jettySize=auto;html=1;exitX=0.5;exitY=1;exitDx=0;exitDy=0;exitPerimeter=0;entryX=0.5;entryY=0;entryDx=0;entryDy=0;entryPerimeter=0;strokeColor=default;align=center;verticalAlign=middle;fontFamily=Helvetica;fontSize=11;fontColor=default;labelBackgroundColor=default;endArrow=none;endFill=0;" parent="1" source="-28X3IPU-qpVwxlm2ra_-179" target="-28X3IPU-qpVwxlm2ra_-182" edge="1">
          <mxGeometry relative="1" as="geometry" />
        </mxCell>
        <mxCell id="-28X3IPU-qpVwxlm2ra_-193" style="edgeStyle=none;rounded=0;orthogonalLoop=1;jettySize=auto;html=1;exitX=1;exitY=0.5;exitDx=0;exitDy=0;exitPerimeter=0;entryX=0;entryY=0.5;entryDx=0;entryDy=0;entryPerimeter=0;strokeColor=default;align=center;verticalAlign=middle;fontFamily=Helvetica;fontSize=11;fontColor=default;labelBackgroundColor=default;endArrow=none;endFill=0;" parent="1" source="-28X3IPU-qpVwxlm2ra_-181" target="-28X3IPU-qpVwxlm2ra_-182" edge="1">
          <mxGeometry relative="1" as="geometry" />
        </mxCell>
        <mxCell id="-28X3IPU-qpVwxlm2ra_-194" value="х2" style="edgeLabel;html=1;align=center;verticalAlign=middle;resizable=0;points=[];fontFamily=Helvetica;fontSize=11;fontColor=default;labelBackgroundColor=default;" parent="-28X3IPU-qpVwxlm2ra_-193" connectable="0" vertex="1">
          <mxGeometry x="0.4233" relative="1" as="geometry">
            <mxPoint x="-9" y="-9" as="offset" />
          </mxGeometry>
        </mxCell>
        <mxCell id="5gdxTV0TSt_yze_bJtej-9" value="&lt;font face=&quot;Times New Roman&quot; style=&quot;font-size: 18px;&quot;&gt;&lt;b&gt;Уровень доступа&lt;/b&gt;&lt;/font&gt;" style="text;html=1;align=center;verticalAlign=middle;resizable=0;points=[];autosize=1;strokeColor=none;fillColor=none;fontFamily=Helvetica;fontSize=11;fontColor=default;labelBackgroundColor=default;strokeWidth=3;" parent="1" vertex="1">
          <mxGeometry x="-393" y="509.5" width="160" height="40" as="geometry" />
        </mxCell>
        <mxCell id="5gdxTV0TSt_yze_bJtej-11" value="&lt;font face=&quot;Times New Roman&quot; style=&quot;font-size: 18px;&quot;&gt;&lt;b&gt;Уровень агрегации&lt;/b&gt;&lt;/font&gt;" style="text;html=1;align=center;verticalAlign=middle;resizable=0;points=[];autosize=1;strokeColor=none;fillColor=none;fontFamily=Helvetica;fontSize=11;fontColor=default;labelBackgroundColor=default;strokeWidth=3;" parent="1" vertex="1">
          <mxGeometry x="-413" y="325" width="180" height="40" as="geometry" />
        </mxCell>
        <mxCell id="5gdxTV0TSt_yze_bJtej-12" value="&lt;font face=&quot;Times New Roman&quot; style=&quot;font-size: 18px;&quot;&gt;&lt;b&gt;Уровень доступа&lt;/b&gt;&lt;/font&gt;" style="text;html=1;align=center;verticalAlign=middle;resizable=0;points=[];autosize=1;strokeColor=none;fillColor=none;fontFamily=Helvetica;fontSize=11;fontColor=default;labelBackgroundColor=default;strokeWidth=3;" parent="1" vertex="1">
          <mxGeometry x="1200" y="1550" width="160" height="40" as="geometry" />
        </mxCell>
        <mxCell id="5gdxTV0TSt_yze_bJtej-13" value="&lt;font face=&quot;Times New Roman&quot; style=&quot;font-size: 18px;&quot;&gt;&lt;b&gt;Уровень агрегации&lt;/b&gt;&lt;/font&gt;" style="text;html=1;align=center;verticalAlign=middle;resizable=0;points=[];autosize=1;strokeColor=none;fillColor=none;fontFamily=Helvetica;fontSize=11;fontColor=default;labelBackgroundColor=default;strokeWidth=3;" parent="1" vertex="1">
          <mxGeometry x="1200" y="1415" width="180" height="40" as="geometry" />
        </mxCell>
        <mxCell id="5gdxTV0TSt_yze_bJtej-14" value="&lt;div style=&quot;text-align: center;&quot;&gt;&lt;font face=&quot;Times New Roman&quot;&gt;&lt;span style=&quot;font-size: 18px; text-wrap: nowrap;&quot;&gt;&lt;b&gt;Выходной уровень&lt;/b&gt;&lt;/span&gt;&lt;/font&gt;&lt;/div&gt;" style="text;whiteSpace=wrap;html=1;fontFamily=Helvetica;fontSize=11;fontColor=default;labelBackgroundColor=default;" parent="1" vertex="1">
          <mxGeometry x="1210" y="1270" width="190" height="50" as="geometry" />
        </mxCell>
        <mxCell id="-28X3IPU-qpVwxlm2ra_-84" style="edgeStyle=none;rounded=0;orthogonalLoop=1;jettySize=auto;html=1;exitX=0.5;exitY=0;exitDx=0;exitDy=0;exitPerimeter=0;entryX=0.5;entryY=1;entryDx=0;entryDy=0;entryPerimeter=0;strokeColor=default;align=center;verticalAlign=middle;fontFamily=Helvetica;fontSize=11;fontColor=default;labelBackgroundColor=default;endArrow=none;endFill=0;" parent="1" source="-28X3IPU-qpVwxlm2ra_-3" target="-28X3IPU-qpVwxlm2ra_-63" edge="1">
          <mxGeometry relative="1" as="geometry" />
        </mxCell>
        <mxCell id="-28X3IPU-qpVwxlm2ra_-85" style="edgeStyle=none;rounded=0;orthogonalLoop=1;jettySize=auto;html=1;exitX=0.5;exitY=0;exitDx=0;exitDy=0;exitPerimeter=0;entryX=0.5;entryY=1;entryDx=0;entryDy=0;entryPerimeter=0;strokeColor=default;align=center;verticalAlign=middle;fontFamily=Helvetica;fontSize=11;fontColor=default;labelBackgroundColor=default;endArrow=none;endFill=0;" parent="1" source="-28X3IPU-qpVwxlm2ra_-1" target="-28X3IPU-qpVwxlm2ra_-63" edge="1">
          <mxGeometry relative="1" as="geometry" />
        </mxCell>
        <mxCell id="-28X3IPU-qpVwxlm2ra_-86" style="edgeStyle=none;rounded=0;orthogonalLoop=1;jettySize=auto;html=1;exitX=0.5;exitY=0;exitDx=0;exitDy=0;exitPerimeter=0;entryX=0.5;entryY=1;entryDx=0;entryDy=0;entryPerimeter=0;strokeColor=default;align=center;verticalAlign=middle;fontFamily=Helvetica;fontSize=11;fontColor=default;labelBackgroundColor=default;endArrow=none;endFill=0;" parent="1" source="-28X3IPU-qpVwxlm2ra_-4" target="-28X3IPU-qpVwxlm2ra_-63" edge="1">
          <mxGeometry relative="1" as="geometry" />
        </mxCell>
        <mxCell id="-28X3IPU-qpVwxlm2ra_-87" style="edgeStyle=none;rounded=0;orthogonalLoop=1;jettySize=auto;html=1;exitX=0.5;exitY=0;exitDx=0;exitDy=0;exitPerimeter=0;entryX=0.5;entryY=1;entryDx=0;entryDy=0;entryPerimeter=0;strokeColor=default;align=center;verticalAlign=middle;fontFamily=Helvetica;fontSize=11;fontColor=default;labelBackgroundColor=default;endArrow=none;endFill=0;" parent="1" source="-28X3IPU-qpVwxlm2ra_-5" target="-28X3IPU-qpVwxlm2ra_-63" edge="1">
          <mxGeometry relative="1" as="geometry" />
        </mxCell>
        <mxCell id="-28X3IPU-qpVwxlm2ra_-88" style="edgeStyle=none;rounded=0;orthogonalLoop=1;jettySize=auto;html=1;exitX=0.5;exitY=0;exitDx=0;exitDy=0;exitPerimeter=0;entryX=0.5;entryY=1;entryDx=0;entryDy=0;entryPerimeter=0;strokeColor=#00FF00;align=center;verticalAlign=middle;fontFamily=Helvetica;fontSize=11;fontColor=default;labelBackgroundColor=default;endArrow=none;endFill=0;" parent="1" source="-28X3IPU-qpVwxlm2ra_-1" target="-28X3IPU-qpVwxlm2ra_-69" edge="1">
          <mxGeometry relative="1" as="geometry" />
        </mxCell>
        <mxCell id="-28X3IPU-qpVwxlm2ra_-89" style="edgeStyle=none;rounded=0;orthogonalLoop=1;jettySize=auto;html=1;exitX=0.5;exitY=0;exitDx=0;exitDy=0;exitPerimeter=0;entryX=0.5;entryY=1;entryDx=0;entryDy=0;entryPerimeter=0;strokeColor=#00FF00;align=center;verticalAlign=middle;fontFamily=Helvetica;fontSize=11;fontColor=default;labelBackgroundColor=default;endArrow=none;endFill=0;" parent="1" source="-28X3IPU-qpVwxlm2ra_-3" target="-28X3IPU-qpVwxlm2ra_-69" edge="1">
          <mxGeometry relative="1" as="geometry" />
        </mxCell>
        <mxCell id="-28X3IPU-qpVwxlm2ra_-90" style="edgeStyle=none;rounded=0;orthogonalLoop=1;jettySize=auto;html=1;exitX=0.5;exitY=0;exitDx=0;exitDy=0;exitPerimeter=0;entryX=0.5;entryY=1;entryDx=0;entryDy=0;entryPerimeter=0;strokeColor=#00FF00;align=center;verticalAlign=middle;fontFamily=Helvetica;fontSize=11;fontColor=default;labelBackgroundColor=default;endArrow=none;endFill=0;" parent="1" source="-28X3IPU-qpVwxlm2ra_-4" target="-28X3IPU-qpVwxlm2ra_-69" edge="1">
          <mxGeometry relative="1" as="geometry" />
        </mxCell>
        <mxCell id="-28X3IPU-qpVwxlm2ra_-91" style="edgeStyle=none;rounded=0;orthogonalLoop=1;jettySize=auto;html=1;exitX=0.5;exitY=0;exitDx=0;exitDy=0;exitPerimeter=0;entryX=0.5;entryY=1;entryDx=0;entryDy=0;entryPerimeter=0;strokeColor=#00FF00;align=center;verticalAlign=middle;fontFamily=Helvetica;fontSize=11;fontColor=default;labelBackgroundColor=default;endArrow=none;endFill=0;" parent="1" source="-28X3IPU-qpVwxlm2ra_-5" target="-28X3IPU-qpVwxlm2ra_-69" edge="1">
          <mxGeometry relative="1" as="geometry" />
        </mxCell>
        <mxCell id="-28X3IPU-qpVwxlm2ra_-63" value="" style="sketch=0;points=[[0.015,0.015,0],[0.985,0.015,0],[0.985,0.985,0],[0.015,0.985,0],[0.25,0,0],[0.5,0,0],[0.75,0,0],[1,0.25,0],[1,0.5,0],[1,0.75,0],[0.75,1,0],[0.5,1,0],[0.25,1,0],[0,0.75,0],[0,0.5,0],[0,0.25,0]];verticalLabelPosition=bottom;html=1;verticalAlign=top;aspect=fixed;align=center;pointerEvents=1;shape=mxgraph.cisco19.rect;prIcon=l3_switch;fillColor=#FAFAFA;strokeColor=#005073;flipH=0;movable=1;resizable=1;rotatable=1;deletable=1;editable=1;locked=0;connectable=1;" parent="1" vertex="1">
          <mxGeometry x="60" y="315" width="50" height="50" as="geometry" />
        </mxCell>
        <mxCell id="OuvUhGnFTSXVDVeN6YIj-11" value="" style="edgeStyle=none;rounded=0;orthogonalLoop=1;jettySize=auto;html=1;strokeColor=#990000;align=center;verticalAlign=middle;fontFamily=Helvetica;fontSize=11;fontColor=default;labelBackgroundColor=default;endArrow=none;endFill=0;" parent="1" source="-28X3IPU-qpVwxlm2ra_-69" target="-28X3IPU-qpVwxlm2ra_-63" edge="1">
          <mxGeometry relative="1" as="geometry" />
        </mxCell>
        <mxCell id="-28X3IPU-qpVwxlm2ra_-69" value="" style="sketch=0;points=[[0.015,0.015,0],[0.985,0.015,0],[0.985,0.985,0],[0.015,0.985,0],[0.25,0,0],[0.5,0,0],[0.75,0,0],[1,0.25,0],[1,0.5,0],[1,0.75,0],[0.75,1,0],[0.5,1,0],[0.25,1,0],[0,0.75,0],[0,0.5,0],[0,0.25,0]];verticalLabelPosition=bottom;html=1;verticalAlign=top;aspect=fixed;align=center;pointerEvents=1;shape=mxgraph.cisco19.rect;prIcon=l3_switch;fillColor=#dae8fc;strokeColor=#6c8ebf;flipH=0;movable=1;resizable=1;rotatable=1;deletable=1;editable=1;locked=0;connectable=1;" parent="1" vertex="1">
          <mxGeometry x="160" y="315" width="50" height="50" as="geometry" />
        </mxCell>
        <mxCell id="-28X3IPU-qpVwxlm2ra_-113" style="edgeStyle=none;rounded=0;orthogonalLoop=1;jettySize=auto;html=1;exitX=1;exitY=0.5;exitDx=0;exitDy=0;exitPerimeter=0;entryX=0;entryY=0.5;entryDx=0;entryDy=0;entryPerimeter=0;strokeColor=default;align=center;verticalAlign=middle;fontFamily=Helvetica;fontSize=11;fontColor=default;labelBackgroundColor=default;endArrow=none;endFill=0;" parent="1" source="-28X3IPU-qpVwxlm2ra_-63" target="-28X3IPU-qpVwxlm2ra_-69" edge="1">
          <mxGeometry relative="1" as="geometry" />
        </mxCell>
        <mxCell id="-28X3IPU-qpVwxlm2ra_-114" value="x5" style="edgeLabel;html=1;align=center;verticalAlign=middle;resizable=0;points=[];fontFamily=Helvetica;fontSize=11;fontColor=default;labelBackgroundColor=default;" parent="-28X3IPU-qpVwxlm2ra_-113" connectable="0" vertex="1">
          <mxGeometry x="315" relative="1" as="geometry">
            <mxPoint x="-12" y="-7" as="offset" />
          </mxGeometry>
        </mxCell>
        <mxCell id="-28X3IPU-qpVwxlm2ra_-222" value="х9" style="edgeLabel;html=1;align=center;verticalAlign=middle;resizable=0;points=[];fontFamily=Helvetica;fontSize=11;fontColor=default;labelBackgroundColor=default;" parent="-28X3IPU-qpVwxlm2ra_-113" connectable="0" vertex="1">
          <mxGeometry x="0.2597" y="3" relative="1" as="geometry">
            <mxPoint x="-6" y="-6" as="offset" />
          </mxGeometry>
        </mxCell>
        <mxCell id="-28X3IPU-qpVwxlm2ra_-223" value="" style="sketch=0;points=[[0.015,0.015,0],[0.985,0.015,0],[0.985,0.985,0],[0.015,0.985,0],[0.25,0,0],[0.5,0,0],[0.75,0,0],[1,0.25,0],[1,0.5,0],[1,0.75,0],[0.75,1,0],[0.5,1,0],[0.25,1,0],[0,0.75,0],[0,0.5,0],[0,0.25,0]];verticalLabelPosition=bottom;html=1;verticalAlign=top;aspect=fixed;align=center;pointerEvents=1;shape=mxgraph.cisco19.rect;prIcon=l2_switch;fillColor=#FAFAFA;strokeColor=#97D077;" parent="1" vertex="1">
          <mxGeometry x="-5" y="710" width="50" height="50" as="geometry" />
        </mxCell>
        <mxCell id="-28X3IPU-qpVwxlm2ra_-225" value="" style="sketch=0;points=[[0.015,0.015,0],[0.985,0.015,0],[0.985,0.985,0],[0.015,0.985,0],[0.25,0,0],[0.5,0,0],[0.75,0,0],[1,0.25,0],[1,0.5,0],[1,0.75,0],[0.75,1,0],[0.5,1,0],[0.25,1,0],[0,0.75,0],[0,0.5,0],[0,0.25,0]];verticalLabelPosition=bottom;html=1;verticalAlign=top;aspect=fixed;align=center;pointerEvents=1;shape=mxgraph.cisco19.rect;prIcon=l2_switch;fillColor=#FAFAFA;strokeColor=#005073;" parent="1" vertex="1">
          <mxGeometry x="-5" y="640" width="50" height="50" as="geometry" />
        </mxCell>
        <mxCell id="-28X3IPU-qpVwxlm2ra_-226" value="" style="sketch=0;points=[[0.015,0.015,0],[0.985,0.015,0],[0.985,0.985,0],[0.015,0.985,0],[0.25,0,0],[0.5,0,0],[0.75,0,0],[1,0.25,0],[1,0.5,0],[1,0.75,0],[0.75,1,0],[0.5,1,0],[0.25,1,0],[0,0.75,0],[0,0.5,0],[0,0.25,0]];verticalLabelPosition=bottom;html=1;verticalAlign=top;aspect=fixed;align=center;pointerEvents=1;shape=mxgraph.cisco19.rect;prIcon=l3_switch;fillColor=#FAFAFA;strokeColor=#005073;flipH=0;movable=1;resizable=1;rotatable=1;deletable=1;editable=1;locked=0;connectable=1;" parent="1" vertex="1">
          <mxGeometry x="-5" y="780" width="50" height="50" as="geometry" />
        </mxCell>
        <mxCell id="-28X3IPU-qpVwxlm2ra_-228" value="" style="sketch=0;points=[[0.5,0,0],[1,0.5,0],[0.5,1,0],[0,0.5,0],[0.145,0.145,0],[0.8555,0.145,0],[0.855,0.8555,0],[0.145,0.855,0]];verticalLabelPosition=bottom;html=1;verticalAlign=top;aspect=fixed;align=center;pointerEvents=1;shape=mxgraph.cisco19.rect;prIcon=router;fillColor=#FAFAFA;strokeColor=#005073;fontFamily=Helvetica;fontSize=11;fontColor=default;labelBackgroundColor=default;" parent="1" vertex="1">
          <mxGeometry x="240" y="645" width="50" height="50" as="geometry" />
        </mxCell>
        <mxCell id="5gdxTV0TSt_yze_bJtej-16" value="&lt;span style=&quot;color: rgb(0, 0, 0); font-family: Helvetica; font-size: 11px; font-style: normal; font-variant-ligatures: normal; font-variant-caps: normal; font-weight: 400; letter-spacing: normal; orphans: 2; text-indent: 0px; text-transform: none; widows: 2; word-spacing: 0px; -webkit-text-stroke-width: 0px; white-space: nowrap; background-color: rgb(255, 255, 255); text-decoration-thickness: initial; text-decoration-style: initial; text-decoration-color: initial; float: none; display: inline !important;&quot;&gt;Коммутатор L2 для камер&lt;/span&gt;" style="text;whiteSpace=wrap;html=1;fontFamily=Helvetica;fontSize=11;fontColor=default;labelBackgroundColor=default;align=left;verticalAlign=middle;" parent="1" vertex="1">
          <mxGeometry x="60" y="715" width="110" height="40" as="geometry" />
        </mxCell>
        <mxCell id="-28X3IPU-qpVwxlm2ra_-229" value="&lt;span style=&quot;color: rgb(0, 0, 0); font-family: Helvetica; font-size: 11px; font-style: normal; font-variant-ligatures: normal; font-variant-caps: normal; font-weight: 400; letter-spacing: normal; orphans: 2; text-indent: 0px; text-transform: none; widows: 2; word-spacing: 0px; -webkit-text-stroke-width: 0px; white-space: nowrap; background-color: rgb(255, 255, 255); text-decoration-thickness: initial; text-decoration-style: initial; text-decoration-color: initial; float: none; display: inline !important;&quot;&gt;Коммутатор L3&lt;/span&gt;" style="text;whiteSpace=wrap;html=1;fontFamily=Helvetica;fontSize=11;fontColor=default;labelBackgroundColor=default;align=left;verticalAlign=middle;" parent="1" vertex="1">
          <mxGeometry x="65" y="785" width="110" height="40" as="geometry" />
        </mxCell>
        <mxCell id="5gdxTV0TSt_yze_bJtej-17" value="Маршрутизатор" style="text;html=1;align=left;verticalAlign=middle;resizable=0;points=[];autosize=1;strokeColor=none;fillColor=none;fontFamily=Helvetica;fontSize=11;fontColor=default;labelBackgroundColor=default;" parent="1" vertex="1">
          <mxGeometry x="310" y="655" width="100" height="30" as="geometry" />
        </mxCell>
        <mxCell id="-28X3IPU-qpVwxlm2ra_-231" value="&lt;span style=&quot;color: rgb(0, 0, 0); font-family: Helvetica; font-size: 11px; font-style: normal; font-variant-ligatures: normal; font-variant-caps: normal; font-weight: 400; letter-spacing: normal; orphans: 2; text-indent: 0px; text-transform: none; widows: 2; word-spacing: 0px; -webkit-text-stroke-width: 0px; white-space: nowrap; background-color: rgb(255, 255, 255); text-decoration-thickness: initial; text-decoration-style: initial; text-decoration-color: initial; float: none; display: inline !important;&quot;&gt;Коммутатор L2&lt;/span&gt;" style="text;whiteSpace=wrap;html=1;fontFamily=Helvetica;fontSize=11;fontColor=default;labelBackgroundColor=default;align=left;verticalAlign=middle;" parent="1" vertex="1">
          <mxGeometry x="60" y="645" width="110" height="40" as="geometry" />
        </mxCell>
        <mxCell id="-28X3IPU-qpVwxlm2ra_-1" value="" style="sketch=0;points=[[0.015,0.015,0],[0.985,0.015,0],[0.985,0.985,0],[0.015,0.985,0],[0.25,0,0],[0.5,0,0],[0.75,0,0],[1,0.25,0],[1,0.5,0],[1,0.75,0],[0.75,1,0],[0.5,1,0],[0.25,1,0],[0,0.75,0],[0,0.5,0],[0,0.25,0]];verticalLabelPosition=bottom;html=1;verticalAlign=top;aspect=fixed;align=center;pointerEvents=1;shape=mxgraph.cisco19.rect;prIcon=l2_switch;fillColor=#FAFAFA;strokeColor=#97D077;" parent="1" vertex="1">
          <mxGeometry x="330" y="499.5" width="50" height="50" as="geometry" />
        </mxCell>
        <mxCell id="-28X3IPU-qpVwxlm2ra_-3" value="" style="sketch=0;points=[[0.015,0.015,0],[0.985,0.015,0],[0.985,0.985,0],[0.015,0.985,0],[0.25,0,0],[0.5,0,0],[0.75,0,0],[1,0.25,0],[1,0.5,0],[1,0.75,0],[0.75,1,0],[0.5,1,0],[0.25,1,0],[0,0.75,0],[0,0.5,0],[0,0.25,0]];verticalLabelPosition=bottom;html=1;verticalAlign=top;aspect=fixed;align=center;pointerEvents=1;shape=mxgraph.cisco19.rect;prIcon=l2_switch;fillColor=#FAFAFA;strokeColor=#005073;" parent="1" vertex="1">
          <mxGeometry x="-50" y="499.5" width="50" height="50" as="geometry" />
        </mxCell>
        <mxCell id="-28X3IPU-qpVwxlm2ra_-4" value="" style="sketch=0;points=[[0.015,0.015,0],[0.985,0.015,0],[0.985,0.985,0],[0.015,0.985,0],[0.25,0,0],[0.5,0,0],[0.75,0,0],[1,0.25,0],[1,0.5,0],[1,0.75,0],[0.75,1,0],[0.5,1,0],[0.25,1,0],[0,0.75,0],[0,0.5,0],[0,0.25,0]];verticalLabelPosition=bottom;html=1;verticalAlign=top;aspect=fixed;align=center;pointerEvents=1;shape=mxgraph.cisco19.rect;prIcon=l2_switch;fillColor=#FAFAFA;strokeColor=#005073;" parent="1" vertex="1">
          <mxGeometry x="50" y="499.5" width="50" height="50" as="geometry" />
        </mxCell>
        <mxCell id="-28X3IPU-qpVwxlm2ra_-5" value="" style="sketch=0;points=[[0.015,0.015,0],[0.985,0.015,0],[0.985,0.985,0],[0.015,0.985,0],[0.25,0,0],[0.5,0,0],[0.75,0,0],[1,0.25,0],[1,0.5,0],[1,0.75,0],[0.75,1,0],[0.5,1,0],[0.25,1,0],[0,0.75,0],[0,0.5,0],[0,0.25,0]];verticalLabelPosition=bottom;html=1;verticalAlign=top;aspect=fixed;align=center;pointerEvents=1;shape=mxgraph.cisco19.rect;prIcon=l2_switch;fillColor=#FAFAFA;strokeColor=#005073;" parent="1" vertex="1">
          <mxGeometry x="150" y="499.5" width="50" height="50" as="geometry" />
        </mxCell>
        <mxCell id="-28X3IPU-qpVwxlm2ra_-210" value="" style="group" parent="1" connectable="0" vertex="1">
          <mxGeometry x="2370" y="320" width="150" height="50" as="geometry" />
        </mxCell>
        <mxCell id="-28X3IPU-qpVwxlm2ra_-67" value="" style="sketch=0;points=[[0.015,0.015,0],[0.985,0.015,0],[0.985,0.985,0],[0.015,0.985,0],[0.25,0,0],[0.5,0,0],[0.75,0,0],[1,0.25,0],[1,0.5,0],[1,0.75,0],[0.75,1,0],[0.5,1,0],[0.25,1,0],[0,0.75,0],[0,0.5,0],[0,0.25,0]];verticalLabelPosition=bottom;html=1;verticalAlign=top;aspect=fixed;align=center;pointerEvents=1;shape=mxgraph.cisco19.rect;prIcon=l3_switch;fillColor=#FAFAFA;strokeColor=#005073;" parent="-28X3IPU-qpVwxlm2ra_-210" vertex="1">
          <mxGeometry width="50" height="50" as="geometry" />
        </mxCell>
        <mxCell id="5gdxTV0TSt_yze_bJtej-2" value="" style="sketch=0;points=[[0.015,0.015,0],[0.985,0.015,0],[0.985,0.985,0],[0.015,0.985,0],[0.25,0,0],[0.5,0,0],[0.75,0,0],[1,0.25,0],[1,0.5,0],[1,0.75,0],[0.75,1,0],[0.5,1,0],[0.25,1,0],[0,0.75,0],[0,0.5,0],[0,0.25,0]];verticalLabelPosition=bottom;html=1;verticalAlign=top;aspect=fixed;align=center;pointerEvents=1;shape=mxgraph.cisco19.rect;prIcon=l3_switch;fillColor=#dae8fc;strokeColor=#6c8ebf;" parent="-28X3IPU-qpVwxlm2ra_-210" vertex="1">
          <mxGeometry x="100" width="50" height="50" as="geometry" />
        </mxCell>
        <mxCell id="5gdxTV0TSt_yze_bJtej-7" style="edgeStyle=none;rounded=0;orthogonalLoop=1;jettySize=auto;html=1;exitX=1;exitY=0.5;exitDx=0;exitDy=0;exitPerimeter=0;entryX=0;entryY=0.5;entryDx=0;entryDy=0;entryPerimeter=0;strokeColor=default;align=center;verticalAlign=middle;fontFamily=Helvetica;fontSize=11;fontColor=default;labelBackgroundColor=default;endArrow=none;endFill=0;" parent="-28X3IPU-qpVwxlm2ra_-210" source="-28X3IPU-qpVwxlm2ra_-67" target="5gdxTV0TSt_yze_bJtej-2" edge="1">
          <mxGeometry relative="1" as="geometry" />
        </mxCell>
        <mxCell id="4OMlqrMxiYEjtJgDedAr-73" value="х4" style="edgeLabel;html=1;align=center;verticalAlign=middle;resizable=0;points=[];fontFamily=Helvetica;fontSize=11;fontColor=default;labelBackgroundColor=default;" parent="5gdxTV0TSt_yze_bJtej-7" connectable="0" vertex="1">
          <mxGeometry x="-0.1867" y="1" relative="1" as="geometry">
            <mxPoint x="1" y="-8" as="offset" />
          </mxGeometry>
        </mxCell>
        <mxCell id="5gdxTV0TSt_yze_bJtej-3" style="rounded=0;orthogonalLoop=1;jettySize=auto;html=1;exitX=0.5;exitY=0;exitDx=0;exitDy=0;exitPerimeter=0;entryX=0.5;entryY=1;entryDx=0;entryDy=0;entryPerimeter=0;endArrow=none;endFill=0;" parent="1" source="-28X3IPU-qpVwxlm2ra_-55" target="-28X3IPU-qpVwxlm2ra_-67" edge="1">
          <mxGeometry relative="1" as="geometry" />
        </mxCell>
        <mxCell id="-28X3IPU-qpVwxlm2ra_-166" style="edgeStyle=none;rounded=0;orthogonalLoop=1;jettySize=auto;html=1;exitX=0.5;exitY=0;exitDx=0;exitDy=0;exitPerimeter=0;entryX=0.5;entryY=1;entryDx=0;entryDy=0;entryPerimeter=0;strokeColor=default;align=center;verticalAlign=middle;fontFamily=Helvetica;fontSize=11;fontColor=default;labelBackgroundColor=default;endArrow=none;endFill=0;" parent="1" source="-28X3IPU-qpVwxlm2ra_-57" target="-28X3IPU-qpVwxlm2ra_-67" edge="1">
          <mxGeometry relative="1" as="geometry" />
        </mxCell>
        <mxCell id="-28X3IPU-qpVwxlm2ra_-167" style="edgeStyle=none;rounded=0;orthogonalLoop=1;jettySize=auto;html=1;exitX=0.5;exitY=0;exitDx=0;exitDy=0;exitPerimeter=0;entryX=0.5;entryY=1;entryDx=0;entryDy=0;entryPerimeter=0;strokeColor=#00FF00;align=center;verticalAlign=middle;fontFamily=Helvetica;fontSize=11;fontColor=default;labelBackgroundColor=default;endArrow=none;endFill=0;" parent="1" source="-28X3IPU-qpVwxlm2ra_-57" target="5gdxTV0TSt_yze_bJtej-2" edge="1">
          <mxGeometry relative="1" as="geometry" />
        </mxCell>
        <mxCell id="-28X3IPU-qpVwxlm2ra_-165" style="edgeStyle=none;rounded=0;orthogonalLoop=1;jettySize=auto;html=1;exitX=0.5;exitY=0;exitDx=0;exitDy=0;exitPerimeter=0;entryX=0.5;entryY=1;entryDx=0;entryDy=0;entryPerimeter=0;strokeColor=#00FF00;align=center;verticalAlign=middle;fontFamily=Helvetica;fontSize=11;fontColor=default;labelBackgroundColor=default;endArrow=none;endFill=0;" parent="1" source="-28X3IPU-qpVwxlm2ra_-55" target="5gdxTV0TSt_yze_bJtej-2" edge="1">
          <mxGeometry relative="1" as="geometry" />
        </mxCell>
        <mxCell id="-28X3IPU-qpVwxlm2ra_-55" value="" style="sketch=0;points=[[0.015,0.015,0],[0.985,0.015,0],[0.985,0.985,0],[0.015,0.985,0],[0.25,0,0],[0.5,0,0],[0.75,0,0],[1,0.25,0],[1,0.5,0],[1,0.75,0],[0.75,1,0],[0.5,1,0],[0.25,1,0],[0,0.75,0],[0,0.5,0],[0,0.25,0]];verticalLabelPosition=bottom;html=1;verticalAlign=top;aspect=fixed;align=center;pointerEvents=1;shape=mxgraph.cisco19.rect;prIcon=l2_switch;fillColor=#FAFAFA;strokeColor=#005073;" parent="1" vertex="1">
          <mxGeometry x="2290" y="499" width="50" height="50" as="geometry" />
        </mxCell>
        <mxCell id="-28X3IPU-qpVwxlm2ra_-57" value="" style="sketch=0;points=[[0.015,0.015,0],[0.985,0.015,0],[0.985,0.985,0],[0.015,0.985,0],[0.25,0,0],[0.5,0,0],[0.75,0,0],[1,0.25,0],[1,0.5,0],[1,0.75,0],[0.75,1,0],[0.5,1,0],[0.25,1,0],[0,0.75,0],[0,0.5,0],[0,0.25,0]];verticalLabelPosition=bottom;html=1;verticalAlign=top;aspect=fixed;align=center;pointerEvents=1;shape=mxgraph.cisco19.rect;prIcon=l2_switch;fillColor=#FAFAFA;strokeColor=#005073;" parent="1" vertex="1">
          <mxGeometry x="2450" y="499" width="50" height="50" as="geometry" />
        </mxCell>
        <mxCell id="1KV0u5xqLlpl0TTELTNx-2" value="" style="sketch=0;points=[[0.015,0.015,0],[0.985,0.015,0],[0.985,0.985,0],[0.015,0.985,0],[0.25,0,0],[0.5,0,0],[0.75,0,0],[1,0.25,0],[1,0.5,0],[1,0.75,0],[0.75,1,0],[0.5,1,0],[0.25,1,0],[0,0.75,0],[0,0.5,0],[0,0.25,0]];verticalLabelPosition=bottom;html=1;verticalAlign=top;aspect=fixed;align=center;pointerEvents=1;shape=mxgraph.cisco19.rect;prIcon=l2_switch;fillColor=#FAFAFA;strokeColor=#005073;" parent="1" vertex="1">
          <mxGeometry x="2369" y="498.5" width="50" height="50" as="geometry" />
        </mxCell>
        <mxCell id="1KV0u5xqLlpl0TTELTNx-4" style="rounded=0;orthogonalLoop=1;jettySize=auto;html=1;exitX=0.5;exitY=0;exitDx=0;exitDy=0;exitPerimeter=0;entryX=0.5;entryY=1;entryDx=0;entryDy=0;entryPerimeter=0;endArrow=none;endFill=0;" parent="1" source="1KV0u5xqLlpl0TTELTNx-2" target="-28X3IPU-qpVwxlm2ra_-67" edge="1">
          <mxGeometry relative="1" as="geometry" />
        </mxCell>
        <mxCell id="1KV0u5xqLlpl0TTELTNx-6" style="edgeStyle=none;rounded=0;orthogonalLoop=1;jettySize=auto;html=1;exitX=0.5;exitY=0;exitDx=0;exitDy=0;exitPerimeter=0;entryX=0.5;entryY=1;entryDx=0;entryDy=0;entryPerimeter=0;strokeColor=#00FF00;align=center;verticalAlign=middle;fontFamily=Helvetica;fontSize=11;fontColor=default;labelBackgroundColor=default;endArrow=none;endFill=0;" parent="1" source="1KV0u5xqLlpl0TTELTNx-2" target="5gdxTV0TSt_yze_bJtej-2" edge="1">
          <mxGeometry relative="1" as="geometry" />
        </mxCell>
        <mxCell id="1KV0u5xqLlpl0TTELTNx-7" value="" style="sketch=0;points=[[0.015,0.015,0],[0.985,0.015,0],[0.985,0.985,0],[0.015,0.985,0],[0.25,0,0],[0.5,0,0],[0.75,0,0],[1,0.25,0],[1,0.5,0],[1,0.75,0],[0.75,1,0],[0.5,1,0],[0.25,1,0],[0,0.75,0],[0,0.5,0],[0,0.25,0]];verticalLabelPosition=bottom;html=1;verticalAlign=top;aspect=fixed;align=center;pointerEvents=1;shape=mxgraph.cisco19.rect;prIcon=l3_switch;fillColor=#FAFAFA;strokeColor=#005073;flipH=0;movable=1;resizable=1;rotatable=1;deletable=1;editable=1;locked=0;connectable=1;" parent="1" vertex="1">
          <mxGeometry x="-140" y="500" width="50" height="50" as="geometry" />
        </mxCell>
        <mxCell id="1KV0u5xqLlpl0TTELTNx-8" style="edgeStyle=none;rounded=0;orthogonalLoop=1;jettySize=auto;html=1;exitX=0.5;exitY=0;exitDx=0;exitDy=0;exitPerimeter=0;entryX=0.5;entryY=1;entryDx=0;entryDy=0;entryPerimeter=0;strokeColor=#000000;align=center;verticalAlign=middle;fontFamily=Helvetica;fontSize=11;fontColor=default;labelBackgroundColor=default;endArrow=none;endFill=0;fillColor=#008a00;" parent="1" source="1KV0u5xqLlpl0TTELTNx-7" target="-28X3IPU-qpVwxlm2ra_-63" edge="1">
          <mxGeometry relative="1" as="geometry" />
        </mxCell>
        <mxCell id="1KV0u5xqLlpl0TTELTNx-10" value="х4" style="edgeLabel;html=1;align=center;verticalAlign=middle;resizable=0;points=[];fontFamily=Helvetica;fontSize=11;fontColor=#000000;labelBackgroundColor=default;rotation=-45;" parent="1KV0u5xqLlpl0TTELTNx-8" connectable="0" vertex="1">
          <mxGeometry x="0.1729" y="1" relative="1" as="geometry">
            <mxPoint x="-22" y="6" as="offset" />
          </mxGeometry>
        </mxCell>
        <mxCell id="1KV0u5xqLlpl0TTELTNx-11" value="х4" style="edgeLabel;html=1;align=center;verticalAlign=middle;resizable=0;points=[];fontFamily=Helvetica;fontSize=11;fontColor=#000000;labelBackgroundColor=default;rotation=-35;" parent="1KV0u5xqLlpl0TTELTNx-8" connectable="0" vertex="1">
          <mxGeometry x="0.1729" y="1" relative="1" as="geometry">
            <mxPoint x="-2" y="20" as="offset" />
          </mxGeometry>
        </mxCell>
        <mxCell id="1KV0u5xqLlpl0TTELTNx-9" style="edgeStyle=none;rounded=0;orthogonalLoop=1;jettySize=auto;html=1;exitX=0.5;exitY=0;exitDx=0;exitDy=0;exitPerimeter=0;entryX=0.5;entryY=1;entryDx=0;entryDy=0;entryPerimeter=0;strokeColor=#00FF00;align=center;verticalAlign=middle;fontFamily=Helvetica;fontSize=11;fontColor=default;labelBackgroundColor=default;endArrow=none;endFill=0;fillColor=#008a00;" parent="1" source="1KV0u5xqLlpl0TTELTNx-7" target="-28X3IPU-qpVwxlm2ra_-69" edge="1">
          <mxGeometry relative="1" as="geometry" />
        </mxCell>
        <mxCell id="1KV0u5xqLlpl0TTELTNx-12" style="edgeStyle=none;rounded=0;orthogonalLoop=1;jettySize=auto;html=1;exitX=0;exitY=0.25;exitDx=0;exitDy=0;exitPerimeter=0;entryX=0.015;entryY=0.015;entryDx=0;entryDy=0;entryPerimeter=0;strokeColor=default;align=center;verticalAlign=middle;fontFamily=Helvetica;fontSize=11;fontColor=default;labelBackgroundColor=default;endArrow=none;endFill=0;" parent="1" source="1KV0u5xqLlpl0TTELTNx-2" target="1KV0u5xqLlpl0TTELTNx-2" edge="1">
          <mxGeometry relative="1" as="geometry" />
        </mxCell>
        <mxCell id="1KV0u5xqLlpl0TTELTNx-13" value="" style="sketch=0;points=[[0.5,0,0],[1,0.5,0],[0.5,1,0],[0,0.5,0],[0.145,0.145,0],[0.8555,0.145,0],[0.855,0.8555,0],[0.145,0.855,0]];verticalLabelPosition=bottom;html=1;verticalAlign=top;aspect=fixed;align=center;pointerEvents=1;shape=mxgraph.cisco19.rect;prIcon=router;fillColor=#FAFAFA;strokeColor=#005073;fontFamily=Helvetica;fontSize=11;fontColor=default;labelBackgroundColor=default;" parent="1" vertex="1">
          <mxGeometry x="1545" y="1270" width="50" height="50" as="geometry" />
        </mxCell>
        <mxCell id="1KV0u5xqLlpl0TTELTNx-14" style="edgeStyle=none;rounded=0;orthogonalLoop=1;jettySize=auto;html=1;exitX=0.5;exitY=0;exitDx=0;exitDy=0;exitPerimeter=0;entryX=0.5;entryY=1;entryDx=0;entryDy=0;entryPerimeter=0;strokeColor=default;align=center;verticalAlign=middle;fontFamily=Helvetica;fontSize=11;fontColor=default;labelBackgroundColor=default;endArrow=none;endFill=0;" parent="1" source="-28X3IPU-qpVwxlm2ra_-181" target="1KV0u5xqLlpl0TTELTNx-13" edge="1">
          <mxGeometry relative="1" as="geometry" />
        </mxCell>
        <mxCell id="1KV0u5xqLlpl0TTELTNx-15" style="edgeStyle=none;rounded=0;orthogonalLoop=1;jettySize=auto;html=1;exitX=0.5;exitY=0;exitDx=0;exitDy=0;exitPerimeter=0;entryX=0.5;entryY=1;entryDx=0;entryDy=0;entryPerimeter=0;strokeColor=default;align=center;verticalAlign=middle;fontFamily=Helvetica;fontSize=11;fontColor=default;labelBackgroundColor=default;endArrow=none;endFill=0;" parent="1" source="-28X3IPU-qpVwxlm2ra_-182" target="1KV0u5xqLlpl0TTELTNx-13" edge="1">
          <mxGeometry relative="1" as="geometry" />
        </mxCell>
        <mxCell id="4OMlqrMxiYEjtJgDedAr-1" value="" style="sketch=0;points=[[0.015,0.015,0],[0.985,0.015,0],[0.985,0.985,0],[0.015,0.985,0],[0.25,0,0],[0.5,0,0],[0.75,0,0],[1,0.25,0],[1,0.5,0],[1,0.75,0],[0.75,1,0],[0.5,1,0],[0.25,1,0],[0,0.75,0],[0,0.5,0],[0,0.25,0]];verticalLabelPosition=bottom;html=1;verticalAlign=top;aspect=fixed;align=center;pointerEvents=1;shape=mxgraph.cisco19.rect;prIcon=l2_switch;fillColor=#FAFAFA;strokeColor=#005073;" parent="1" vertex="1">
          <mxGeometry x="240" y="500" width="50" height="50" as="geometry" />
        </mxCell>
        <mxCell id="4OMlqrMxiYEjtJgDedAr-2" style="rounded=0;orthogonalLoop=1;jettySize=auto;html=1;exitX=0.5;exitY=0;exitDx=0;exitDy=0;exitPerimeter=0;entryX=0.5;entryY=1;entryDx=0;entryDy=0;entryPerimeter=0;endArrow=none;endFill=0;" parent="1" source="4OMlqrMxiYEjtJgDedAr-1" target="-28X3IPU-qpVwxlm2ra_-63" edge="1">
          <mxGeometry relative="1" as="geometry" />
        </mxCell>
        <mxCell id="4OMlqrMxiYEjtJgDedAr-3" style="edgeStyle=none;rounded=0;orthogonalLoop=1;jettySize=auto;html=1;exitX=0.5;exitY=0;exitDx=0;exitDy=0;exitPerimeter=0;entryX=0.5;entryY=1;entryDx=0;entryDy=0;entryPerimeter=0;strokeColor=#00FF00;align=center;verticalAlign=middle;fontFamily=Helvetica;fontSize=11;fontColor=default;labelBackgroundColor=default;endArrow=none;endFill=0;" parent="1" source="4OMlqrMxiYEjtJgDedAr-1" target="-28X3IPU-qpVwxlm2ra_-69" edge="1">
          <mxGeometry relative="1" as="geometry" />
        </mxCell>
        <mxCell id="-28X3IPU-qpVwxlm2ra_-100" style="edgeStyle=none;rounded=0;orthogonalLoop=1;jettySize=auto;html=1;exitX=0.5;exitY=0;exitDx=0;exitDy=0;exitPerimeter=0;strokeColor=default;align=center;verticalAlign=middle;fontFamily=Helvetica;fontSize=11;fontColor=default;labelBackgroundColor=default;endArrow=none;endFill=0;entryX=0.5;entryY=1;entryDx=0;entryDy=0;entryPerimeter=0;" parent="1" source="-28X3IPU-qpVwxlm2ra_-9" target="-28X3IPU-qpVwxlm2ra_-65" edge="1">
          <mxGeometry relative="1" as="geometry">
            <mxPoint x="750" y="400" as="targetPoint" />
          </mxGeometry>
        </mxCell>
        <mxCell id="-28X3IPU-qpVwxlm2ra_-97" style="edgeStyle=none;rounded=0;orthogonalLoop=1;jettySize=auto;html=1;exitX=0.5;exitY=0;exitDx=0;exitDy=0;exitPerimeter=0;entryX=0.5;entryY=1;entryDx=0;entryDy=0;entryPerimeter=0;strokeColor=default;align=center;verticalAlign=middle;fontFamily=Helvetica;fontSize=11;fontColor=default;labelBackgroundColor=default;endArrow=none;endFill=0;" parent="1" source="-28X3IPU-qpVwxlm2ra_-6" target="-28X3IPU-qpVwxlm2ra_-65" edge="1">
          <mxGeometry relative="1" as="geometry" />
        </mxCell>
        <mxCell id="-28X3IPU-qpVwxlm2ra_-98" style="edgeStyle=none;rounded=0;orthogonalLoop=1;jettySize=auto;html=1;exitX=0.5;exitY=0;exitDx=0;exitDy=0;exitPerimeter=0;entryX=0.5;entryY=1;entryDx=0;entryDy=0;entryPerimeter=0;strokeColor=default;align=center;verticalAlign=middle;fontFamily=Helvetica;fontSize=11;fontColor=default;labelBackgroundColor=default;endArrow=none;endFill=0;" parent="1" source="-28X3IPU-qpVwxlm2ra_-7" target="-28X3IPU-qpVwxlm2ra_-65" edge="1">
          <mxGeometry relative="1" as="geometry" />
        </mxCell>
        <mxCell id="-28X3IPU-qpVwxlm2ra_-99" style="edgeStyle=none;rounded=0;orthogonalLoop=1;jettySize=auto;html=1;exitX=0.5;exitY=0;exitDx=0;exitDy=0;exitPerimeter=0;entryX=0.5;entryY=1;entryDx=0;entryDy=0;entryPerimeter=0;strokeColor=default;align=center;verticalAlign=middle;fontFamily=Helvetica;fontSize=11;fontColor=default;labelBackgroundColor=default;endArrow=none;endFill=0;" parent="1" source="-28X3IPU-qpVwxlm2ra_-8" target="-28X3IPU-qpVwxlm2ra_-65" edge="1">
          <mxGeometry relative="1" as="geometry" />
        </mxCell>
        <mxCell id="-28X3IPU-qpVwxlm2ra_-101" style="edgeStyle=none;rounded=0;orthogonalLoop=1;jettySize=auto;html=1;exitX=0.5;exitY=0;exitDx=0;exitDy=0;exitPerimeter=0;entryX=0.5;entryY=1;entryDx=0;entryDy=0;entryPerimeter=0;strokeColor=default;align=center;verticalAlign=middle;fontFamily=Helvetica;fontSize=11;fontColor=default;labelBackgroundColor=default;endArrow=none;endFill=0;" parent="1" source="-28X3IPU-qpVwxlm2ra_-10" target="-28X3IPU-qpVwxlm2ra_-65" edge="1">
          <mxGeometry relative="1" as="geometry" />
        </mxCell>
        <mxCell id="-28X3IPU-qpVwxlm2ra_-102" style="edgeStyle=none;rounded=0;orthogonalLoop=1;jettySize=auto;html=1;exitX=0.5;exitY=0;exitDx=0;exitDy=0;exitPerimeter=0;entryX=0.5;entryY=1;entryDx=0;entryDy=0;entryPerimeter=0;strokeColor=default;align=center;verticalAlign=middle;fontFamily=Helvetica;fontSize=11;fontColor=default;labelBackgroundColor=default;endArrow=none;endFill=0;" parent="1" source="-28X3IPU-qpVwxlm2ra_-11" target="-28X3IPU-qpVwxlm2ra_-65" edge="1">
          <mxGeometry relative="1" as="geometry" />
        </mxCell>
        <mxCell id="-28X3IPU-qpVwxlm2ra_-103" style="edgeStyle=none;rounded=0;orthogonalLoop=1;jettySize=auto;html=1;exitX=0.5;exitY=0;exitDx=0;exitDy=0;exitPerimeter=0;entryX=0.5;entryY=1;entryDx=0;entryDy=0;entryPerimeter=0;strokeColor=default;align=center;verticalAlign=middle;fontFamily=Helvetica;fontSize=11;fontColor=default;labelBackgroundColor=default;endArrow=none;endFill=0;" parent="1" source="-28X3IPU-qpVwxlm2ra_-12" target="-28X3IPU-qpVwxlm2ra_-65" edge="1">
          <mxGeometry relative="1" as="geometry" />
        </mxCell>
        <mxCell id="-28X3IPU-qpVwxlm2ra_-104" style="edgeStyle=none;rounded=0;orthogonalLoop=1;jettySize=auto;html=1;exitX=0.5;exitY=0;exitDx=0;exitDy=0;exitPerimeter=0;entryX=0.5;entryY=1;entryDx=0;entryDy=0;entryPerimeter=0;strokeColor=#00FF00;align=center;verticalAlign=middle;fontFamily=Helvetica;fontSize=11;fontColor=default;labelBackgroundColor=default;endArrow=none;endFill=0;" parent="1" source="-28X3IPU-qpVwxlm2ra_-6" target="-28X3IPU-qpVwxlm2ra_-96" edge="1">
          <mxGeometry relative="1" as="geometry" />
        </mxCell>
        <mxCell id="-28X3IPU-qpVwxlm2ra_-108" style="edgeStyle=none;rounded=0;orthogonalLoop=1;jettySize=auto;html=1;exitX=0.5;exitY=0;exitDx=0;exitDy=0;exitPerimeter=0;entryX=0.5;entryY=1;entryDx=0;entryDy=0;entryPerimeter=0;strokeColor=#00FF00;align=center;verticalAlign=middle;fontFamily=Helvetica;fontSize=11;fontColor=default;labelBackgroundColor=default;endArrow=none;endFill=0;" parent="1" source="-28X3IPU-qpVwxlm2ra_-10" target="-28X3IPU-qpVwxlm2ra_-96" edge="1">
          <mxGeometry relative="1" as="geometry" />
        </mxCell>
        <mxCell id="-28X3IPU-qpVwxlm2ra_-109" style="edgeStyle=none;rounded=0;orthogonalLoop=1;jettySize=auto;html=1;exitX=0.5;exitY=0;exitDx=0;exitDy=0;exitPerimeter=0;entryX=0.5;entryY=1;entryDx=0;entryDy=0;entryPerimeter=0;strokeColor=#00FF00;align=center;verticalAlign=middle;fontFamily=Helvetica;fontSize=11;fontColor=default;labelBackgroundColor=default;endArrow=none;endFill=0;" parent="1" source="-28X3IPU-qpVwxlm2ra_-11" target="-28X3IPU-qpVwxlm2ra_-96" edge="1">
          <mxGeometry relative="1" as="geometry" />
        </mxCell>
        <mxCell id="-28X3IPU-qpVwxlm2ra_-110" style="edgeStyle=none;rounded=0;orthogonalLoop=1;jettySize=auto;html=1;exitX=0.5;exitY=0;exitDx=0;exitDy=0;exitPerimeter=0;entryX=0.5;entryY=1;entryDx=0;entryDy=0;entryPerimeter=0;strokeColor=#00FF00;align=center;verticalAlign=middle;fontFamily=Helvetica;fontSize=11;fontColor=default;labelBackgroundColor=default;endArrow=none;endFill=0;" parent="1" source="-28X3IPU-qpVwxlm2ra_-12" target="-28X3IPU-qpVwxlm2ra_-96" edge="1">
          <mxGeometry relative="1" as="geometry" />
        </mxCell>
        <mxCell id="-28X3IPU-qpVwxlm2ra_-105" style="edgeStyle=none;rounded=0;orthogonalLoop=1;jettySize=auto;html=1;exitX=0.5;exitY=0;exitDx=0;exitDy=0;exitPerimeter=0;entryX=0.5;entryY=1;entryDx=0;entryDy=0;entryPerimeter=0;strokeColor=#00FF00;align=center;verticalAlign=middle;fontFamily=Helvetica;fontSize=11;fontColor=default;labelBackgroundColor=default;endArrow=none;endFill=0;" parent="1" source="-28X3IPU-qpVwxlm2ra_-7" target="-28X3IPU-qpVwxlm2ra_-96" edge="1">
          <mxGeometry relative="1" as="geometry" />
        </mxCell>
        <mxCell id="-28X3IPU-qpVwxlm2ra_-106" style="edgeStyle=none;rounded=0;orthogonalLoop=1;jettySize=auto;html=1;exitX=0.5;exitY=0;exitDx=0;exitDy=0;exitPerimeter=0;entryX=0.5;entryY=1;entryDx=0;entryDy=0;entryPerimeter=0;strokeColor=#00FF00;align=center;verticalAlign=middle;fontFamily=Helvetica;fontSize=11;fontColor=default;labelBackgroundColor=default;endArrow=none;endFill=0;" parent="1" source="-28X3IPU-qpVwxlm2ra_-8" target="-28X3IPU-qpVwxlm2ra_-96" edge="1">
          <mxGeometry relative="1" as="geometry" />
        </mxCell>
        <mxCell id="-28X3IPU-qpVwxlm2ra_-107" style="edgeStyle=none;rounded=0;orthogonalLoop=1;jettySize=auto;html=1;exitX=0.5;exitY=0;exitDx=0;exitDy=0;exitPerimeter=0;entryX=0.5;entryY=1;entryDx=0;entryDy=0;entryPerimeter=0;strokeColor=#00FF00;align=center;verticalAlign=middle;fontFamily=Helvetica;fontSize=11;fontColor=default;labelBackgroundColor=default;endArrow=none;endFill=0;" parent="1" source="-28X3IPU-qpVwxlm2ra_-9" target="-28X3IPU-qpVwxlm2ra_-96" edge="1">
          <mxGeometry relative="1" as="geometry" />
        </mxCell>
        <mxCell id="-28X3IPU-qpVwxlm2ra_-197" value="" style="group" parent="1" connectable="0" vertex="1">
          <mxGeometry x="620" y="320" width="180" height="50" as="geometry" />
        </mxCell>
        <mxCell id="-28X3IPU-qpVwxlm2ra_-65" value="" style="sketch=0;points=[[0.015,0.015,0],[0.985,0.015,0],[0.985,0.985,0],[0.015,0.985,0],[0.25,0,0],[0.5,0,0],[0.75,0,0],[1,0.25,0],[1,0.5,0],[1,0.75,0],[0.75,1,0],[0.5,1,0],[0.25,1,0],[0,0.75,0],[0,0.5,0],[0,0.25,0]];verticalLabelPosition=bottom;html=1;verticalAlign=top;aspect=fixed;align=center;pointerEvents=1;shape=mxgraph.cisco19.rect;prIcon=l3_switch;fillColor=#FAFAFA;strokeColor=#005073;" parent="-28X3IPU-qpVwxlm2ra_-197" vertex="1">
          <mxGeometry width="50" height="50" as="geometry" />
        </mxCell>
        <mxCell id="-28X3IPU-qpVwxlm2ra_-96" value="" style="sketch=0;points=[[0.015,0.015,0],[0.985,0.015,0],[0.985,0.985,0],[0.015,0.985,0],[0.25,0,0],[0.5,0,0],[0.75,0,0],[1,0.25,0],[1,0.5,0],[1,0.75,0],[0.75,1,0],[0.5,1,0],[0.25,1,0],[0,0.75,0],[0,0.5,0],[0,0.25,0]];verticalLabelPosition=bottom;html=1;verticalAlign=top;aspect=fixed;align=center;pointerEvents=1;shape=mxgraph.cisco19.rect;prIcon=l3_switch;fillColor=#dae8fc;strokeColor=#6c8ebf;" parent="-28X3IPU-qpVwxlm2ra_-197" vertex="1">
          <mxGeometry x="130" width="50" height="50" as="geometry" />
        </mxCell>
        <mxCell id="-28X3IPU-qpVwxlm2ra_-111" style="edgeStyle=none;rounded=0;orthogonalLoop=1;jettySize=auto;html=1;exitX=1;exitY=0.5;exitDx=0;exitDy=0;exitPerimeter=0;entryX=0;entryY=0.5;entryDx=0;entryDy=0;entryPerimeter=0;strokeColor=default;align=center;verticalAlign=middle;fontFamily=Helvetica;fontSize=11;fontColor=default;labelBackgroundColor=default;endArrow=none;endFill=0;" parent="-28X3IPU-qpVwxlm2ra_-197" source="-28X3IPU-qpVwxlm2ra_-65" target="-28X3IPU-qpVwxlm2ra_-96" edge="1">
          <mxGeometry relative="1" as="geometry" />
        </mxCell>
        <mxCell id="-28X3IPU-qpVwxlm2ra_-112" value="x8" style="edgeLabel;html=1;align=center;verticalAlign=middle;resizable=0;points=[];fontFamily=Helvetica;fontSize=11;fontColor=default;labelBackgroundColor=default;" parent="-28X3IPU-qpVwxlm2ra_-111" connectable="0" vertex="1">
          <mxGeometry relative="1" as="geometry">
            <mxPoint x="-2" y="-8" as="offset" />
          </mxGeometry>
        </mxCell>
        <mxCell id="-28X3IPU-qpVwxlm2ra_-6" value="" style="sketch=0;points=[[0.015,0.015,0],[0.985,0.015,0],[0.985,0.985,0],[0.015,0.985,0],[0.25,0,0],[0.5,0,0],[0.75,0,0],[1,0.25,0],[1,0.5,0],[1,0.75,0],[0.75,1,0],[0.5,1,0],[0.25,1,0],[0,0.75,0],[0,0.5,0],[0,0.25,0]];verticalLabelPosition=bottom;html=1;verticalAlign=top;aspect=fixed;align=center;pointerEvents=1;shape=mxgraph.cisco19.rect;prIcon=l2_switch;fillColor=#FAFAFA;strokeColor=#005073;" parent="1" vertex="1">
          <mxGeometry x="490" y="500" width="50" height="50" as="geometry" />
        </mxCell>
        <mxCell id="-28X3IPU-qpVwxlm2ra_-7" value="" style="sketch=0;points=[[0.015,0.015,0],[0.985,0.015,0],[0.985,0.985,0],[0.015,0.985,0],[0.25,0,0],[0.5,0,0],[0.75,0,0],[1,0.25,0],[1,0.5,0],[1,0.75,0],[0.75,1,0],[0.5,1,0],[0.25,1,0],[0,0.75,0],[0,0.5,0],[0,0.25,0]];verticalLabelPosition=bottom;html=1;verticalAlign=top;aspect=fixed;align=center;pointerEvents=1;shape=mxgraph.cisco19.rect;prIcon=l2_switch;fillColor=#FAFAFA;strokeColor=#005073;" parent="1" vertex="1">
          <mxGeometry x="560" y="500" width="50" height="50" as="geometry" />
        </mxCell>
        <mxCell id="-28X3IPU-qpVwxlm2ra_-8" value="" style="sketch=0;points=[[0.015,0.015,0],[0.985,0.015,0],[0.985,0.985,0],[0.015,0.985,0],[0.25,0,0],[0.5,0,0],[0.75,0,0],[1,0.25,0],[1,0.5,0],[1,0.75,0],[0.75,1,0],[0.5,1,0],[0.25,1,0],[0,0.75,0],[0,0.5,0],[0,0.25,0]];verticalLabelPosition=bottom;html=1;verticalAlign=top;aspect=fixed;align=center;pointerEvents=1;shape=mxgraph.cisco19.rect;prIcon=l2_switch;fillColor=#FAFAFA;strokeColor=#005073;" parent="1" vertex="1">
          <mxGeometry x="630" y="500" width="50" height="50" as="geometry" />
        </mxCell>
        <mxCell id="-28X3IPU-qpVwxlm2ra_-9" value="" style="sketch=0;points=[[0.015,0.015,0],[0.985,0.015,0],[0.985,0.985,0],[0.015,0.985,0],[0.25,0,0],[0.5,0,0],[0.75,0,0],[1,0.25,0],[1,0.5,0],[1,0.75,0],[0.75,1,0],[0.5,1,0],[0.25,1,0],[0,0.75,0],[0,0.5,0],[0,0.25,0]];verticalLabelPosition=bottom;html=1;verticalAlign=top;aspect=fixed;align=center;pointerEvents=1;shape=mxgraph.cisco19.rect;prIcon=l2_switch;fillColor=#FAFAFA;strokeColor=#005073;" parent="1" vertex="1">
          <mxGeometry x="710" y="500" width="50" height="50" as="geometry" />
        </mxCell>
        <mxCell id="-28X3IPU-qpVwxlm2ra_-10" value="" style="sketch=0;points=[[0.015,0.015,0],[0.985,0.015,0],[0.985,0.985,0],[0.015,0.985,0],[0.25,0,0],[0.5,0,0],[0.75,0,0],[1,0.25,0],[1,0.5,0],[1,0.75,0],[0.75,1,0],[0.5,1,0],[0.25,1,0],[0,0.75,0],[0,0.5,0],[0,0.25,0]];verticalLabelPosition=bottom;html=1;verticalAlign=top;aspect=fixed;align=center;pointerEvents=1;shape=mxgraph.cisco19.rect;prIcon=l2_switch;fillColor=#FAFAFA;strokeColor=#005073;" parent="1" vertex="1">
          <mxGeometry x="780" y="500" width="50" height="50" as="geometry" />
        </mxCell>
        <mxCell id="-28X3IPU-qpVwxlm2ra_-11" value="" style="sketch=0;points=[[0.015,0.015,0],[0.985,0.015,0],[0.985,0.985,0],[0.015,0.985,0],[0.25,0,0],[0.5,0,0],[0.75,0,0],[1,0.25,0],[1,0.5,0],[1,0.75,0],[0.75,1,0],[0.5,1,0],[0.25,1,0],[0,0.75,0],[0,0.5,0],[0,0.25,0]];verticalLabelPosition=bottom;html=1;verticalAlign=top;aspect=fixed;align=center;pointerEvents=1;shape=mxgraph.cisco19.rect;prIcon=l2_switch;fillColor=#FAFAFA;strokeColor=#005073;" parent="1" vertex="1">
          <mxGeometry x="850" y="500" width="50" height="50" as="geometry" />
        </mxCell>
        <mxCell id="-28X3IPU-qpVwxlm2ra_-12" value="" style="sketch=0;points=[[0.015,0.015,0],[0.985,0.015,0],[0.985,0.985,0],[0.015,0.985,0],[0.25,0,0],[0.5,0,0],[0.75,0,0],[1,0.25,0],[1,0.5,0],[1,0.75,0],[0.75,1,0],[0.5,1,0],[0.25,1,0],[0,0.75,0],[0,0.5,0],[0,0.25,0]];verticalLabelPosition=bottom;html=1;verticalAlign=top;aspect=fixed;align=center;pointerEvents=1;shape=mxgraph.cisco19.rect;prIcon=l2_switch;fillColor=#FAFAFA;strokeColor=#97D077;" parent="1" vertex="1">
          <mxGeometry x="920" y="500" width="50" height="50" as="geometry" />
        </mxCell>
        <mxCell id="4OMlqrMxiYEjtJgDedAr-4" value="" style="sketch=0;points=[[0.015,0.015,0],[0.985,0.015,0],[0.985,0.985,0],[0.015,0.985,0],[0.25,0,0],[0.5,0,0],[0.75,0,0],[1,0.25,0],[1,0.5,0],[1,0.75,0],[0.75,1,0],[0.5,1,0],[0.25,1,0],[0,0.75,0],[0,0.5,0],[0,0.25,0]];verticalLabelPosition=bottom;html=1;verticalAlign=top;aspect=fixed;align=center;pointerEvents=1;shape=mxgraph.cisco19.rect;prIcon=l2_switch;fillColor=#FAFAFA;strokeColor=#005073;" parent="1" vertex="1">
          <mxGeometry x="413.5" y="499.5" width="50" height="50" as="geometry" />
        </mxCell>
        <mxCell id="4OMlqrMxiYEjtJgDedAr-5" style="edgeStyle=none;rounded=0;orthogonalLoop=1;jettySize=auto;html=1;exitX=0.5;exitY=0;exitDx=0;exitDy=0;exitPerimeter=0;entryX=0.5;entryY=1;entryDx=0;entryDy=0;entryPerimeter=0;strokeColor=default;align=center;verticalAlign=middle;fontFamily=Helvetica;fontSize=11;fontColor=default;labelBackgroundColor=default;endArrow=none;endFill=0;" parent="1" source="4OMlqrMxiYEjtJgDedAr-4" target="-28X3IPU-qpVwxlm2ra_-65" edge="1">
          <mxGeometry relative="1" as="geometry" />
        </mxCell>
        <mxCell id="4OMlqrMxiYEjtJgDedAr-6" style="edgeStyle=none;rounded=0;orthogonalLoop=1;jettySize=auto;html=1;exitX=0.5;exitY=0;exitDx=0;exitDy=0;exitPerimeter=0;entryX=0.5;entryY=1;entryDx=0;entryDy=0;entryPerimeter=0;strokeColor=#00FF00;align=center;verticalAlign=middle;fontFamily=Helvetica;fontSize=11;fontColor=default;labelBackgroundColor=default;endArrow=none;endFill=0;" parent="1" source="4OMlqrMxiYEjtJgDedAr-4" target="-28X3IPU-qpVwxlm2ra_-96" edge="1">
          <mxGeometry relative="1" as="geometry" />
        </mxCell>
        <mxCell id="4OMlqrMxiYEjtJgDedAr-8" value="4 Этаж" style="rounded=0;whiteSpace=wrap;html=1;fontFamily=Helvetica;fontSize=11;fontColor=default;labelBackgroundColor=default;" parent="1" vertex="1">
          <mxGeometry x="1670" y="280" width="120" height="60" as="geometry" />
        </mxCell>
        <mxCell id="4OMlqrMxiYEjtJgDedAr-9" style="edgeStyle=none;rounded=0;orthogonalLoop=1;jettySize=auto;html=1;exitX=0.5;exitY=0;exitDx=0;exitDy=0;exitPerimeter=0;strokeColor=default;align=center;verticalAlign=middle;fontFamily=Helvetica;fontSize=11;fontColor=default;labelBackgroundColor=default;endArrow=none;endFill=0;entryX=0.5;entryY=1;entryDx=0;entryDy=0;entryPerimeter=0;" parent="1" source="4OMlqrMxiYEjtJgDedAr-31" target="4OMlqrMxiYEjtJgDedAr-24" edge="1">
          <mxGeometry relative="1" as="geometry">
            <mxPoint x="2020" y="400" as="targetPoint" />
          </mxGeometry>
        </mxCell>
        <mxCell id="4OMlqrMxiYEjtJgDedAr-10" style="edgeStyle=none;rounded=0;orthogonalLoop=1;jettySize=auto;html=1;exitX=0.5;exitY=0;exitDx=0;exitDy=0;exitPerimeter=0;entryX=0.5;entryY=1;entryDx=0;entryDy=0;entryPerimeter=0;strokeColor=default;align=center;verticalAlign=middle;fontFamily=Helvetica;fontSize=11;fontColor=default;labelBackgroundColor=default;endArrow=none;endFill=0;" parent="1" source="4OMlqrMxiYEjtJgDedAr-28" target="4OMlqrMxiYEjtJgDedAr-24" edge="1">
          <mxGeometry relative="1" as="geometry" />
        </mxCell>
        <mxCell id="4OMlqrMxiYEjtJgDedAr-11" style="edgeStyle=none;rounded=0;orthogonalLoop=1;jettySize=auto;html=1;exitX=0.5;exitY=0;exitDx=0;exitDy=0;exitPerimeter=0;entryX=0.5;entryY=1;entryDx=0;entryDy=0;entryPerimeter=0;strokeColor=default;align=center;verticalAlign=middle;fontFamily=Helvetica;fontSize=11;fontColor=default;labelBackgroundColor=default;endArrow=none;endFill=0;" parent="1" source="4OMlqrMxiYEjtJgDedAr-29" target="4OMlqrMxiYEjtJgDedAr-24" edge="1">
          <mxGeometry relative="1" as="geometry" />
        </mxCell>
        <mxCell id="4OMlqrMxiYEjtJgDedAr-12" style="edgeStyle=none;rounded=0;orthogonalLoop=1;jettySize=auto;html=1;exitX=0.5;exitY=0;exitDx=0;exitDy=0;exitPerimeter=0;entryX=0.5;entryY=1;entryDx=0;entryDy=0;entryPerimeter=0;strokeColor=default;align=center;verticalAlign=middle;fontFamily=Helvetica;fontSize=11;fontColor=default;labelBackgroundColor=default;endArrow=none;endFill=0;" parent="1" source="4OMlqrMxiYEjtJgDedAr-30" target="4OMlqrMxiYEjtJgDedAr-24" edge="1">
          <mxGeometry relative="1" as="geometry" />
        </mxCell>
        <mxCell id="4OMlqrMxiYEjtJgDedAr-13" style="edgeStyle=none;rounded=0;orthogonalLoop=1;jettySize=auto;html=1;exitX=0.5;exitY=0;exitDx=0;exitDy=0;exitPerimeter=0;entryX=0.5;entryY=1;entryDx=0;entryDy=0;entryPerimeter=0;strokeColor=default;align=center;verticalAlign=middle;fontFamily=Helvetica;fontSize=11;fontColor=default;labelBackgroundColor=default;endArrow=none;endFill=0;" parent="1" source="4OMlqrMxiYEjtJgDedAr-32" target="4OMlqrMxiYEjtJgDedAr-24" edge="1">
          <mxGeometry relative="1" as="geometry" />
        </mxCell>
        <mxCell id="4OMlqrMxiYEjtJgDedAr-14" style="edgeStyle=none;rounded=0;orthogonalLoop=1;jettySize=auto;html=1;exitX=0.5;exitY=0;exitDx=0;exitDy=0;exitPerimeter=0;entryX=0.5;entryY=1;entryDx=0;entryDy=0;entryPerimeter=0;strokeColor=default;align=center;verticalAlign=middle;fontFamily=Helvetica;fontSize=11;fontColor=default;labelBackgroundColor=default;endArrow=none;endFill=0;" parent="1" source="4OMlqrMxiYEjtJgDedAr-33" target="4OMlqrMxiYEjtJgDedAr-24" edge="1">
          <mxGeometry relative="1" as="geometry" />
        </mxCell>
        <mxCell id="4OMlqrMxiYEjtJgDedAr-15" style="edgeStyle=none;rounded=0;orthogonalLoop=1;jettySize=auto;html=1;exitX=0.5;exitY=0;exitDx=0;exitDy=0;exitPerimeter=0;entryX=0.5;entryY=1;entryDx=0;entryDy=0;entryPerimeter=0;strokeColor=default;align=center;verticalAlign=middle;fontFamily=Helvetica;fontSize=11;fontColor=default;labelBackgroundColor=default;endArrow=none;endFill=0;" parent="1" source="4OMlqrMxiYEjtJgDedAr-34" target="4OMlqrMxiYEjtJgDedAr-24" edge="1">
          <mxGeometry relative="1" as="geometry" />
        </mxCell>
        <mxCell id="4OMlqrMxiYEjtJgDedAr-16" style="edgeStyle=none;rounded=0;orthogonalLoop=1;jettySize=auto;html=1;exitX=0.5;exitY=0;exitDx=0;exitDy=0;exitPerimeter=0;entryX=0.5;entryY=1;entryDx=0;entryDy=0;entryPerimeter=0;strokeColor=#00FF00;align=center;verticalAlign=middle;fontFamily=Helvetica;fontSize=11;fontColor=default;labelBackgroundColor=default;endArrow=none;endFill=0;" parent="1" source="4OMlqrMxiYEjtJgDedAr-28" target="4OMlqrMxiYEjtJgDedAr-25" edge="1">
          <mxGeometry relative="1" as="geometry" />
        </mxCell>
        <mxCell id="4OMlqrMxiYEjtJgDedAr-17" style="edgeStyle=none;rounded=0;orthogonalLoop=1;jettySize=auto;html=1;exitX=0.5;exitY=0;exitDx=0;exitDy=0;exitPerimeter=0;entryX=0.5;entryY=1;entryDx=0;entryDy=0;entryPerimeter=0;strokeColor=#00FF00;align=center;verticalAlign=middle;fontFamily=Helvetica;fontSize=11;fontColor=default;labelBackgroundColor=default;endArrow=none;endFill=0;" parent="1" source="4OMlqrMxiYEjtJgDedAr-32" target="4OMlqrMxiYEjtJgDedAr-25" edge="1">
          <mxGeometry relative="1" as="geometry" />
        </mxCell>
        <mxCell id="4OMlqrMxiYEjtJgDedAr-18" style="edgeStyle=none;rounded=0;orthogonalLoop=1;jettySize=auto;html=1;exitX=0.5;exitY=0;exitDx=0;exitDy=0;exitPerimeter=0;entryX=0.5;entryY=1;entryDx=0;entryDy=0;entryPerimeter=0;strokeColor=#00FF00;align=center;verticalAlign=middle;fontFamily=Helvetica;fontSize=11;fontColor=default;labelBackgroundColor=default;endArrow=none;endFill=0;" parent="1" source="4OMlqrMxiYEjtJgDedAr-33" target="4OMlqrMxiYEjtJgDedAr-25" edge="1">
          <mxGeometry relative="1" as="geometry" />
        </mxCell>
        <mxCell id="4OMlqrMxiYEjtJgDedAr-19" style="edgeStyle=none;rounded=0;orthogonalLoop=1;jettySize=auto;html=1;exitX=0.5;exitY=0;exitDx=0;exitDy=0;exitPerimeter=0;entryX=0.5;entryY=1;entryDx=0;entryDy=0;entryPerimeter=0;strokeColor=#00FF00;align=center;verticalAlign=middle;fontFamily=Helvetica;fontSize=11;fontColor=default;labelBackgroundColor=default;endArrow=none;endFill=0;" parent="1" source="4OMlqrMxiYEjtJgDedAr-34" target="4OMlqrMxiYEjtJgDedAr-25" edge="1">
          <mxGeometry relative="1" as="geometry" />
        </mxCell>
        <mxCell id="4OMlqrMxiYEjtJgDedAr-20" style="edgeStyle=none;rounded=0;orthogonalLoop=1;jettySize=auto;html=1;exitX=0.5;exitY=0;exitDx=0;exitDy=0;exitPerimeter=0;entryX=0.5;entryY=1;entryDx=0;entryDy=0;entryPerimeter=0;strokeColor=#00FF00;align=center;verticalAlign=middle;fontFamily=Helvetica;fontSize=11;fontColor=default;labelBackgroundColor=default;endArrow=none;endFill=0;" parent="1" source="4OMlqrMxiYEjtJgDedAr-29" target="4OMlqrMxiYEjtJgDedAr-25" edge="1">
          <mxGeometry relative="1" as="geometry" />
        </mxCell>
        <mxCell id="4OMlqrMxiYEjtJgDedAr-21" style="edgeStyle=none;rounded=0;orthogonalLoop=1;jettySize=auto;html=1;exitX=0.5;exitY=0;exitDx=0;exitDy=0;exitPerimeter=0;entryX=0.5;entryY=1;entryDx=0;entryDy=0;entryPerimeter=0;strokeColor=#00FF00;align=center;verticalAlign=middle;fontFamily=Helvetica;fontSize=11;fontColor=default;labelBackgroundColor=default;endArrow=none;endFill=0;" parent="1" source="4OMlqrMxiYEjtJgDedAr-30" target="4OMlqrMxiYEjtJgDedAr-25" edge="1">
          <mxGeometry relative="1" as="geometry" />
        </mxCell>
        <mxCell id="4OMlqrMxiYEjtJgDedAr-22" style="edgeStyle=none;rounded=0;orthogonalLoop=1;jettySize=auto;html=1;exitX=0.5;exitY=0;exitDx=0;exitDy=0;exitPerimeter=0;entryX=0.5;entryY=1;entryDx=0;entryDy=0;entryPerimeter=0;strokeColor=#00FF00;align=center;verticalAlign=middle;fontFamily=Helvetica;fontSize=11;fontColor=default;labelBackgroundColor=default;endArrow=none;endFill=0;" parent="1" source="4OMlqrMxiYEjtJgDedAr-31" target="4OMlqrMxiYEjtJgDedAr-25" edge="1">
          <mxGeometry relative="1" as="geometry" />
        </mxCell>
        <mxCell id="4OMlqrMxiYEjtJgDedAr-23" value="" style="group" parent="1" connectable="0" vertex="1">
          <mxGeometry x="1890" y="320" width="180" height="50" as="geometry" />
        </mxCell>
        <mxCell id="4OMlqrMxiYEjtJgDedAr-24" value="" style="sketch=0;points=[[0.015,0.015,0],[0.985,0.015,0],[0.985,0.985,0],[0.015,0.985,0],[0.25,0,0],[0.5,0,0],[0.75,0,0],[1,0.25,0],[1,0.5,0],[1,0.75,0],[0.75,1,0],[0.5,1,0],[0.25,1,0],[0,0.75,0],[0,0.5,0],[0,0.25,0]];verticalLabelPosition=bottom;html=1;verticalAlign=top;aspect=fixed;align=center;pointerEvents=1;shape=mxgraph.cisco19.rect;prIcon=l3_switch;fillColor=#FAFAFA;strokeColor=#005073;" parent="4OMlqrMxiYEjtJgDedAr-23" vertex="1">
          <mxGeometry width="50" height="50" as="geometry" />
        </mxCell>
        <mxCell id="4OMlqrMxiYEjtJgDedAr-25" value="" style="sketch=0;points=[[0.015,0.015,0],[0.985,0.015,0],[0.985,0.985,0],[0.015,0.985,0],[0.25,0,0],[0.5,0,0],[0.75,0,0],[1,0.25,0],[1,0.5,0],[1,0.75,0],[0.75,1,0],[0.5,1,0],[0.25,1,0],[0,0.75,0],[0,0.5,0],[0,0.25,0]];verticalLabelPosition=bottom;html=1;verticalAlign=top;aspect=fixed;align=center;pointerEvents=1;shape=mxgraph.cisco19.rect;prIcon=l3_switch;fillColor=#dae8fc;strokeColor=#6c8ebf;" parent="4OMlqrMxiYEjtJgDedAr-23" vertex="1">
          <mxGeometry x="130" width="50" height="50" as="geometry" />
        </mxCell>
        <mxCell id="4OMlqrMxiYEjtJgDedAr-26" style="edgeStyle=none;rounded=0;orthogonalLoop=1;jettySize=auto;html=1;exitX=1;exitY=0.5;exitDx=0;exitDy=0;exitPerimeter=0;entryX=0;entryY=0.5;entryDx=0;entryDy=0;entryPerimeter=0;strokeColor=default;align=center;verticalAlign=middle;fontFamily=Helvetica;fontSize=11;fontColor=default;labelBackgroundColor=default;endArrow=none;endFill=0;" parent="4OMlqrMxiYEjtJgDedAr-23" source="4OMlqrMxiYEjtJgDedAr-24" target="4OMlqrMxiYEjtJgDedAr-25" edge="1">
          <mxGeometry relative="1" as="geometry" />
        </mxCell>
        <mxCell id="4OMlqrMxiYEjtJgDedAr-27" value="x8" style="edgeLabel;html=1;align=center;verticalAlign=middle;resizable=0;points=[];fontFamily=Helvetica;fontSize=11;fontColor=default;labelBackgroundColor=default;" parent="4OMlqrMxiYEjtJgDedAr-26" connectable="0" vertex="1">
          <mxGeometry relative="1" as="geometry">
            <mxPoint x="-2" y="-8" as="offset" />
          </mxGeometry>
        </mxCell>
        <mxCell id="4OMlqrMxiYEjtJgDedAr-28" value="" style="sketch=0;points=[[0.015,0.015,0],[0.985,0.015,0],[0.985,0.985,0],[0.015,0.985,0],[0.25,0,0],[0.5,0,0],[0.75,0,0],[1,0.25,0],[1,0.5,0],[1,0.75,0],[0.75,1,0],[0.5,1,0],[0.25,1,0],[0,0.75,0],[0,0.5,0],[0,0.25,0]];verticalLabelPosition=bottom;html=1;verticalAlign=top;aspect=fixed;align=center;pointerEvents=1;shape=mxgraph.cisco19.rect;prIcon=l2_switch;fillColor=#FAFAFA;strokeColor=#005073;" parent="1" vertex="1">
          <mxGeometry x="1760" y="500" width="50" height="50" as="geometry" />
        </mxCell>
        <mxCell id="4OMlqrMxiYEjtJgDedAr-29" value="" style="sketch=0;points=[[0.015,0.015,0],[0.985,0.015,0],[0.985,0.985,0],[0.015,0.985,0],[0.25,0,0],[0.5,0,0],[0.75,0,0],[1,0.25,0],[1,0.5,0],[1,0.75,0],[0.75,1,0],[0.5,1,0],[0.25,1,0],[0,0.75,0],[0,0.5,0],[0,0.25,0]];verticalLabelPosition=bottom;html=1;verticalAlign=top;aspect=fixed;align=center;pointerEvents=1;shape=mxgraph.cisco19.rect;prIcon=l2_switch;fillColor=#FAFAFA;strokeColor=#005073;" parent="1" vertex="1">
          <mxGeometry x="1830" y="500" width="50" height="50" as="geometry" />
        </mxCell>
        <mxCell id="4OMlqrMxiYEjtJgDedAr-30" value="" style="sketch=0;points=[[0.015,0.015,0],[0.985,0.015,0],[0.985,0.985,0],[0.015,0.985,0],[0.25,0,0],[0.5,0,0],[0.75,0,0],[1,0.25,0],[1,0.5,0],[1,0.75,0],[0.75,1,0],[0.5,1,0],[0.25,1,0],[0,0.75,0],[0,0.5,0],[0,0.25,0]];verticalLabelPosition=bottom;html=1;verticalAlign=top;aspect=fixed;align=center;pointerEvents=1;shape=mxgraph.cisco19.rect;prIcon=l2_switch;fillColor=#FAFAFA;strokeColor=#005073;" parent="1" vertex="1">
          <mxGeometry x="1900" y="500" width="50" height="50" as="geometry" />
        </mxCell>
        <mxCell id="4OMlqrMxiYEjtJgDedAr-31" value="" style="sketch=0;points=[[0.015,0.015,0],[0.985,0.015,0],[0.985,0.985,0],[0.015,0.985,0],[0.25,0,0],[0.5,0,0],[0.75,0,0],[1,0.25,0],[1,0.5,0],[1,0.75,0],[0.75,1,0],[0.5,1,0],[0.25,1,0],[0,0.75,0],[0,0.5,0],[0,0.25,0]];verticalLabelPosition=bottom;html=1;verticalAlign=top;aspect=fixed;align=center;pointerEvents=1;shape=mxgraph.cisco19.rect;prIcon=l2_switch;fillColor=#FAFAFA;strokeColor=#005073;" parent="1" vertex="1">
          <mxGeometry x="1980" y="500" width="50" height="50" as="geometry" />
        </mxCell>
        <mxCell id="4OMlqrMxiYEjtJgDedAr-32" value="" style="sketch=0;points=[[0.015,0.015,0],[0.985,0.015,0],[0.985,0.985,0],[0.015,0.985,0],[0.25,0,0],[0.5,0,0],[0.75,0,0],[1,0.25,0],[1,0.5,0],[1,0.75,0],[0.75,1,0],[0.5,1,0],[0.25,1,0],[0,0.75,0],[0,0.5,0],[0,0.25,0]];verticalLabelPosition=bottom;html=1;verticalAlign=top;aspect=fixed;align=center;pointerEvents=1;shape=mxgraph.cisco19.rect;prIcon=l2_switch;fillColor=#FAFAFA;strokeColor=#005073;" parent="1" vertex="1">
          <mxGeometry x="2050" y="500" width="50" height="50" as="geometry" />
        </mxCell>
        <mxCell id="4OMlqrMxiYEjtJgDedAr-33" value="" style="sketch=0;points=[[0.015,0.015,0],[0.985,0.015,0],[0.985,0.985,0],[0.015,0.985,0],[0.25,0,0],[0.5,0,0],[0.75,0,0],[1,0.25,0],[1,0.5,0],[1,0.75,0],[0.75,1,0],[0.5,1,0],[0.25,1,0],[0,0.75,0],[0,0.5,0],[0,0.25,0]];verticalLabelPosition=bottom;html=1;verticalAlign=top;aspect=fixed;align=center;pointerEvents=1;shape=mxgraph.cisco19.rect;prIcon=l2_switch;fillColor=#FAFAFA;strokeColor=#005073;" parent="1" vertex="1">
          <mxGeometry x="2120" y="500" width="50" height="50" as="geometry" />
        </mxCell>
        <mxCell id="4OMlqrMxiYEjtJgDedAr-34" value="" style="sketch=0;points=[[0.015,0.015,0],[0.985,0.015,0],[0.985,0.985,0],[0.015,0.985,0],[0.25,0,0],[0.5,0,0],[0.75,0,0],[1,0.25,0],[1,0.5,0],[1,0.75,0],[0.75,1,0],[0.5,1,0],[0.25,1,0],[0,0.75,0],[0,0.5,0],[0,0.25,0]];verticalLabelPosition=bottom;html=1;verticalAlign=top;aspect=fixed;align=center;pointerEvents=1;shape=mxgraph.cisco19.rect;prIcon=l2_switch;fillColor=#FAFAFA;strokeColor=#97D077;" parent="1" vertex="1">
          <mxGeometry x="2190" y="500" width="50" height="50" as="geometry" />
        </mxCell>
        <mxCell id="4OMlqrMxiYEjtJgDedAr-35" value="" style="sketch=0;points=[[0.015,0.015,0],[0.985,0.015,0],[0.985,0.985,0],[0.015,0.985,0],[0.25,0,0],[0.5,0,0],[0.75,0,0],[1,0.25,0],[1,0.5,0],[1,0.75,0],[0.75,1,0],[0.5,1,0],[0.25,1,0],[0,0.75,0],[0,0.5,0],[0,0.25,0]];verticalLabelPosition=bottom;html=1;verticalAlign=top;aspect=fixed;align=center;pointerEvents=1;shape=mxgraph.cisco19.rect;prIcon=l2_switch;fillColor=#FAFAFA;strokeColor=#005073;" parent="1" vertex="1">
          <mxGeometry x="1683.5" y="499.5" width="50" height="50" as="geometry" />
        </mxCell>
        <mxCell id="4OMlqrMxiYEjtJgDedAr-36" style="edgeStyle=none;rounded=0;orthogonalLoop=1;jettySize=auto;html=1;exitX=0.5;exitY=0;exitDx=0;exitDy=0;exitPerimeter=0;entryX=0.5;entryY=1;entryDx=0;entryDy=0;entryPerimeter=0;strokeColor=default;align=center;verticalAlign=middle;fontFamily=Helvetica;fontSize=11;fontColor=default;labelBackgroundColor=default;endArrow=none;endFill=0;" parent="1" source="4OMlqrMxiYEjtJgDedAr-35" target="4OMlqrMxiYEjtJgDedAr-24" edge="1">
          <mxGeometry relative="1" as="geometry" />
        </mxCell>
        <mxCell id="4OMlqrMxiYEjtJgDedAr-37" style="edgeStyle=none;rounded=0;orthogonalLoop=1;jettySize=auto;html=1;exitX=0.5;exitY=0;exitDx=0;exitDy=0;exitPerimeter=0;entryX=0.5;entryY=1;entryDx=0;entryDy=0;entryPerimeter=0;strokeColor=#00FF00;align=center;verticalAlign=middle;fontFamily=Helvetica;fontSize=11;fontColor=default;labelBackgroundColor=default;endArrow=none;endFill=0;" parent="1" source="4OMlqrMxiYEjtJgDedAr-35" target="4OMlqrMxiYEjtJgDedAr-25" edge="1">
          <mxGeometry relative="1" as="geometry" />
        </mxCell>
        <mxCell id="4OMlqrMxiYEjtJgDedAr-39" value="3 Этаж" style="rounded=0;whiteSpace=wrap;html=1;fontFamily=Helvetica;fontSize=11;fontColor=default;labelBackgroundColor=default;" parent="1" vertex="1">
          <mxGeometry x="980" y="280" width="120" height="60" as="geometry" />
        </mxCell>
        <mxCell id="4OMlqrMxiYEjtJgDedAr-40" style="edgeStyle=none;rounded=0;orthogonalLoop=1;jettySize=auto;html=1;exitX=0.5;exitY=0;exitDx=0;exitDy=0;exitPerimeter=0;strokeColor=default;align=center;verticalAlign=middle;fontFamily=Helvetica;fontSize=11;fontColor=default;labelBackgroundColor=default;endArrow=none;endFill=0;entryX=0.5;entryY=1;entryDx=0;entryDy=0;entryPerimeter=0;" parent="1" source="4OMlqrMxiYEjtJgDedAr-62" target="4OMlqrMxiYEjtJgDedAr-55" edge="1">
          <mxGeometry relative="1" as="geometry">
            <mxPoint x="1390" y="400" as="targetPoint" />
          </mxGeometry>
        </mxCell>
        <mxCell id="4OMlqrMxiYEjtJgDedAr-41" style="edgeStyle=none;rounded=0;orthogonalLoop=1;jettySize=auto;html=1;exitX=0.5;exitY=0;exitDx=0;exitDy=0;exitPerimeter=0;entryX=0.5;entryY=1;entryDx=0;entryDy=0;entryPerimeter=0;strokeColor=default;align=center;verticalAlign=middle;fontFamily=Helvetica;fontSize=11;fontColor=default;labelBackgroundColor=default;endArrow=none;endFill=0;" parent="1" source="4OMlqrMxiYEjtJgDedAr-59" target="4OMlqrMxiYEjtJgDedAr-55" edge="1">
          <mxGeometry relative="1" as="geometry" />
        </mxCell>
        <mxCell id="4OMlqrMxiYEjtJgDedAr-42" style="edgeStyle=none;rounded=0;orthogonalLoop=1;jettySize=auto;html=1;exitX=0.5;exitY=0;exitDx=0;exitDy=0;exitPerimeter=0;entryX=0.5;entryY=1;entryDx=0;entryDy=0;entryPerimeter=0;strokeColor=default;align=center;verticalAlign=middle;fontFamily=Helvetica;fontSize=11;fontColor=default;labelBackgroundColor=default;endArrow=none;endFill=0;" parent="1" source="4OMlqrMxiYEjtJgDedAr-60" target="4OMlqrMxiYEjtJgDedAr-55" edge="1">
          <mxGeometry relative="1" as="geometry" />
        </mxCell>
        <mxCell id="4OMlqrMxiYEjtJgDedAr-43" style="edgeStyle=none;rounded=0;orthogonalLoop=1;jettySize=auto;html=1;exitX=0.5;exitY=0;exitDx=0;exitDy=0;exitPerimeter=0;entryX=0.5;entryY=1;entryDx=0;entryDy=0;entryPerimeter=0;strokeColor=default;align=center;verticalAlign=middle;fontFamily=Helvetica;fontSize=11;fontColor=default;labelBackgroundColor=default;endArrow=none;endFill=0;" parent="1" source="4OMlqrMxiYEjtJgDedAr-61" target="4OMlqrMxiYEjtJgDedAr-55" edge="1">
          <mxGeometry relative="1" as="geometry" />
        </mxCell>
        <mxCell id="4OMlqrMxiYEjtJgDedAr-44" style="edgeStyle=none;rounded=0;orthogonalLoop=1;jettySize=auto;html=1;exitX=0.5;exitY=0;exitDx=0;exitDy=0;exitPerimeter=0;entryX=0.5;entryY=1;entryDx=0;entryDy=0;entryPerimeter=0;strokeColor=default;align=center;verticalAlign=middle;fontFamily=Helvetica;fontSize=11;fontColor=default;labelBackgroundColor=default;endArrow=none;endFill=0;" parent="1" source="4OMlqrMxiYEjtJgDedAr-63" target="4OMlqrMxiYEjtJgDedAr-55" edge="1">
          <mxGeometry relative="1" as="geometry" />
        </mxCell>
        <mxCell id="4OMlqrMxiYEjtJgDedAr-45" style="edgeStyle=none;rounded=0;orthogonalLoop=1;jettySize=auto;html=1;exitX=0.5;exitY=0;exitDx=0;exitDy=0;exitPerimeter=0;entryX=0.5;entryY=1;entryDx=0;entryDy=0;entryPerimeter=0;strokeColor=default;align=center;verticalAlign=middle;fontFamily=Helvetica;fontSize=11;fontColor=default;labelBackgroundColor=default;endArrow=none;endFill=0;" parent="1" source="4OMlqrMxiYEjtJgDedAr-64" target="4OMlqrMxiYEjtJgDedAr-55" edge="1">
          <mxGeometry relative="1" as="geometry" />
        </mxCell>
        <mxCell id="4OMlqrMxiYEjtJgDedAr-46" style="edgeStyle=none;rounded=0;orthogonalLoop=1;jettySize=auto;html=1;exitX=0.5;exitY=0;exitDx=0;exitDy=0;exitPerimeter=0;entryX=0.5;entryY=1;entryDx=0;entryDy=0;entryPerimeter=0;strokeColor=default;align=center;verticalAlign=middle;fontFamily=Helvetica;fontSize=11;fontColor=default;labelBackgroundColor=default;endArrow=none;endFill=0;" parent="1" source="4OMlqrMxiYEjtJgDedAr-65" target="4OMlqrMxiYEjtJgDedAr-55" edge="1">
          <mxGeometry relative="1" as="geometry" />
        </mxCell>
        <mxCell id="4OMlqrMxiYEjtJgDedAr-47" style="edgeStyle=none;rounded=0;orthogonalLoop=1;jettySize=auto;html=1;exitX=0.5;exitY=0;exitDx=0;exitDy=0;exitPerimeter=0;entryX=0.5;entryY=1;entryDx=0;entryDy=0;entryPerimeter=0;strokeColor=#00FF00;align=center;verticalAlign=middle;fontFamily=Helvetica;fontSize=11;fontColor=default;labelBackgroundColor=default;endArrow=none;endFill=0;" parent="1" source="4OMlqrMxiYEjtJgDedAr-59" target="4OMlqrMxiYEjtJgDedAr-56" edge="1">
          <mxGeometry relative="1" as="geometry" />
        </mxCell>
        <mxCell id="4OMlqrMxiYEjtJgDedAr-48" style="edgeStyle=none;rounded=0;orthogonalLoop=1;jettySize=auto;html=1;exitX=0.5;exitY=0;exitDx=0;exitDy=0;exitPerimeter=0;entryX=0.5;entryY=1;entryDx=0;entryDy=0;entryPerimeter=0;strokeColor=#00FF00;align=center;verticalAlign=middle;fontFamily=Helvetica;fontSize=11;fontColor=default;labelBackgroundColor=default;endArrow=none;endFill=0;" parent="1" source="4OMlqrMxiYEjtJgDedAr-63" target="4OMlqrMxiYEjtJgDedAr-56" edge="1">
          <mxGeometry relative="1" as="geometry" />
        </mxCell>
        <mxCell id="4OMlqrMxiYEjtJgDedAr-49" style="edgeStyle=none;rounded=0;orthogonalLoop=1;jettySize=auto;html=1;exitX=0.5;exitY=0;exitDx=0;exitDy=0;exitPerimeter=0;entryX=0.5;entryY=1;entryDx=0;entryDy=0;entryPerimeter=0;strokeColor=#00FF00;align=center;verticalAlign=middle;fontFamily=Helvetica;fontSize=11;fontColor=default;labelBackgroundColor=default;endArrow=none;endFill=0;" parent="1" source="4OMlqrMxiYEjtJgDedAr-64" target="4OMlqrMxiYEjtJgDedAr-56" edge="1">
          <mxGeometry relative="1" as="geometry" />
        </mxCell>
        <mxCell id="4OMlqrMxiYEjtJgDedAr-50" style="edgeStyle=none;rounded=0;orthogonalLoop=1;jettySize=auto;html=1;exitX=0.5;exitY=0;exitDx=0;exitDy=0;exitPerimeter=0;entryX=0.5;entryY=1;entryDx=0;entryDy=0;entryPerimeter=0;strokeColor=#00FF00;align=center;verticalAlign=middle;fontFamily=Helvetica;fontSize=11;fontColor=default;labelBackgroundColor=default;endArrow=none;endFill=0;" parent="1" source="4OMlqrMxiYEjtJgDedAr-65" target="4OMlqrMxiYEjtJgDedAr-56" edge="1">
          <mxGeometry relative="1" as="geometry" />
        </mxCell>
        <mxCell id="4OMlqrMxiYEjtJgDedAr-51" style="edgeStyle=none;rounded=0;orthogonalLoop=1;jettySize=auto;html=1;exitX=0.5;exitY=0;exitDx=0;exitDy=0;exitPerimeter=0;entryX=0.5;entryY=1;entryDx=0;entryDy=0;entryPerimeter=0;strokeColor=#00FF00;align=center;verticalAlign=middle;fontFamily=Helvetica;fontSize=11;fontColor=default;labelBackgroundColor=default;endArrow=none;endFill=0;" parent="1" source="4OMlqrMxiYEjtJgDedAr-60" target="4OMlqrMxiYEjtJgDedAr-56" edge="1">
          <mxGeometry relative="1" as="geometry" />
        </mxCell>
        <mxCell id="4OMlqrMxiYEjtJgDedAr-52" style="edgeStyle=none;rounded=0;orthogonalLoop=1;jettySize=auto;html=1;exitX=0.5;exitY=0;exitDx=0;exitDy=0;exitPerimeter=0;entryX=0.5;entryY=1;entryDx=0;entryDy=0;entryPerimeter=0;strokeColor=#00FF00;align=center;verticalAlign=middle;fontFamily=Helvetica;fontSize=11;fontColor=default;labelBackgroundColor=default;endArrow=none;endFill=0;" parent="1" source="4OMlqrMxiYEjtJgDedAr-61" target="4OMlqrMxiYEjtJgDedAr-56" edge="1">
          <mxGeometry relative="1" as="geometry" />
        </mxCell>
        <mxCell id="4OMlqrMxiYEjtJgDedAr-53" style="edgeStyle=none;rounded=0;orthogonalLoop=1;jettySize=auto;html=1;exitX=0.5;exitY=0;exitDx=0;exitDy=0;exitPerimeter=0;entryX=0.5;entryY=1;entryDx=0;entryDy=0;entryPerimeter=0;strokeColor=#00FF00;align=center;verticalAlign=middle;fontFamily=Helvetica;fontSize=11;fontColor=default;labelBackgroundColor=default;endArrow=none;endFill=0;" parent="1" source="4OMlqrMxiYEjtJgDedAr-62" target="4OMlqrMxiYEjtJgDedAr-56" edge="1">
          <mxGeometry relative="1" as="geometry" />
        </mxCell>
        <mxCell id="4OMlqrMxiYEjtJgDedAr-54" value="" style="group" parent="1" connectable="0" vertex="1">
          <mxGeometry x="1260" y="320" width="180" height="50" as="geometry" />
        </mxCell>
        <mxCell id="4OMlqrMxiYEjtJgDedAr-55" value="" style="sketch=0;points=[[0.015,0.015,0],[0.985,0.015,0],[0.985,0.985,0],[0.015,0.985,0],[0.25,0,0],[0.5,0,0],[0.75,0,0],[1,0.25,0],[1,0.5,0],[1,0.75,0],[0.75,1,0],[0.5,1,0],[0.25,1,0],[0,0.75,0],[0,0.5,0],[0,0.25,0]];verticalLabelPosition=bottom;html=1;verticalAlign=top;aspect=fixed;align=center;pointerEvents=1;shape=mxgraph.cisco19.rect;prIcon=l3_switch;fillColor=#FAFAFA;strokeColor=#005073;" parent="4OMlqrMxiYEjtJgDedAr-54" vertex="1">
          <mxGeometry width="50" height="50" as="geometry" />
        </mxCell>
        <mxCell id="4OMlqrMxiYEjtJgDedAr-56" value="" style="sketch=0;points=[[0.015,0.015,0],[0.985,0.015,0],[0.985,0.985,0],[0.015,0.985,0],[0.25,0,0],[0.5,0,0],[0.75,0,0],[1,0.25,0],[1,0.5,0],[1,0.75,0],[0.75,1,0],[0.5,1,0],[0.25,1,0],[0,0.75,0],[0,0.5,0],[0,0.25,0]];verticalLabelPosition=bottom;html=1;verticalAlign=top;aspect=fixed;align=center;pointerEvents=1;shape=mxgraph.cisco19.rect;prIcon=l3_switch;fillColor=#dae8fc;strokeColor=#6c8ebf;" parent="4OMlqrMxiYEjtJgDedAr-54" vertex="1">
          <mxGeometry x="130" width="50" height="50" as="geometry" />
        </mxCell>
        <mxCell id="4OMlqrMxiYEjtJgDedAr-57" style="edgeStyle=none;rounded=0;orthogonalLoop=1;jettySize=auto;html=1;exitX=1;exitY=0.5;exitDx=0;exitDy=0;exitPerimeter=0;entryX=0;entryY=0.5;entryDx=0;entryDy=0;entryPerimeter=0;strokeColor=default;align=center;verticalAlign=middle;fontFamily=Helvetica;fontSize=11;fontColor=default;labelBackgroundColor=default;endArrow=none;endFill=0;" parent="4OMlqrMxiYEjtJgDedAr-54" source="4OMlqrMxiYEjtJgDedAr-55" target="4OMlqrMxiYEjtJgDedAr-56" edge="1">
          <mxGeometry relative="1" as="geometry" />
        </mxCell>
        <mxCell id="4OMlqrMxiYEjtJgDedAr-58" value="x8" style="edgeLabel;html=1;align=center;verticalAlign=middle;resizable=0;points=[];fontFamily=Helvetica;fontSize=11;fontColor=default;labelBackgroundColor=default;" parent="4OMlqrMxiYEjtJgDedAr-57" connectable="0" vertex="1">
          <mxGeometry relative="1" as="geometry">
            <mxPoint x="-2" y="-8" as="offset" />
          </mxGeometry>
        </mxCell>
        <mxCell id="4OMlqrMxiYEjtJgDedAr-59" value="" style="sketch=0;points=[[0.015,0.015,0],[0.985,0.015,0],[0.985,0.985,0],[0.015,0.985,0],[0.25,0,0],[0.5,0,0],[0.75,0,0],[1,0.25,0],[1,0.5,0],[1,0.75,0],[0.75,1,0],[0.5,1,0],[0.25,1,0],[0,0.75,0],[0,0.5,0],[0,0.25,0]];verticalLabelPosition=bottom;html=1;verticalAlign=top;aspect=fixed;align=center;pointerEvents=1;shape=mxgraph.cisco19.rect;prIcon=l2_switch;fillColor=#FAFAFA;strokeColor=#005073;" parent="1" vertex="1">
          <mxGeometry x="1130" y="500" width="50" height="50" as="geometry" />
        </mxCell>
        <mxCell id="4OMlqrMxiYEjtJgDedAr-60" value="" style="sketch=0;points=[[0.015,0.015,0],[0.985,0.015,0],[0.985,0.985,0],[0.015,0.985,0],[0.25,0,0],[0.5,0,0],[0.75,0,0],[1,0.25,0],[1,0.5,0],[1,0.75,0],[0.75,1,0],[0.5,1,0],[0.25,1,0],[0,0.75,0],[0,0.5,0],[0,0.25,0]];verticalLabelPosition=bottom;html=1;verticalAlign=top;aspect=fixed;align=center;pointerEvents=1;shape=mxgraph.cisco19.rect;prIcon=l2_switch;fillColor=#FAFAFA;strokeColor=#005073;" parent="1" vertex="1">
          <mxGeometry x="1200" y="500" width="50" height="50" as="geometry" />
        </mxCell>
        <mxCell id="4OMlqrMxiYEjtJgDedAr-61" value="" style="sketch=0;points=[[0.015,0.015,0],[0.985,0.015,0],[0.985,0.985,0],[0.015,0.985,0],[0.25,0,0],[0.5,0,0],[0.75,0,0],[1,0.25,0],[1,0.5,0],[1,0.75,0],[0.75,1,0],[0.5,1,0],[0.25,1,0],[0,0.75,0],[0,0.5,0],[0,0.25,0]];verticalLabelPosition=bottom;html=1;verticalAlign=top;aspect=fixed;align=center;pointerEvents=1;shape=mxgraph.cisco19.rect;prIcon=l2_switch;fillColor=#FAFAFA;strokeColor=#005073;" parent="1" vertex="1">
          <mxGeometry x="1270" y="500" width="50" height="50" as="geometry" />
        </mxCell>
        <mxCell id="4OMlqrMxiYEjtJgDedAr-62" value="" style="sketch=0;points=[[0.015,0.015,0],[0.985,0.015,0],[0.985,0.985,0],[0.015,0.985,0],[0.25,0,0],[0.5,0,0],[0.75,0,0],[1,0.25,0],[1,0.5,0],[1,0.75,0],[0.75,1,0],[0.5,1,0],[0.25,1,0],[0,0.75,0],[0,0.5,0],[0,0.25,0]];verticalLabelPosition=bottom;html=1;verticalAlign=top;aspect=fixed;align=center;pointerEvents=1;shape=mxgraph.cisco19.rect;prIcon=l2_switch;fillColor=#FAFAFA;strokeColor=#005073;" parent="1" vertex="1">
          <mxGeometry x="1350" y="500" width="50" height="50" as="geometry" />
        </mxCell>
        <mxCell id="4OMlqrMxiYEjtJgDedAr-63" value="" style="sketch=0;points=[[0.015,0.015,0],[0.985,0.015,0],[0.985,0.985,0],[0.015,0.985,0],[0.25,0,0],[0.5,0,0],[0.75,0,0],[1,0.25,0],[1,0.5,0],[1,0.75,0],[0.75,1,0],[0.5,1,0],[0.25,1,0],[0,0.75,0],[0,0.5,0],[0,0.25,0]];verticalLabelPosition=bottom;html=1;verticalAlign=top;aspect=fixed;align=center;pointerEvents=1;shape=mxgraph.cisco19.rect;prIcon=l2_switch;fillColor=#FAFAFA;strokeColor=#005073;" parent="1" vertex="1">
          <mxGeometry x="1420" y="500" width="50" height="50" as="geometry" />
        </mxCell>
        <mxCell id="4OMlqrMxiYEjtJgDedAr-64" value="" style="sketch=0;points=[[0.015,0.015,0],[0.985,0.015,0],[0.985,0.985,0],[0.015,0.985,0],[0.25,0,0],[0.5,0,0],[0.75,0,0],[1,0.25,0],[1,0.5,0],[1,0.75,0],[0.75,1,0],[0.5,1,0],[0.25,1,0],[0,0.75,0],[0,0.5,0],[0,0.25,0]];verticalLabelPosition=bottom;html=1;verticalAlign=top;aspect=fixed;align=center;pointerEvents=1;shape=mxgraph.cisco19.rect;prIcon=l2_switch;fillColor=#FAFAFA;strokeColor=#005073;" parent="1" vertex="1">
          <mxGeometry x="1490" y="500" width="50" height="50" as="geometry" />
        </mxCell>
        <mxCell id="4OMlqrMxiYEjtJgDedAr-65" value="" style="sketch=0;points=[[0.015,0.015,0],[0.985,0.015,0],[0.985,0.985,0],[0.015,0.985,0],[0.25,0,0],[0.5,0,0],[0.75,0,0],[1,0.25,0],[1,0.5,0],[1,0.75,0],[0.75,1,0],[0.5,1,0],[0.25,1,0],[0,0.75,0],[0,0.5,0],[0,0.25,0]];verticalLabelPosition=bottom;html=1;verticalAlign=top;aspect=fixed;align=center;pointerEvents=1;shape=mxgraph.cisco19.rect;prIcon=l2_switch;fillColor=#FAFAFA;strokeColor=#97D077;" parent="1" vertex="1">
          <mxGeometry x="1560" y="500" width="50" height="50" as="geometry" />
        </mxCell>
        <mxCell id="4OMlqrMxiYEjtJgDedAr-66" value="" style="sketch=0;points=[[0.015,0.015,0],[0.985,0.015,0],[0.985,0.985,0],[0.015,0.985,0],[0.25,0,0],[0.5,0,0],[0.75,0,0],[1,0.25,0],[1,0.5,0],[1,0.75,0],[0.75,1,0],[0.5,1,0],[0.25,1,0],[0,0.75,0],[0,0.5,0],[0,0.25,0]];verticalLabelPosition=bottom;html=1;verticalAlign=top;aspect=fixed;align=center;pointerEvents=1;shape=mxgraph.cisco19.rect;prIcon=l2_switch;fillColor=#FAFAFA;strokeColor=#005073;" parent="1" vertex="1">
          <mxGeometry x="1053.5" y="499.5" width="50" height="50" as="geometry" />
        </mxCell>
        <mxCell id="4OMlqrMxiYEjtJgDedAr-67" style="edgeStyle=none;rounded=0;orthogonalLoop=1;jettySize=auto;html=1;exitX=0.5;exitY=0;exitDx=0;exitDy=0;exitPerimeter=0;entryX=0.5;entryY=1;entryDx=0;entryDy=0;entryPerimeter=0;strokeColor=default;align=center;verticalAlign=middle;fontFamily=Helvetica;fontSize=11;fontColor=default;labelBackgroundColor=default;endArrow=none;endFill=0;" parent="1" source="4OMlqrMxiYEjtJgDedAr-66" target="4OMlqrMxiYEjtJgDedAr-55" edge="1">
          <mxGeometry relative="1" as="geometry" />
        </mxCell>
        <mxCell id="4OMlqrMxiYEjtJgDedAr-68" style="edgeStyle=none;rounded=0;orthogonalLoop=1;jettySize=auto;html=1;exitX=0.5;exitY=0;exitDx=0;exitDy=0;exitPerimeter=0;entryX=0.5;entryY=1;entryDx=0;entryDy=0;entryPerimeter=0;strokeColor=#00FF00;align=center;verticalAlign=middle;fontFamily=Helvetica;fontSize=11;fontColor=default;labelBackgroundColor=default;endArrow=none;endFill=0;" parent="1" source="4OMlqrMxiYEjtJgDedAr-66" target="4OMlqrMxiYEjtJgDedAr-56" edge="1">
          <mxGeometry relative="1" as="geometry" />
        </mxCell>
        <mxCell id="4OMlqrMxiYEjtJgDedAr-70" value="" style="sketch=0;points=[[0.015,0.015,0],[0.985,0.015,0],[0.985,0.985,0],[0.015,0.985,0],[0.25,0,0],[0.5,0,0],[0.75,0,0],[1,0.25,0],[1,0.5,0],[1,0.75,0],[0.75,1,0],[0.5,1,0],[0.25,1,0],[0,0.75,0],[0,0.5,0],[0,0.25,0]];verticalLabelPosition=bottom;html=1;verticalAlign=top;aspect=fixed;align=center;pointerEvents=1;shape=mxgraph.cisco19.rect;prIcon=l2_switch;fillColor=#FAFAFA;strokeColor=#97D077;" parent="1" vertex="1">
          <mxGeometry x="2540" y="499" width="50" height="50" as="geometry" />
        </mxCell>
        <mxCell id="4OMlqrMxiYEjtJgDedAr-71" style="edgeStyle=none;rounded=0;orthogonalLoop=1;jettySize=auto;html=1;exitX=0.5;exitY=0;exitDx=0;exitDy=0;exitPerimeter=0;entryX=0.5;entryY=1;entryDx=0;entryDy=0;entryPerimeter=0;strokeColor=default;align=center;verticalAlign=middle;fontFamily=Helvetica;fontSize=11;fontColor=default;labelBackgroundColor=default;endArrow=none;endFill=0;" parent="1" source="4OMlqrMxiYEjtJgDedAr-70" target="-28X3IPU-qpVwxlm2ra_-67" edge="1">
          <mxGeometry relative="1" as="geometry" />
        </mxCell>
        <mxCell id="4OMlqrMxiYEjtJgDedAr-72" style="edgeStyle=none;rounded=0;orthogonalLoop=1;jettySize=auto;html=1;exitX=0.5;exitY=0;exitDx=0;exitDy=0;exitPerimeter=0;entryX=0.5;entryY=1;entryDx=0;entryDy=0;entryPerimeter=0;strokeColor=#00FF00;align=center;verticalAlign=middle;fontFamily=Helvetica;fontSize=11;fontColor=default;labelBackgroundColor=default;endArrow=none;endFill=0;" parent="1" source="4OMlqrMxiYEjtJgDedAr-70" target="5gdxTV0TSt_yze_bJtej-2" edge="1">
          <mxGeometry relative="1" as="geometry" />
        </mxCell>
        <mxCell id="23PltFtee5-7gZN0qqk8-2" value="" style="sketch=0;points=[[0.015,0.015,0],[0.985,0.015,0],[0.985,0.985,0],[0.015,0.985,0],[0.25,0,0],[0.5,0,0],[0.75,0,0],[1,0.25,0],[1,0.5,0],[1,0.75,0],[0.75,1,0],[0.5,1,0],[0.25,1,0],[0,0.75,0],[0,0.5,0],[0,0.25,0]];verticalLabelPosition=bottom;html=1;verticalAlign=top;aspect=fixed;align=center;pointerEvents=1;shape=mxgraph.cisco19.rect;prIcon=l3_switch;fillColor=#FAFAFA;strokeColor=#005073;" parent="1" vertex="1">
          <mxGeometry x="685" y="40" width="50" height="50" as="geometry" />
        </mxCell>
        <mxCell id="23PltFtee5-7gZN0qqk8-6" style="rounded=0;orthogonalLoop=1;jettySize=auto;html=1;exitX=0.5;exitY=0;exitDx=0;exitDy=0;exitPerimeter=0;entryX=0.5;entryY=1;entryDx=0;entryDy=0;entryPerimeter=0;endArrow=none;endFill=0;strokeColor=#990000;" parent="1" source="-28X3IPU-qpVwxlm2ra_-63" target="23PltFtee5-7gZN0qqk8-2" edge="1">
          <mxGeometry relative="1" as="geometry" />
        </mxCell>
        <mxCell id="OuvUhGnFTSXVDVeN6YIj-6" style="edgeStyle=none;rounded=0;orthogonalLoop=1;jettySize=auto;html=1;exitX=0.5;exitY=0;exitDx=0;exitDy=0;exitPerimeter=0;entryX=0.5;entryY=1;entryDx=0;entryDy=0;entryPerimeter=0;strokeColor=#990000;align=center;verticalAlign=middle;fontFamily=Helvetica;fontSize=11;fontColor=default;labelBackgroundColor=default;endArrow=none;endFill=0;" parent="1" source="-28X3IPU-qpVwxlm2ra_-65" target="23PltFtee5-7gZN0qqk8-2" edge="1">
          <mxGeometry relative="1" as="geometry" />
        </mxCell>
        <mxCell id="OuvUhGnFTSXVDVeN6YIj-7" style="edgeStyle=none;rounded=0;orthogonalLoop=1;jettySize=auto;html=1;exitX=0.5;exitY=0;exitDx=0;exitDy=0;exitPerimeter=0;entryX=0.5;entryY=1;entryDx=0;entryDy=0;entryPerimeter=0;strokeColor=#990000;align=center;verticalAlign=middle;fontFamily=Helvetica;fontSize=11;fontColor=default;labelBackgroundColor=default;endArrow=none;endFill=0;" parent="1" source="4OMlqrMxiYEjtJgDedAr-55" target="23PltFtee5-7gZN0qqk8-2" edge="1">
          <mxGeometry relative="1" as="geometry" />
        </mxCell>
        <mxCell id="OuvUhGnFTSXVDVeN6YIj-8" style="edgeStyle=none;rounded=0;orthogonalLoop=1;jettySize=auto;html=1;exitX=0.5;exitY=0;exitDx=0;exitDy=0;exitPerimeter=0;entryX=0.5;entryY=1;entryDx=0;entryDy=0;entryPerimeter=0;strokeColor=#990000;align=center;verticalAlign=middle;fontFamily=Helvetica;fontSize=11;fontColor=default;labelBackgroundColor=default;endArrow=none;endFill=0;" parent="1" source="4OMlqrMxiYEjtJgDedAr-24" target="23PltFtee5-7gZN0qqk8-2" edge="1">
          <mxGeometry relative="1" as="geometry" />
        </mxCell>
        <mxCell id="OuvUhGnFTSXVDVeN6YIj-9" style="edgeStyle=none;rounded=0;orthogonalLoop=1;jettySize=auto;html=1;exitX=0.5;exitY=0;exitDx=0;exitDy=0;exitPerimeter=0;entryX=0.5;entryY=1;entryDx=0;entryDy=0;entryPerimeter=0;strokeColor=#990000;align=center;verticalAlign=middle;fontFamily=Helvetica;fontSize=11;fontColor=default;labelBackgroundColor=default;endArrow=none;endFill=0;" parent="1" source="-28X3IPU-qpVwxlm2ra_-67" target="23PltFtee5-7gZN0qqk8-2" edge="1">
          <mxGeometry relative="1" as="geometry" />
        </mxCell>
        <mxCell id="OuvUhGnFTSXVDVeN6YIj-10" value="" style="sketch=0;points=[[0.015,0.015,0],[0.985,0.015,0],[0.985,0.985,0],[0.015,0.985,0],[0.25,0,0],[0.5,0,0],[0.75,0,0],[1,0.25,0],[1,0.5,0],[1,0.75,0],[0.75,1,0],[0.5,1,0],[0.25,1,0],[0,0.75,0],[0,0.5,0],[0,0.25,0]];verticalLabelPosition=bottom;html=1;verticalAlign=top;aspect=fixed;align=center;pointerEvents=1;shape=mxgraph.cisco19.rect;prIcon=l3_switch;fillColor=#dae8fc;strokeColor=#6c8ebf;" parent="1" vertex="1">
          <mxGeometry x="1720" y="40" width="50" height="50" as="geometry" />
        </mxCell>
        <mxCell id="23PltFtee5-7gZN0qqk8-7" style="edgeStyle=none;rounded=0;orthogonalLoop=1;jettySize=auto;html=1;exitX=0.5;exitY=0;exitDx=0;exitDy=0;exitPerimeter=0;entryX=0.5;entryY=1;entryDx=0;entryDy=0;entryPerimeter=0;strokeColor=#990000;align=center;verticalAlign=middle;fontFamily=Helvetica;fontSize=11;fontColor=default;labelBackgroundColor=default;endArrow=none;endFill=0;" parent="1" source="-28X3IPU-qpVwxlm2ra_-69" target="23PltFtee5-7gZN0qqk8-2" edge="1">
          <mxGeometry relative="1" as="geometry" />
        </mxCell>
        <mxCell id="23PltFtee5-7gZN0qqk8-8" style="edgeStyle=none;rounded=0;orthogonalLoop=1;jettySize=auto;html=1;exitX=0.5;exitY=0;exitDx=0;exitDy=0;exitPerimeter=0;entryX=0.5;entryY=1;entryDx=0;entryDy=0;entryPerimeter=0;strokeColor=#990000;align=center;verticalAlign=middle;fontFamily=Helvetica;fontSize=11;fontColor=default;labelBackgroundColor=default;endArrow=none;endFill=0;" parent="1" source="-28X3IPU-qpVwxlm2ra_-96" target="23PltFtee5-7gZN0qqk8-2" edge="1">
          <mxGeometry relative="1" as="geometry" />
        </mxCell>
        <mxCell id="23PltFtee5-7gZN0qqk8-9" style="edgeStyle=none;rounded=0;orthogonalLoop=1;jettySize=auto;html=1;exitX=0.5;exitY=0;exitDx=0;exitDy=0;exitPerimeter=0;entryX=0.5;entryY=1;entryDx=0;entryDy=0;entryPerimeter=0;strokeColor=#990000;align=center;verticalAlign=middle;fontFamily=Helvetica;fontSize=11;fontColor=default;labelBackgroundColor=default;endArrow=none;endFill=0;" parent="1" source="4OMlqrMxiYEjtJgDedAr-56" target="23PltFtee5-7gZN0qqk8-2" edge="1">
          <mxGeometry relative="1" as="geometry" />
        </mxCell>
        <mxCell id="23PltFtee5-7gZN0qqk8-10" style="edgeStyle=none;rounded=0;orthogonalLoop=1;jettySize=auto;html=1;exitX=0.5;exitY=0;exitDx=0;exitDy=0;exitPerimeter=0;entryX=0.5;entryY=1;entryDx=0;entryDy=0;entryPerimeter=0;strokeColor=#990000;align=center;verticalAlign=middle;fontFamily=Helvetica;fontSize=11;fontColor=default;labelBackgroundColor=default;endArrow=none;endFill=0;" parent="1" source="4OMlqrMxiYEjtJgDedAr-25" target="23PltFtee5-7gZN0qqk8-2" edge="1">
          <mxGeometry relative="1" as="geometry" />
        </mxCell>
        <mxCell id="23PltFtee5-7gZN0qqk8-11" style="edgeStyle=none;rounded=0;orthogonalLoop=1;jettySize=auto;html=1;exitX=0.5;exitY=0;exitDx=0;exitDy=0;exitPerimeter=0;entryX=0.5;entryY=1;entryDx=0;entryDy=0;entryPerimeter=0;strokeColor=#990000;align=center;verticalAlign=middle;fontFamily=Helvetica;fontSize=11;fontColor=default;labelBackgroundColor=default;endArrow=none;endFill=0;" parent="1" source="5gdxTV0TSt_yze_bJtej-2" target="23PltFtee5-7gZN0qqk8-2" edge="1">
          <mxGeometry relative="1" as="geometry" />
        </mxCell>
        <mxCell id="23PltFtee5-7gZN0qqk8-12" style="edgeStyle=none;rounded=0;orthogonalLoop=1;jettySize=auto;html=1;exitX=0.5;exitY=0;exitDx=0;exitDy=0;exitPerimeter=0;entryX=0.5;entryY=1;entryDx=0;entryDy=0;entryPerimeter=0;strokeColor=#000066;align=center;verticalAlign=middle;fontFamily=Helvetica;fontSize=11;fontColor=default;labelBackgroundColor=default;endArrow=none;endFill=0;" parent="1" source="-28X3IPU-qpVwxlm2ra_-63" target="OuvUhGnFTSXVDVeN6YIj-10" edge="1">
          <mxGeometry relative="1" as="geometry" />
        </mxCell>
        <mxCell id="23PltFtee5-7gZN0qqk8-13" style="edgeStyle=none;rounded=0;orthogonalLoop=1;jettySize=auto;html=1;exitX=0.5;exitY=0;exitDx=0;exitDy=0;exitPerimeter=0;entryX=0.5;entryY=1;entryDx=0;entryDy=0;entryPerimeter=0;strokeColor=#000066;align=center;verticalAlign=middle;fontFamily=Helvetica;fontSize=11;fontColor=default;labelBackgroundColor=default;endArrow=none;endFill=0;" parent="1" source="-28X3IPU-qpVwxlm2ra_-69" target="OuvUhGnFTSXVDVeN6YIj-10" edge="1">
          <mxGeometry relative="1" as="geometry" />
        </mxCell>
        <mxCell id="23PltFtee5-7gZN0qqk8-14" style="edgeStyle=none;rounded=0;orthogonalLoop=1;jettySize=auto;html=1;exitX=0.5;exitY=0;exitDx=0;exitDy=0;exitPerimeter=0;entryX=0.5;entryY=1;entryDx=0;entryDy=0;entryPerimeter=0;strokeColor=#000066;align=center;verticalAlign=middle;fontFamily=Helvetica;fontSize=11;fontColor=default;labelBackgroundColor=default;endArrow=none;endFill=0;" parent="1" source="-28X3IPU-qpVwxlm2ra_-65" target="OuvUhGnFTSXVDVeN6YIj-10" edge="1">
          <mxGeometry relative="1" as="geometry" />
        </mxCell>
        <mxCell id="23PltFtee5-7gZN0qqk8-15" style="edgeStyle=none;rounded=0;orthogonalLoop=1;jettySize=auto;html=1;exitX=0.5;exitY=0;exitDx=0;exitDy=0;exitPerimeter=0;entryX=0.5;entryY=1;entryDx=0;entryDy=0;entryPerimeter=0;strokeColor=#000066;align=center;verticalAlign=middle;fontFamily=Helvetica;fontSize=11;fontColor=default;labelBackgroundColor=default;endArrow=none;endFill=0;" parent="1" source="-28X3IPU-qpVwxlm2ra_-96" target="OuvUhGnFTSXVDVeN6YIj-10" edge="1">
          <mxGeometry relative="1" as="geometry" />
        </mxCell>
        <mxCell id="23PltFtee5-7gZN0qqk8-16" style="edgeStyle=none;rounded=0;orthogonalLoop=1;jettySize=auto;html=1;exitX=0.5;exitY=0;exitDx=0;exitDy=0;exitPerimeter=0;entryX=0.5;entryY=1;entryDx=0;entryDy=0;entryPerimeter=0;strokeColor=#000066;align=center;verticalAlign=middle;fontFamily=Helvetica;fontSize=11;fontColor=default;labelBackgroundColor=default;endArrow=none;endFill=0;" parent="1" source="4OMlqrMxiYEjtJgDedAr-55" target="OuvUhGnFTSXVDVeN6YIj-10" edge="1">
          <mxGeometry relative="1" as="geometry" />
        </mxCell>
        <mxCell id="23PltFtee5-7gZN0qqk8-17" style="edgeStyle=none;rounded=0;orthogonalLoop=1;jettySize=auto;html=1;exitX=0.5;exitY=0;exitDx=0;exitDy=0;exitPerimeter=0;entryX=0.5;entryY=1;entryDx=0;entryDy=0;entryPerimeter=0;strokeColor=#000066;align=center;verticalAlign=middle;fontFamily=Helvetica;fontSize=11;fontColor=default;labelBackgroundColor=default;endArrow=none;endFill=0;" parent="1" source="4OMlqrMxiYEjtJgDedAr-56" target="OuvUhGnFTSXVDVeN6YIj-10" edge="1">
          <mxGeometry relative="1" as="geometry" />
        </mxCell>
        <mxCell id="23PltFtee5-7gZN0qqk8-18" style="edgeStyle=none;rounded=0;orthogonalLoop=1;jettySize=auto;html=1;exitX=0.5;exitY=0;exitDx=0;exitDy=0;exitPerimeter=0;entryX=0.5;entryY=1;entryDx=0;entryDy=0;entryPerimeter=0;strokeColor=#000066;align=center;verticalAlign=middle;fontFamily=Helvetica;fontSize=11;fontColor=default;labelBackgroundColor=default;endArrow=none;endFill=0;" parent="1" source="4OMlqrMxiYEjtJgDedAr-24" target="OuvUhGnFTSXVDVeN6YIj-10" edge="1">
          <mxGeometry relative="1" as="geometry" />
        </mxCell>
        <mxCell id="23PltFtee5-7gZN0qqk8-19" style="edgeStyle=none;rounded=0;orthogonalLoop=1;jettySize=auto;html=1;exitX=0.5;exitY=0;exitDx=0;exitDy=0;exitPerimeter=0;entryX=0.5;entryY=1;entryDx=0;entryDy=0;entryPerimeter=0;strokeColor=#000066;align=center;verticalAlign=middle;fontFamily=Helvetica;fontSize=11;fontColor=default;labelBackgroundColor=default;endArrow=none;endFill=0;" parent="1" source="4OMlqrMxiYEjtJgDedAr-25" target="OuvUhGnFTSXVDVeN6YIj-10" edge="1">
          <mxGeometry relative="1" as="geometry" />
        </mxCell>
        <mxCell id="23PltFtee5-7gZN0qqk8-20" style="edgeStyle=none;rounded=0;orthogonalLoop=1;jettySize=auto;html=1;exitX=0.5;exitY=0;exitDx=0;exitDy=0;exitPerimeter=0;entryX=0.5;entryY=1;entryDx=0;entryDy=0;entryPerimeter=0;strokeColor=#000066;align=center;verticalAlign=middle;fontFamily=Helvetica;fontSize=11;fontColor=default;labelBackgroundColor=default;endArrow=none;endFill=0;" parent="1" source="5gdxTV0TSt_yze_bJtej-2" target="OuvUhGnFTSXVDVeN6YIj-10" edge="1">
          <mxGeometry relative="1" as="geometry" />
        </mxCell>
        <mxCell id="23PltFtee5-7gZN0qqk8-21" style="edgeStyle=none;rounded=0;orthogonalLoop=1;jettySize=auto;html=1;exitX=1;exitY=0.5;exitDx=0;exitDy=0;exitPerimeter=0;entryX=0;entryY=0.5;entryDx=0;entryDy=0;entryPerimeter=0;strokeColor=#990000;align=center;verticalAlign=middle;fontFamily=Helvetica;fontSize=11;fontColor=default;labelBackgroundColor=default;endArrow=none;endFill=0;" parent="1" source="23PltFtee5-7gZN0qqk8-2" target="OuvUhGnFTSXVDVeN6YIj-10" edge="1">
          <mxGeometry relative="1" as="geometry" />
        </mxCell>
        <mxCell id="23PltFtee5-7gZN0qqk8-22" value="x3" style="edgeLabel;html=1;align=center;verticalAlign=middle;resizable=0;points=[];fontFamily=Helvetica;fontSize=11;fontColor=default;labelBackgroundColor=default;" parent="23PltFtee5-7gZN0qqk8-21" connectable="0" vertex="1">
          <mxGeometry x="0.0382" y="2" relative="1" as="geometry">
            <mxPoint as="offset" />
          </mxGeometry>
        </mxCell>
        <mxCell id="OuvUhGnFTSXVDVeN6YIj-18" style="edgeStyle=none;rounded=0;orthogonalLoop=1;jettySize=auto;html=1;exitX=0.5;exitY=0;exitDx=0;exitDy=0;exitPerimeter=0;strokeColor=#990000;align=center;verticalAlign=middle;fontFamily=Helvetica;fontSize=11;fontColor=default;labelBackgroundColor=default;endArrow=none;endFill=0;" parent="1" source="OuvUhGnFTSXVDVeN6YIj-12" edge="1">
          <mxGeometry relative="1" as="geometry">
            <mxPoint x="1074.5263157894738" y="-210" as="targetPoint" />
          </mxGeometry>
        </mxCell>
        <mxCell id="OuvUhGnFTSXVDVeN6YIj-12" value="" style="sketch=0;points=[[0.5,0,0],[1,0.5,0],[0.5,1,0],[0,0.5,0],[0.145,0.145,0],[0.8555,0.145,0],[0.855,0.8555,0],[0.145,0.855,0]];verticalLabelPosition=bottom;html=1;verticalAlign=top;aspect=fixed;align=center;pointerEvents=1;shape=mxgraph.cisco19.rect;prIcon=router;fillColor=#FAFAFA;strokeColor=#005073;fontFamily=Helvetica;fontSize=11;fontColor=default;labelBackgroundColor=default;" parent="1" vertex="1">
          <mxGeometry x="1050" y="-110" width="50" height="50" as="geometry" />
        </mxCell>
        <mxCell id="OuvUhGnFTSXVDVeN6YIj-19" style="edgeStyle=none;rounded=0;orthogonalLoop=1;jettySize=auto;html=1;exitX=0.5;exitY=0;exitDx=0;exitDy=0;exitPerimeter=0;strokeColor=#990000;align=center;verticalAlign=middle;fontFamily=Helvetica;fontSize=11;fontColor=default;labelBackgroundColor=default;endArrow=none;endFill=0;" parent="1" source="OuvUhGnFTSXVDVeN6YIj-13" edge="1">
          <mxGeometry relative="1" as="geometry">
            <mxPoint x="1394.5263157894738" y="-200" as="targetPoint" />
          </mxGeometry>
        </mxCell>
        <mxCell id="OuvUhGnFTSXVDVeN6YIj-13" value="" style="sketch=0;points=[[0.5,0,0],[1,0.5,0],[0.5,1,0],[0,0.5,0],[0.145,0.145,0],[0.8555,0.145,0],[0.855,0.8555,0],[0.145,0.855,0]];verticalLabelPosition=bottom;html=1;verticalAlign=top;aspect=fixed;align=center;pointerEvents=1;shape=mxgraph.cisco19.rect;prIcon=router;fillColor=#FAFAFA;strokeColor=#005073;fontFamily=Helvetica;fontSize=11;fontColor=default;labelBackgroundColor=default;" parent="1" vertex="1">
          <mxGeometry x="1370" y="-110" width="50" height="50" as="geometry" />
        </mxCell>
        <mxCell id="OuvUhGnFTSXVDVeN6YIj-15" style="edgeStyle=none;rounded=0;orthogonalLoop=1;jettySize=auto;html=1;exitX=0.5;exitY=0;exitDx=0;exitDy=0;exitPerimeter=0;entryX=0.5;entryY=1;entryDx=0;entryDy=0;entryPerimeter=0;strokeColor=#990000;align=center;verticalAlign=middle;fontFamily=Helvetica;fontSize=11;fontColor=default;labelBackgroundColor=default;endArrow=none;endFill=0;" parent="1" source="23PltFtee5-7gZN0qqk8-2" target="OuvUhGnFTSXVDVeN6YIj-12" edge="1">
          <mxGeometry relative="1" as="geometry" />
        </mxCell>
        <mxCell id="OuvUhGnFTSXVDVeN6YIj-16" style="edgeStyle=none;rounded=0;orthogonalLoop=1;jettySize=auto;html=1;exitX=0.5;exitY=1;exitDx=0;exitDy=0;exitPerimeter=0;entryX=0.5;entryY=0;entryDx=0;entryDy=0;entryPerimeter=0;strokeColor=#990000;align=center;verticalAlign=middle;fontFamily=Helvetica;fontSize=11;fontColor=default;labelBackgroundColor=default;endArrow=none;endFill=0;" parent="1" source="OuvUhGnFTSXVDVeN6YIj-13" target="OuvUhGnFTSXVDVeN6YIj-10" edge="1">
          <mxGeometry relative="1" as="geometry" />
        </mxCell>
        <mxCell id="OuvUhGnFTSXVDVeN6YIj-17" value="" style="shape=image;verticalLabelPosition=bottom;labelBackgroundColor=default;verticalAlign=top;aspect=fixed;imageAspect=0;image=data:image/png,iVBORw0KGgoAAAANSUhEUgAABbAAAACOCAYAAADgkC7BAAAAAXNSR0IArs4c6QAAAARnQU1BAACxjwv8YQUAAAAJcEhZcwAADsMAAA7DAcdvqGQAAJPGSURBVHhe7Z0FnFVF+8cHWxADEwsLG7FREFFfFRu7UWzF7r8JYr4G5msgikgoIIpgghJKiKJ0S0uHdMP5n++zd5azl5u7F9hlf9/P58LeuefMmTN5zm+eeaZMEOKKQJkyZVwRoxCiSKgOpkd5JEThUfsRQiRCfYMQQhRP1D+LXKB6lHuUp6WPXJb5JrH/hRBCCCGEEEIIIYQQQohihQRsIYQQQgghhBBCCCGEEMUSCdhCCCGEEEIIIYQQQgghiiUSsIUQQgghhBBCCCGEEEIUSyRgCyGEEEIIIYQQQgghhCiWSMAWQgghhBBCCCGEEEIIUSyRgC2EEEIIIYQQQgghhBCiWCIBW5RKPvjgA/fggw+6RYsW2feVK1e6V155xT355JNu+fLlFiaEEEIIIYQQQgghhNiwSMAWpZIVK1a4Dz/80PXq1cu+jxw50jVr1szChRBCCCGEEEIIIYQQxYMyQUjs70JRpkwZV8QohCgShamDq1evdn379nU//vijmzp1qtt2223d8ccf78455xxXrly52FEbD2qnQhQetR8hRCLUNwghRPFE/bPIBapHuUd5WvrIZZlLwBYlnvVVB3EtsmTJEhO7ueb6gGvi5qR8+fJus802i4Vmj9qpEIVH7UcIkQj1DUIIUTxR/yxygepR7lGelj5yWeYSsEWJJ5s6iLX1q6++6oYMGWLfTzrpJHfbbbe5Dh06uPbt21vYnnvu6R5++GF38MEH2/dp06a5hg0b2jVmzJjhxowZY/6yzzzzTPfOO++43r17u+22287NmzfPzZkzx22yySauYsWKbtNNNzXxuVGjRna9Tz75xATwzTff3O26665u9uzZbuedd3Y33nijq1atmp0HXAfrcPx0V6pUyf32229uxIgR7plnnnHXXHNNoYRstVMhCo/ajxAiEeobhBCieKL+WeQC1aPcozwtfeSyzOUDW5QqEJbr1KnjOnfubJ/TTjvN7bLLLq5WrVpu+vTp+WFevJ45c6arX7++W7x4sQnfDz30kBs8eLCJ0hMnTjRr7Hfffde9//777rzzzrPzEckfffRR87F9/fXXu1WrVrnatWu73XbbzX5nw8iXX37ZvfXWWyaG81u3bt3seoAgfuWVV1qaGjRo4N544w27zt133+169OgRO0oIIYQQQgghhBBCiI0fCdii1IFldBRmg3755Rc3cODAWMgaOnbs6L766itXuXJlc+Ox1157mbCMZfXSpUvd2Wef7bbffvvY0WtTs2ZNOycRWF8feOCBbsGCBWbl7WFjyQkTJrjPP//cLLqZscI6O/44IYQQQgghhBBCCCE2diRgi1LPqFGj3IABA1yVKlViIXkgUP/111+xb3nsvffe7ptvvjFLaMRnrLcRmJNRtmxZ+8SDaD5o0CBzD4IrkhNPPDH2i3M333yzWXQ/+OCDbptttrHjcF0ihBBCCCGEEEIIIURpQwK2KNXgzgP3HVdccUW+D2oP/qqxhPZ/4woEEJXxeZ1KuE4FrkfwsX3fffeZ9Xa9evXMJ7anQoUK7pZbbrH4b7rpJrds2TK30047xX4VQgghhBBCCCGEEKL0IAFblGoQr3EPEhWQPVtuuaX5zIb+/fu7f//91/4uKlhx40/7119/daeffrq7+uqrXd26dc3fNuCe5IEHHjB/20888YQ77rjj1hLXhRBCCCGEEEIIIYQoDUgVE6UafEpXr1499q0gW2+9tTvkkEPsb/xS8/GsXr3aLKOLwmabbeZOPvlk+/unn36yDR2hWbNm7s0333QnnHCC22effSxMCCGEEEIIIYQQQojSiARsUarB+hmhOhG48Dj//PNdtWrVbAPFBg0auE6dOplbkQ8++MCNHz8+dmQeCxcujP2VGbgvYfNIOProo93uu+9ufreHDx9uYT/88IP78MMPXZMmTfJ9YGMFPmXKFPtbCCGEEEIIIYQQQoiNHQnYolQxa9Ys16FDh9i3PJGYsO7du7uxY8da2I8//pj/N+5F3njjDXPjMXDgQHfBBReYX2pE7YMOOsiOAY73Ftr83aVLFxO9Ad/ZvXv3to0iYcSIEe61115z1113naUFdyGffPKJuRbZaqut3OWXX+4qVapk50+fPt3df//95qMbSBsuRoQQQgghhBBCCCGEKA2UCUJifxcKrFSLGIUQRWJ91EGspb0gzQaO69on9fLly+3/LbbYwv7n/rDwLleuXKGurXYqROFR+xFCJEJ9gxBCFE/UP4tcoHqUe5SnpY9clrkEbFHiUR1Mj/JIiMKj9iOESIT6BiGEKJ6ofxa5QPUo9yhPSx+5LHO5EBFCCCGEEEIIIYQQQghRLJGALYQQQgghhBBCCCGEEKJYIgFbCCGEEEIIIYQQQgghRLFEArYQQgghhBBCCCGEEEKIYokEbCGEEEIIIYQQQgghhBDFEgnYQgghhBBCCCGEEEIIIYolErCFEEIIIYQQQgghhBBCFEvKBCGxvwtFmTJlYn8JIYQQQgghhBBCCCGEEM4VUXbOJycCdq4SI0RhUB1Mj/JIiMKj9iOESIT6BiGEKJ6ofxa5QPUo9yhPSx+5LHO5EBFCCCGEEEIIIYQQQghRLJGALYQQQgghhBBCCCGEEKJYIgFbCCGEEEIIIYQQQgghRLFEArYQIQsXLnTLly+PfSvIypUr3bx589zq1atjIYnhfI7LxL/PqlWr7FMSIG+WLFkS+yaE2JjJph/LBcuWLXOzZs2Kfcsj0z63NEAe/PvvvwX64KVLl+asfIi3T58+bvr06bGQzCBdQ4YMcX/99Zd9pwwpS5Eaim348Flhvk2NhZQMli1b5Tp3HhPWl5WxkDxGjJjlBg+eEfu28bJy5Wr3559T3dix/8ZCRDzz5y9zXbqMDZ9ts+ubCntepqzL+H/77R83ceK82LfSx8ba/hlfeQZJ9l4YT6bHZcKiRYvsGUiUHvxzXq7qUa7f24krl3V8fZBtGxYli/UmYNM4edF56KGHXO3atV39+vWtsaZiwoQJ7qqrrnJnn322e+ONN8IHx7GxX4TIHcOHD3enn366++OPP2IhefAA8dlnn7nDDz/cbb/99u7QQw91X3311VrCAR3766+/7ipWrGjHVatWLXyo/S32a0F4wf/222/dpZde6v7+++9YaPFk0qRJ7vrrr3fly5d3ZcuWdTfddJObOXNm7FchRDwrVqxw3bt3zx/nHnvsMXsZiWf+/Pnuiy++cFdeeaW7/fbbXc+ePS2sb9++7t5777VzL7zwQtesWTM3bdo0N3LkSPfcc8/ZWMiYyNiYCsZWxljieeaZZ0xoTCcGk86GDRvm92NVq1Z1X375ZYHzvv76a4sz3eeKK67IaLzmvlq3bu3KlStn3+lzP/jgA3fAAQdYGvbbbz/33nvvlUphlHwn/88991z3zjvvuAYNGljZk19vv/22idi5YPDgwe68885zzZs3j4Wk5/fff7e6W6VKFRs/Ycstt7T6mq5ulmaGDp3pbr65Y/gs8T8TsUsSU6YsMKFuq602i4XkifE9e05022yzRSxk44V7v/POb8N3kd9MzBdrg5i5ZMkKt+mmZWIhmVHY8zJlXcVPPUDALl9+y1hI6WJjbf8DBgxwF1xwgT2D7LTTTu6pp55K+BwHEydOdP/3f//nXnnllVhIYn755ZcCz0h16tSx57IovHPdd999rlWrVu7RRx91LVq0kJBdwklX7pTv559/bu8K/fr1s+dd6kD8u3Z8PNEP53hGjx7tLr744vz3dv4eMWJE7NeCZFIn58yZY+8QXOPll1+2Ty6F8cKAsUW9evUKpP2TTz6J/ZpHNm04k3wQxY/1JmBvsskm7uijj3Z33323zQzRGLp16xb7NTE//fSTNextttnG3XDDDfYyK0QuoUNDDBg2bFgsZA0//vijiQQ9evSw3xGw77//fjdw4MDYEXkzfDxsILgwSPTu3dttscUW9kDDg00UZgJ79eplAte4ceNiocUTBDDEiMcff9wENASUdu3aWV6VFMtxIdY3m2++uTvllFPcSy+95E477TT7n7YT/xKy7bbb2iQWk11XX321O+mkkyyM73fccYebOnWqO/LII+0hbbfddnMHHXSQjZ2MhYyJ7du3X2siLQqTxS1btrQHPYRGJuEYg5NB+t566y07pm3btiZUI2Rz/U6dOsWOypuAu/POO933339v/SPncA3Sz3c+CPP77ruvifmpQPjkOnXr1nVbb7213Q/3xoPjhx9+6Dp37uyqV69uQvz777+f8n43Rsh3ypAHcx6+eXFo0qSJTXaMGTMmdlTR4bns559/drfddlssJD3HH3+8a9SokQnYHl6YKEvS6EVtUZDDDtvZPfJIDVe16q6xkNRMnbowfJFdHPuWB1akQ4asf4vHwYOnuyOO2NWViWiAc+cuDZ/nl7vddy8fC9l42XffHVzTphe4J5442W255aaxUOGhex40aHrYJ2RWtz2FPS9T1mX8TOog3m6//VaxkI2PVP3Nxtj+x48fb0ZGGCXx7vPwww+7N998096H4uFdEKODH374IaWBAO+ZvCdGj2HcrVy5cuxbnijHta699lp36623uhdeeMGe43geK23PPhsLmZQ7dY1n3ueff96dccYZ+QYsPPN5oZjnbozneD7nWZt3Cz41a9a0Yw488EA7jvpKPAiw6Gs8N1OHbr75ZqvXUTJJG8c8/fTT9i7ywAMPhGPfE26zzTaz5/4NObHy3XffFTCQqVChgjv11FNj37Jrw5nkgyimhB1jkcg2ilmzZgXXXXddEL742P/z5s2L/VKQKVOmBJdddllQqVKlIHyxChYvXhz7RYiCFLYahx1W8MknnwTvvPNOULVq1aBnz56xX4Jg4cKFwe+//27HeMKBIAg7taBly5axkLz6HD7ExL7lEXaulqZofFEI53ojRoyIhax7ss2joUOHBmHHH/sWBCtWrAgeeeSRIBxY7Z6FKE0Upo+hnXNe+fLlg/ABqUBf4qEvie8n6BfoHxo1ahQLyYMx8P777w/Ch9YgfFgL/vnnn9gvBeG48CE4OOywwzJur6NGjQo6dOhQII3jxo0LatSoEdStWzeYP3++hfXp0yf/b0iW1r///tvOT8aMGTOCG264oUAfOHPmTOuP6Ws8c+bMseeAU045JZg8eXIsdOOHMuS5h7EpHsq9QYMGG/yZyJd9dDwExkPKlrIrDWTbN8yYsSg4/fRPw3wbFAtJDE3x/ff7hflcsP2OHftv8Oabv8W+rR+WLl0ZvP56n7BMl8RC8ujb95/g66/X33OMKL5QN6gj1JVsKOx5mbIu46fu0wY2ZlL1NyWh/WfbP/ft29fe/zxz584NrrnmmqQ6hB+r45+BovTo0SPMp69j39aG567XXnutwLMWdO7c2Z7BUj1LifVDYd4B0pX7kiVLgvr16wfNmzePheTBs9WZZ56Z/3zM/127dl3rHYJn4nr16pleBh07dgyGDRtmf3t4rucd5P3334+F5JEubdC+ffu1nr15vjvmmGOCP/74IxZSeAqTp9OnTw9effXVsD9fGgtZm2zacCb5IHJHYco8GRvEB/b+++9vFtXMKMW7bfDgk5EZpoMPPjgWIkRu+fPPP13YmZn7kHhY0n7ccce5MhFzI5bj7LLLLu6www6LhTi34447uiOOOCL2LQ8sKWvVquX22muvWEjJA2vzXXddY7HCrCvWn1jesSRHCJEeb4nNSgaWqRWVHXbYwaxzWGqI1U8icAlBP4X1cqbQtrFgiPZ3lSpVsr5xxowZ+T7kwgdXOzYdnLvHHnvEvq1N+KBt/QiW2h6ujbsM+hoP94t7C1aELFiwIBa68UN+z5492yy8sBCJgkX+IYccEvtW/GC1ANbYWMmItdlkkzIZuTL45ZcJrkWLNau9YNGiFe7VV3u7efPWr0sdLE233XbLsD2usTTlVQTft1Wr7hYLEaWZ0aNnu8qVd8zaOr2w52XKuoof9yHjxs0N+7udYiEbH6n6m421/fOO412aAStqeeZhFRsrxbIFC1med7BY5VkqEViJsqoNq0/GTg/vkLiWY+WuKFlkUu5YVON6jRVwlLNn1qxZpiPwHA/77LOPaQrR53MYOnSo1RF/HJbY8ZoZ7wGs7IymIZO08dzJKkCe53gO97Ayk++8fwSmR65funTpYunGynp1klUPmbbhTPJBFF/KoGLH/i4UNKhsouCl7N1333UXXXSRLWtgaQJm/tFKxcsqy2Wvu+46c9lA440eQ2Wj0iFy0/h5ybvmmmtsSTYvv3QE33zzjbl9YNk17krwJcXLN0IC1wSWudJx0FBZgnDmmWdaJe7Zs6e9QPICzlIOGko07JxzzrHrpLsGy8BZ6k38W221lYkBXvyk48FFCgLoUUcdZYNXMtcM+DDinqNpxRfqdtttZ0uwJ0+ebA2UpSW77767uXogDwljguCss84yX8Y+//CzhZ9R8g5/SYQ/+eST1hFSPvh9jn9p9tCJnnDCCVbmgwYNcp9++qn9jS/T888/v8B1Mi2HopJtHQSWa7G8hvpFOeGz9X//+5+rUaNG7Ii16dq1q9W1e+65J3wBTf4wzJJvOs/LLrssFlIQHkZYht+mTRsbHNYHhcmjKNSHF1980d14440pXfkwIYAbAepVsuv5NkQ99j7BcauCu5a5c+da3px88smWZgYo6k/Tpk2tjIiTJU3//POPuRa45ZZbrL7RNhD1EkE7YVkeZYKISN+BeIafctq3j0OIZBSm/dDOGTtYjsaELbCELSo+snSN8S3a79CXUtcvueQSW0bo4WHr1VdfNZcg+EdkvMDVhn94BcaJ//73vzaWffTRR3Z9rsE4UxieffZZG0sQ4hlP4kmW1lTwcI6rCfw5M8ang/R36NDB+gDaciKiY3ki/PhIWdB3ky/kHW5OGItZisnEAH0SZDJ2ZTpW4kOQtNM38qKKCzV8pKca/yhbnoG4FvnEcmLqiYe+kvGbegnUDXxjs2yUe+M5w4/p0T6UFxleQFgOSrwsVx01apRr3LixLV8lDDJJsy97lmfy/BWF5wvGAepg9OVnYyTbvmH27CVhfrUP20DVcJyr5Bo06OZ69JgQjkNHh+VxQlhXN3VffDHMwtl8juMqVtzGnXIKz8G/hc9cA8Pxs7Kde/jhu7jTTts3HD/Hu+++Gx2W+clhWxkRHtfH7bnntmH9qelOPXXfMI1518YX8CefDAjb0VZhO1xsrg/q1z8u7B+2NkGuYcPu4fPhPPf22+cUEKs7dhwZjtvbhvW/YiyE5/SlrmXLQe62246xe2rffljYFlaEbWjr8Pn+YLdgwfJwbB9lYeXKbe7+85/9wr5vJ7vuV1+NCOvWCruHXr0mrrfzLrvs0KTuDrh/8g6fvpxDHI8+epKrXLlCWL7syTM3fGbsZ/6On3iiZuys1HkKpKd58wHmhoHfK1Xa3j344Ilut93yJgKJGxcXlCv1aOTI2eGz9IHhs/SR4XPJmsm8RKRKs4frU07Dh88M2/USq1/UsypV8sYNNuWk/nz++RCrL4sWLXfPPfdL2GfMDJ+PT3Q33XSUCbWEdekyJuwnjwnbfA27lod7+Pjj/uE7zn7h/eX10YT17z817DcHhelcGdar+XbuuedWtkkcf0yi8379dULYtw4x8XnLLTez/KIeA+VAnNwHbaZx4z52LPE2bHiK1QdPNP6ddy4bxjvRXOFQly+55JBwLNjENlMl/8jra689wuEShHwlz8aPn2uTTbjJ4Ppcw0OedOs2LnwmPsq+Jzvn1FP3yei65cptkX9vBx+8U9jX7hbWs59t49Crrjo87LNPtHtbvTqwsmna9K/wWeBwu/aTT3YNn4nnW7275ZZjCtQb0vPhh3+FY90q88Ffs+beVg4+n6Ll/9BD1W2jVuorefn11yPX6m98HkTb/2abbZKfpmrV9rT+6oEHfgzTXSWsQyfY/aaq47TNTMsmWwrz7BaF90Oeu3ALufPOO8dC18DYy3sk7zWJnoF45+CZjXgQp/kb91tMRHswpuL9GT/a0bEUP8i4mMOYimexVO+dYt2SbT3KpNwBV3loVzwTU8Y8kz744IP2PMp7cDJ4RuRdGAOZ//znP7HQteE5lTrF+zI+oSGTtLGXCXUP/Shar3km5LmRd3c0k+iES7Zkm6foc7yv8w4PPLfzbnLiiSdaXMlI1oYzLSORO4raHxcgjKhIZBtF+PJqS20w72fJTPgyZeb+UX766afg448/tmNZAh1v9s+SCMLDymzfOR5XI/369bN4u3TpYr9fe+21wRNPPBG0a9cuCF/Q7JjwBc6WS3tY/oo7k/AFOBYS2HKOeBcPhPmlFNlcI3xxTLjEOnxBDh599FFb+tGrV68gfPm2cL8s1y8rHzRokN0vJEorfxPml6Bw/vPPP5+/vMJfP3wZte9+SbY/nnthCQpL08MOyeL74osvbKmKz3+/RHjSpEn58XTv3j2466678pdp4G6iTp06thyGsGzLoShkWwdZov7uu+/mL7WJz/NEkC833XRTyjSTZ8RBHkTdb8TDMfH1a11TlKZOXXrrrbeC9957L+WyHY+vN/F1nu+nn356frulHMLBJ2jRokX+0ijqFW5avMuFkSNH2nIh0v/yyy8H4QBvy32owz6MeJo0aRKEg5DFQX3l+qQjHOSt3pHXLHmqXr16fvsZMmRIcMghh2j5kEhLYdoP7dz3ndRr+j36yGjfwO/x/Y7vj+LbD2MgYdRrlvaRJv6PQp1+4YUXbHxh3PTtoDAQB26+GF+TkSytqeB+w4fFte47EStXrgwee+yx/HEnFeRlfL/q0xddokm/f/311+f3F4xV9Nm+bDIduzIZK+kvw5cRc/nBcdxP+DIQhC8stqwxFaTF93MVKlSw6ydyuUZ6H3/88fzxzN+PdzMzfvx4e57iWYtnjjZt2gThy5GN3+QPS0spD5/2+DTz4Vnt3HPPtecHj89bf14UlmVyPZ7JNnay7RtmzVoc1pUWwcMPdw7ryF/hM+X8cPz6M9hll1fCtjY2dhT1eVCYv++F+bym/fpzGzXqYd+XL18V9OkzKahb90tzS9K4cZ+wrPvbh3MrVXo9bGcT7VhcKXBN4oCFC5cHzzzTvcD3evU6WDxTpiywMFi8eEU4zvYK62vBsZ94O3YcGfvG0uJp4Xj6TtjWBsRCEodBq1aDzP0ArO/zEsE9Pvlk1+C770aH9Z1nk1XBI490CWrVahZMmDA3mDlzUfDZZ4Mtbp/3kC5P+f+OO74J/vwzb4k3eXjNNe2DK65oF7blvPzs3n182Ba/s3Nh2rSFYV/0WdiGv80PS0S6NAPn33vv9+H7RV694jjyonLlt+y6K1euDvr3nxo89FDn8D3i3fAZ74+ga9dxloYGDbqFbfhVq0vUU8JwF0Gdat++4DJ18ufVV3uH7xBr3HR89dVwi8O77iCd5cu/EHzzzZpn6PjzSF/r1oPtw98+vbSNH3/8247/4gvead4Lbrzx6+Dtt/sGo0fPzk8X6YySKH7SdNttnSz/PNQX2pUvN+6vTZsh9jeQf9HvwPd+/fLKFVKdk8l1J02aZ3lNnj/7bA+rR+QV9ce5hlZHOHfkyFl2T4Th2uPFF3+1+7/ssrYWRlulXGHYsJnhWPdVONbltWfqA/WK+kV5xpc//Qd5X7Pmx1bfSVe0v4kSbf/jx8/NT/ujj3ax+7711k75ac6kjmdaNtlSmGc3D89AjP9ffvmlvUskgueyVC5EFixYEN7vtLD+/mjPU4y1uAWJPqfgKoR0xo+l/rkikesDsX7Jth5lUu7A+yvPivxOWT/wwAPBmDFjYr8mJ959SDJw+XHhhRcWOC6TtHEe7+KJ3kOK+m7hyTZP0ai4Js+VpIvncZ6NP/vss7D/yOvz4knVhjMtI5E7itIfx7NBXIgASyfCBmCWkG3btrXZHGA289dffzULsmSMHTvWZku8Rdiee+5p8WCJjJUls1FYPmE5Fr6k2ewWM6Q4cQ9f8syyKgppic7eJJrlJAyLJz7ZXIPlHGHDMOvQ6BKF8AXYrKWZ6cGqjCUPicBCd++99459K5jWsPzMQT8WVz7NbCLGLBvpBHZfZcbJXztszJZP3g0E94JFLVbZ5D1uMrAGTDSbRT5jwYb1MvfJdTgfcDeBpRobeGFZXphyWF/07NnTLBIzcU9DvcTKjhlHrMmwUgtfzmO/roENGrHSY+aUFQZsojB8I9jICis7rABfe+0121wOy71kFoeZQD2lDgN1F4tBZpB9fcNKkllQ8pAZYJZE4VagSpUqDsvBcCCyeoeFHxbuWGayIeaxxx6bcNaUaxEnFtbhAG5h3tqa42lbudwQTYhEYEmBFS2rOMIHryK1IcDigBU9bHpI/wqMB8RPHxV1w1FY+vfvb/1k9SxckWQCG9Yw5jA2pePvv/82C2BvOVJY/PhIf87KG/LP9xeMVVinMCaTn4yBmYxdmYyVjLf0Y4zxHEc6GNPpi1htkgrGVCz2GzdubN/pe3lOYDzC0t7DShLGez+ecT88W9G3MtaFD/nWx+KuhXRgLU//yYa8pIVNR6OrapYuXVogzXxIC6teos8wqeD5giWbWLeLxLApINabWARffPEh7qijdjMrxWzYfPNNwnq6p1mYzpy5yP6/4YYj7cOGg4Bl9PLlq8KyWxTW3TwrXMCC9oIL1qwA4/uHH57vvvvumnCsXeMmaOLEeWaNvd12ec+UwGsI1rVs6ujBlcIZZ+zvevfmWTKvfiYKwyJ4+vRF7rDD8iyA1/d5ieB47vOkk/YO6zsu0zYJnyl2t7pP3u20U1mLd++9C64ASZenWEdjke3dLGBBevTRFS1eLHaxYn3zzd/sHG/RvOuu5cJn6WoO9zE//vi3hSUiXZqB80nbccfluXPiuDp1Dg77rb3tulj4Y+mLNezSpSvNehaLYdKA9ewuu5Szc6inhFG/yAcseaNgUXvggTuaVTSw+Wjz5gOtXnvXHViFH3PM7mZt64k/b9q0he7nn8fadbguH9J6wAEVzBqY/GMlAtbrlMnttx9rv5Gms846wCx2uQ9PfPzEh2VvPPFh3B+Wy6tX877tLP+iZU/dmjBhnl3bk+qcTK7LionzzjvQ6intC0t6rJ1ff/0ss0CnHVPXuB/CsaDH6p9NYak/H3xwvq0woM5hjU39YsXAiSfuZfkF1DGstEeNmu1atRoUPh+XsfLHKnvWrMW2wgJr719+uSF8Ds+z7k5EfPvHep6VIPRppOmSSw4N03NeOMacbeWRSR3PtGzWF2zOyJjPex2roLGOjo67mcI4yPiJpsHqXFbeMpbyjuN1Dz+uRldZiZJNJuUOPKuzcp2VbKxaYyUhFsE8z6ci3n1IIrDSZnU/K+V4f/ZkkjZc9rGSOtWK6/UNmh/vJKyExCocLYZn+TfeeMN0sHjSteFMy0gUTzbMyBCDlydcieArkRdVwH8ny3gRd5OBUMpyXnwEUWmpdAiwNDjgAY4XRV4io0uOeRFnCS2iHGJtUcj0GhyHAMcLIb57gI6JhsVLMr+z3JeGlAgaLC5GEtG7d29b2hvtYPgbPz9AA8TPOGI/y1OAl1nSgV9R0ocfI5ZRkHc0bAS9VMsnSAtlhUjNC3wUlsbjO5lOBXcr66McsgXx/vfffzeBmfSlA2GAZdUMAri54J7feecdE6yjcH+IIAgGCAwTJ060JerkQ0mGNop4jZiFOE+7QzApKrQBlk6Bn2wB6gvLgnC/gIsaoJwQohFgfJl537i0AR7+krUR8EI1x1P3aQOcQzkxGUYbEmJdQr29/PLLbQKGhyP6kMK8DHl4GGWih/7b7yPBWMhyQSZ7igrCKwIorkpy7V4nUxGU/MFFFg/2iZbuFgbyiPEpfrylf2ASjP6be89k7CJN6cZKjqHP5JmF+6Ffw2USExgIxelAjOYBnCXGTIRzXZZ10if7+kMfyIsGLkdwH8OHyVOWVvr75H+eA7hP7isV3G+iNGcDfTpjJc89IjH4lI5/BFm4sHDPC4g8iFRR9xgIYYh6iF641+B6iFq4L2nXbpiJcIhX3tUFIIIiikcZOHBaWJfXvPzC7NmLLa6o0I1QiQCH7+6xY/Mm1RArEdYRW30YIt9BB+2YL2at7/PiWbUqMNF0332ZdFnjogAxsFu36wuIlPGkylPyvEeP8eYOwvs8539cQXz22SVh31DWyuann8aGbaVg2hAGEZN//nlcAUHWk0maSQvuIIibcvWQD4jUXHfkyFkWRv3huPh0wOabb5pfT/P6xTImNPt0xYuZgLsU6nLFimvqI2kibaQREp1HmeGS5YMP+oX9WC/74NoC8RPBduXKNT5Pue/ofcGqVastXkgUf6bQjnCZcu+9P1iauBYTRZ5EkzrpzskE7x9/v/12sPoN/H/RRYdYfpI3kPdMXMby1LtjIT1MTlD3EbCp99S/aP0A6gyTAl27jnNz5+aNQTvuyP4+5dyuuyZ+D40nUfvnOuXLb2Giva/vUNg6vqFhnG/atKm5jeRZi8lr/i4KlBsuGXgOZFxFtwBvcIDgKDY+kpU78IyFMQHPlmgTuJvF5Qe6TDKoJ+gRuKlL9TyHyM3zOwYYyUiWNuLlmbE410ne5TEM4pmdvIsnmzacqoxE8WSDCth02giJWCIhQiO4YkGG9RCVKRk0LF7kHnvsMbOexKKImah08BLHBpLrkkTXOOCAA8IHsAvMHzYWXViUIYASXliwUscSmg4sEVzjvvvus+MQHqMTAoiHiKsIKVWr4ocxuZ+lRCAC+MmCKHR2lMPixYtTdnrroxyS8emnn5qoT3lQz/jgUwkhEx+f/O0tGqMgoJJP+G3H4hffZImgTjMpg3UwFn1FtbQsLiAY45uaCYpEA0W2IN4w05kIZkTZzCRRHYuSbR2iDBHPmLnl4eDCCy8sVrPLYuOGvgFrXia6eJBK9YCaCVjV0h6ZiKGf4YGWyZ/ohFAUJgtvv/12G1v9hwc2RO8oPFDjdxrBnba4IWCMop/GCjqXGxbOmjUr4QMsYititZ/ITUZhxi7yGZ99zzzzjE084P8/Hdw/vhA9WGZhIcLEMWP2888/b0I8ZcqkLCtVmGyI/zB5XhgKk2ZRvMBvLP5kPYhNr7xyholUl1/eLnx2bGbCkrcYTQQiKGIlVp9RsGytWnXXfMtWDz5yuSZ+awHxG/GRa2JpybX69JkUtumCE1Lr+7woWCtjpcz/qfIiEany1Fu9k4fJQGRE6I4HkXmffbYvIMhGySTNiPnEnwji5roI4YUhmi7ETMCC2MN9IzbjdzkZic4jvQihd9xxXNh/1Sjwwdo6XoxNRaL4M+Xqq6uEfd+prnXrwe7II98P3zV/Cp/58+IDBPrjjy+4SXG6c4oC1uaI2umgXD1YVA8cuPaKjq233jxsM+WtfLKt755k7T8Rha3jxQWeC5hEBm9oVxQYW7H4xGe2f09GiOP9OV40w7iGZxKM+hLtQSJKDonKHVi1jsEbK4Xxdd68eXOrcwipiayKAe2Hd1meBZPBMVh033TTTfkTJMlIlDZWSPJcGW+EgFEe7wxYfheHOsnKQ95jUj23Z9qGk5WRKJ5sUAEbaICIfVhj+l1N0wm7NHiWYVMhsWJO1zjj4WU1nRVSUYleg/9ZwjFixAizasOClaXAyYSGdLCEmWXYqZZVYxnGsgledBHssNiiQSK8IsIyWLIkObqsJFN8fiNURyGc+840f9dHOcRzxBFHmHCJ+OM/LEFBmMACj6UpuGFJBJ0bM3rkHWlPBuVK+fLQkW3dLM5Qp9jEi869qJCXlD2TVvFLdbz1HvmcDuovM9aZwKwqExRYMDIjrY0bxfoGi1pEbCxhcc2DG53CgqiJyMxDKpbKPJgh+CaDh00EbMYg/2nYsKH1fR7GX9xjYD2cS+E4W7Aqpl0jyOcS+hz6lfhVF4TTH/BbJn12pmMXAjMbx2Ah3aBBA5swo+9LBxN8rPqhPDycx/MOLkUoMyYSKVPGGSZg4ydLOTcTK+94SDPPV9mmOREb0/hXUsFK1VtpYh381VdXhM/beSvyLr64jevUaZT9nQgsSXGBgWWlB9Hzzz+nuEMPXVsUxgr87LMPMPEYK9X+/ae5c8890MK+//5vE/4QzuJdcazv86JQtbFAxroVlxpRuFfcfKQiWZ6S5+Q9FqhYq0bhO6KetyCOutWAvOejMmE/s7n9H08mafbXJ27yIArnIr5vtVXR2yciadTKHLgu1t1YAsdD2khjovOwAqYcmTSJhzzLRnBNFH+mMPnD5oNDhtQ3lxvvvvuHu/POby3tuKQZN+5fc5cRJdU5ucLXl1TQVrlnPvwdv6rD1x02I80kvnhStf9EFLaOFyeYtObdkbE2FzB+42bLv7vwPMi7Z/zqNMZiBGxWaa/vd2WRe+LLHUNGDBvRHrwexKpnXGJg4MUzWCKwrGbSI9nm7DwLopPVq1fP3jkyIT5tGK9gIINBX3QlOX9jdIq4HX132FDwDIyBXTq9INM2HJ8PoviywQVsGi1CLKIsFtVYDKXqqGnwbdu2NSEtW+swP3PEYLCuZo6SXcO7S2GpCJZT+McsDLyoIjywnDiTl0OWMNPR4FeJTqdPnz62vJjBsrAvpbgoQdzAujs6S4WgzYwhM4mp8nd9lEMyqF/xVmo33nijzSayxASBJ1WnzP2Sd8kGDo8/rjh08LmCGU4+DAJFhcGBNsDS+Hhf4VhJ8ns6Vwi+DqVyN+ShzvGgwCAmP3NiQ0LfiZsHVsl4/8aFgf7b7yNBv8WkWaqHVcZVxk18HvsPgrd/cEbw5KGXB7yoEE54pm4/MoHxiPiSue7BMh0f0bj8iY5R9AtFtYrgoZ9JSCaRo4Kvt2RmMhPXZMnIduziuYbVZYyJ2Yq5THgn8pNN/jHJ792B0KfRt5FvUcEbyxlclWULacb3dmHS7KFsKWOtcNlwIDQtWbLCfC7j6gJLyDFj/jVB6Ywz9nMdO17lTj65Ukq/27hgQKCNgnUtQiJWx/HQXGvV2sdE2y++GBbW1R1NRKtd+4Cwfc13TZv+FT4X7b6WYLW+z4uCiIs7Ayyn//hjciw0DwRiBNVkpMpT8px4u3QZk++qw4MAiIUwFuSHHLJT+Cw9wcrLg0sFxF/8Wyeycs0kzVyfsu/Xb8pa90DcuLfIxKo3FaR56NAZa4mZ3BPW0vitjorniO1Yy9NNJTrPu8DBP3NU9OfvTp0KxpWKZOnyzJ6dZ70ehWssW5ZnxYd7DeJA5H/xxdPdu++ea36jqfuUOUI79SxKqnM86a6bDH4vV24Lqy+pQCTGLUelStvbh79/++0fE9091C0mCE48cU+rI9mSqv0nIts6Xtg8WpesXr3a9AZWhuYCLG7RBLAMBeJmsj7erSYW2UyW415ClHziy516FS1vD8ckWxnPMzCrLU899dQCz8cenmtZXY+RVtT1HteJd30aJT5tCMKs8Of9HBcdHvxzYwiJpXJhNaRcwj0xyYP1eioybcPx+SCKL+tdwKYS8YlCxUPcZfMpKk48CKPxywMQvlgiQWPFhzYdPccQ7l0P4F4k+gLI4ECD48W4MNBxxKc902vwIsg94n4CYY4Zo0RgjRpv2RwF8Y0l6MmEigEDBhToEHnh5mUyaqmKCE4+cS8cz8s890an5P0OQyLrWKCM2HSAJca4yfCQFyw7oWONkutyWB+Qh4j9iBoe6hXWiSzJ8aIPnSfWgogaHmZOyVcE8WQdPGWcKG+LC9QRNh71aUQYQQxBfPM+1osK5Y8FPAKPF5P8dfA7Hi80I+h4SBcTOTfccINZhkdJJowB5cIkC+ez6oP7pO4zSCMoCpErUvXjflPHRFYDtIH4cQYIjxdwWT7HgyobOiZ64KVOI/ymg+vhNoS+mr95QOaDz/gnn3zS9qZIRbyVRiroPxDd58yZEwvJg/vDhVinTp3swZuJXtLA5CuCP36Yi2qFRF9Bn0HfERV3ySf6cDZ6ifbZmY5d9Cep+nN8a/N8Qt9Dv0Me0+el2k+AvokNJ+PjRWDGHRIbSALLJ7Hgufbaay2fsM4hz/CzjgUN+PTF159UJEozFt08O6SDsmXydkNa8RdXsIhMtKQ+nr322tbEonnzcLc136yJsfLca6/tzD0Aril+/XWi/Q/xlqt8R0hlMz4E3HgREAGKTf+8aEj4G2/85h577GcTvPgQX7ylKWIxolQyURirVzaOQ6isXj3PtR9CKcIu94Hf3kSsr/PIryee6Gr36vOidm2ss3Z199zzvfvyy+G26eO33452n3022ETxZKTKU/KHTQwRFevX/zbsc8ZbvM2aDbDNBilH0n7DDUeFz9IjTez0jB492wTgmjUrxULYjHO4u+WWThYHpEsz169bt6qJlF99NTw/jaQZUfPyyw8zv8mAG4fCkEzMZDNNXLm8/XZf9+yzv1g5UBcbNOhu94yf8sTn7Wj+nl98sae79dZOrlevSXZeo0Y9wncYNu7PrP9PJbJSN8hf2kc45ITPhNNskoEJBQR2RFast315MBxQppUr72h5mWhSB1KdA5lc18OEh//OsUxUsKqA/InifWID5frNN6PCd7OqtjIBIf2mm44K6924cKxb466PDTaZ3Dn//IMsnUAdJb8Yg6Mk6m9Y5ZCo/SMwk4b4upRNHc8mj9YF3D+rm3kP9s9g/M9qKIwFmABPBu+M8eMrYWyYzPOGj49nDVbM8R7pn2f4n32q0AcY94Hx2ruAkNFNySLTcuc5GN0LY8CoboOugF6TyEWIdx+SSCtDo2BVJcYNvNP653jc8bESkGfOTNMGGJfyHOfd7tE+OA9DwMIaYRYF3kc++ugjuw+gjbDxOs/j3ptApm04m3wQxZNNw8reMPZ3ocBHYiZR0LFToahsbBCEBSsiIC+q/E9loUFgTeSPpSJxLI2Vho5oy6wIL5DMMD377LP20ox7Dl6wqdxnn322xYE1EnEgJhI/L3VYl+FXiMYNVHL8h+K6hAaBQIabAV7WWNpNOmi4xMW5dAikG6siZkUzuUYULNt4GcZndyIBm/hbt25t90383K/PJ59WBjQ2s8MKC4EEyys6J44nbwgnj9nYC1GBl1heutl9lQZOGlhqzhJhrsOsL4MjLkbYvAmf5FiWYb3FvZAeXmJJL79zHV6eWWKO4I0FISIM904HgbuSqGV8tnlUGDKtg8lAuCBNdMo+TcwystQf8YYHCu4BUYAw6peHOoMLHPKPeoqYzT3iniU6+wl0togmlA91jjylfDmOPF2XZJtHiFlMuCAiUXYI96SVJUmprPIYQBGa2rZtaz5csY7Guh0xnPqL+IILEuoq4VipU4cRrhgov/zyS6t/t956a74rF18+CNMII8SL6E0cPPT5gYb8RXTBVyxCNXWduMhf4iJ+0kXdR5hCJOdhgLhJByJQsgkHUbrJpv3QBhhHPv74YxP7qIeMX/SdHuoZ4h5tiT6Hj+8fWrZsaX0zdZ3z6F/pjxB2mzRpYnUadxfUa+o+vzNxiGUx0HczFjJ2Mm7Qzui7U/UztCesuJkMxgef/xAH/TbtMSq2k1baNO2J9sPDIP0Dx5DmVDCu0Z+SB1g8e+g7mRhlHImmgX0LmEhkTwfuJRF+fCTf6Rfodxi34sdHxiasp8m/5557zvIDa2/65HvuuSd82T44FmPmY1eqsZK/6WO4FvfB+MxEA+69eBZgkjPRZDTxcD3ylWcdxnKOp06RPywx9a7WsBin7BmLiJfjqTukkz0poukjHvKAvKDu8RsT0dE84sWIsYw0/+9//8tPMw/7nI/bGiZF4s8jXl+/+I08Q1TPxFK9JJNN3zBhwjwTG9u0GWKCIj5gN9ts07DdjQ7LiE0AV4Tj47YmgCLuIJY980yPsA8p684//8AwLzczAZzN4tigD7+7iFWDB88wC0eEO9rVlCkLzPr47ruPD5/V8sQ2LBsbN+4TjsGzTFTDcpf03Hzz0WF72Nzife+9fiaKsfkjcSEaRX39IiB9++0os3rGBUEiEBkRv7F+9eeyMSRWlYhhXmSOZ32dN3XqAvfWW33D9rTU7nPLLTcL+6ytTJTs0WOCe/XVPuEHF0abhc9/J9tGfQh4iMOUEX6dKR8EVeJIlaccg/UpZc5xbE6IuHv33dXC624atpcydl18JfM7eTp06MywjeO+5xQTIYF7adlykImAbFxJmadLM7CZJGIj9zt69ByrG8RDnbj00kPt+kyMvP/+n+Ez6d9mWcwHQZNrIXzzSEQ+li27hR3TvPmAsB9Y6ipV2i6sI4stLfGTBFikI+BS50jX66//Fo6FU9zDD1c338m//z7ZrhN/HumhDEkn13n//X4OAfa666q6M87YP4xv7XKgnbBZIZtoIpDSfqi7+HlONOmBqM1kx333/RD2+0PMQp/JIlzOUBcQ///8c2r4TN/bypS61bbtUHfhhQebIN29+3h3+un7W/lFITzROZQReZjJdck3Pxnh2zJ9A/WMzT+9yxfylTygzc6Zs9Tyok2boVZO5JUXlxGPqYf0F3lj3QK79n33nRCOgztbe0aQZlLlxx/HWFsi/ygboG+K9jdXXHF4OO5PXqv9U+dJD/6/qRu77sq7+nZ2P5nWccgkj5L1O8nIpn/m3YKxlfcKnsWwxuSdhPEVkYzyiML46Z+1eI7gGYuPf9ZjHOddiv2DeH7r0KFDWDcW2QbJPBdG4fkJ61DGb57rePbhXZMVwhLTNjzZ1KNMy536hEiNRoO2w/Mt+gzPspybSCPB6IF3YcTYaH3kWRGRmvrL8170GZrneyym0TjQtTKtkzybovVgSMF5HM/7DdfJhYuNbHUJdC00GFYIojPgRg+XoFExPdM2nE3bFLkj2zJPRZkgfso1S6gMRYyiUNBYEa95eSMNfKeT9y9LiNu89CLcUlGBl8pcCoXZXgMRgo6EBrKuByTyA4GbtCAqREVHZpuY4aNzIr/4TsNF4It2iJlAR4qYQfy+LKKsj3JYV3WQ+kVnDTyQJPOZ7PMayOvi+MKebR5xLMuGKDPKKtdlFsXXR/5PlM8M7kxSIaYw2FPfUpVHKihT6rq/H74zMBcmLlF6WFd9DO2LeJP53d9YQRzmwZoHzagwvj6JjpGJ+rdcjV2+L/UTD3xn3GT8TRYXx3BN6kW0f0yWVvDHQfyYny2FSbOH/pX9SRCvky2D3ZhYV30DIHJj1ciGZ1EQyBDQEIigVavBrkWLgeHn4vwwXBz4v8FbLyKGIlDyG2Jb9JENK0ssKBEFOQ6iVq/cJiI7olj0vHhWrFhtv0evz71wPuJyMtbXeYhy+AHGwjQK52Adj+gWnzeJyCRPgd+JlzIjbxNBmijrVHFQPvG/ZZJmfwxWttSLaJkWBdxAkN5ovkch/5kE8df1x6U7D3x+lC27+VrllI508fvy8HGTr4i+Pl/4nXPnzVuTdn7jb+LmvHiSnRMl3XURpq+5pr1Zznvr/UR1hk0Ur7iiXfhMfK5NCKTLJ65DXNQRJjf4Pxt8f0ObyaT9JyNdHYd0eZQt2fbP0fE22XttNkTjy+T9kHGf904EQr2XFB+KUo8yKXf/PJquzvEchn5UlLqRbdr88d4QLFcU5tnJa04YSCRLS/T+UuVntvkgik5hyjwZyZ8eijk0Xl7kfKXke6LKR+XFCopPti+emZLpNZg5w33I+phNJT+Y0SVNpC8KaSTc5xffabzJOsxU0IFwnWhZJGJ9lEOuIX+4Nz6pBguf13w2lg6QsqRMuad1XWa+PqbLZ/D1Ld1xyaB8ovfD98LGJURRoV8sbeI1VK9e3dxbYFGxofD9drr+rahjl+9LfT/Dd8bbVHFxjK8X0f4xVRr8cXzix/xsKUyaPaw6wIqbMhZFA6EnXrwGwhKJcwhTuIXgE/87IhAfRCEscxGywmItAL95sQzBKF404niEpfjz4kE0jr8+31OJ0LC+zuMeE4l9nEPeJcqbRGSSp0A+8nsy8Rr4LV0ciX7LJM3+GOIvrBCYCCyC4/M9CukhXfH1Md154PMjUTmlI138vjx83PwfzRf+9m0pmmeEJRKvIdk5UQhLdd0o/MaxqeoMZJJPPi7Slq14Db6/oTwzaf/JSFfHIZs8WhdEx9t077WZEI0vk/dD/7yh95KSTbbl7p9H09U53oGLWjeyTZs/PpfidWHxGkCqtGTahrPNB1G8KLEW2KkgPZip48/m9ddfXycDQSbXwLKTpQ4sM2JpEEt8cbFRWgam9VEOUBzrYHGjJOcR7YZl6yyP935fhVifqI/JPVjq4hKFto1boeLE+hq7NjZwl4KrkltvvdWstUsD2fQNZco8E/tLCCFEtgRBg9hfmaFnN5ELVI9yj/K09JHLMt/oBGyW34wePdqWsOIzEh/N+LbN5exKptdgScgjjzxifqjxY/XSSy+Zf6zSwPooB486wfSU1DxieQ/+afHP26BBg3z/VNyPEOsL9THrBpYC4i8ZH/TsLVEcWJ9j18YEG2n379/ffDOyvLO0sCH7BlwVTJ68wD39dDfzFfzWW2ebr+BU1phCiOIHrjLwMX7nnd+an/OnnqplfrzjLaZxUYJ/6Ntv/yZ8Jq4VPhNXC5+Jtw77odgBogB6dhO5QPUo9yhPSx+5LPONUsDGfxQ+bTy59m2TzTU4FkuzTJffbiysj3LwqBNMT0nNI+/vysPyuqL6pBMiW9THlB7W59glSj4bsm9AwPY+dz2pfOEKIYon3k+1B+EaVxvxArb3I+3BtUcyf9JCz24iN6ge5R7laekjl2W+UboQEaUL1cH0KI+EKDxqP0KIRKhvEEKI4on6Z5ELVI9yj/K09JHLMi89JsFCCCGEEEIIIYQQQgghShQSsIUQQgghhBBCCCGEEEIUSyRgCyGEEEIIIYQQQgghhCiWSMAWQgghhBBCCCGEEEIIUSyRgC2EEEIIIYQQQgghhBCiWCIBWwghhBBCCCGEEEIIIUSxRAK2EEIIIYQQQgghhBBCiGKJBGwhREasXr3a/fvvv/bhbwiCwK1YscL+9kyfPt316dPHLVmyJBaSO1auXOl69erlxo4dGwtJDsf8+eefds66hnwYPny4++uvv2IhGz/c87x589zy5ctjIWJjwpcvH/72YfHtvaSwbNkyN2vWrNg3kQ3kG/knSjbz5y9zXbqMdatW5bXnKDTxBQuWh+Nl3tgez8KFy8MxPf1YmulxwLVWr147Lakg7j59/gmfMxbFQkQ8y5atcr/8MsFNm7YwFlK8UZkKIYQQIlMkYAshUjJ+/Hh32223uXr16rkmTZrY56mnnnL/93//57788kv3448/xo7Mo3nz5u68885zgwcPjoXkhl9++cVdeuml7qSTTnJTp06NhSYGseWNN95wd955p5s4cWIsdG0mTJjgmjVr5i688EJL8y233OJuv/32/M/111/vateubUJ4MoYOHepuvvlmd+ihh5qIXRr47bffXK1atdz222/vdtppJ3frrbeGL8vTYr+WXhB3u3fv7h566CGrN4899phbtGjtl/L58+e7L774wl155ZVWz3r27Glhffv2dffee6+dS52kbpKvI0eOdM8995w7++yz3VVXXWX1NhVMMtWvX9/ieeaZZ9yQIUPyJ53SMXPmTPfCCy+4Cy64wL311lvu/fffd/fff7976aWX3E8//eRatGgRO7LkQP61bt3alStXLhYismHLLbe0upiu3onizYgRs9ySJSvcppuWiYWsAcHz7LNbujFj/o2F5DFp0vxwHOzgypd/0ZUt+7y76aaOYR+xOPbrGjI9DhYtWhE+Jwx01177ZdhXLY2FZsbgwdPDsbp1eP6AWIjwMBnQqdOosN9v4e6553s3b17JmHRSmQohhBAiY4IikoMohCgSqoPpKUwerQ7fhj777LPguOOOC3r27Gnfo/zzzz9BnTp1gsaNG8dC8pg7d27Qv3//YMWKFbGQ3EE6uBf+T8e0adOCwYMHF0j3ypUrLSzK4sWLg9tuuy2oXbt2MGvWrFhoHpzbpUuX4JtvvomF5DFlypRgxowZsW9BMGLEiKBq1apBy5YtYyHFnzFjxgQLFiyIfcucYcOGBVdeeWXQrl27oFu3bsFzzz0XlC9fPrjsssuCOXPmxI7auMi2/VD3X3rpJTuP/5O1BdpOjx49Yt/yGD58eFClSpWgQYMGBeou7erSSy+1OF977bW12mOUn376ycqEOkndzJTevXsHRx11VNCiRYtg1apVsdA8fHtv1KhRLKRkQH3973//u076o9LEwoULg8cff9zyU6yhMGPr4sUrglGjZse+rR/oLj788M9g7Nh/YyFrmDp1QXDRRZ+H/cV7YX+xZgycM2dJ8Mwz3YOBA6eF492i4KOP/goqVPhv8MgjXYJly1bGjsr8OJg2bWHwww9/B3XrfhmOuS3CMXdx7JfMWLFiVfh8MTXsD5fGQrJjypQFlsbiyJgxc8IxeVnsW+Fp2XLQWmVZnClqmZZ0clXuYm0K0z8LEY/qUe5RnpY+clnmssAWQiQEi+enn37aLD9r1KjhypQpaLW1xx57uBdffDH2bQ3bbbedO/LII91mm20WC8kd5cuXd5UrV459S82uu+7qDj/88ALpxhq7a9eusW/p4VzuBQtET9hvuo4dO7o5c+bEQpyrUKGC23nnnWPfij9YqLdr1y5rtwDc+++//27W7VjDn3LKKe7xxx93zz77rMXXr1+/2JGlG+o+KwXg+eefd23btrW8i2eXXXZxm266aexbHtS5TTbZxMKjdXeLLbZwe+21l6tZs6b75ptv3JQpU2K/FATXPZ06dXJ7772322233cxCPhNGjx5tltYXX3yxWYaThii+vW+99dYJ76U4gjX5K6+84urUqbNO+qPSBNbrV1xxheUnFv6i8GBx2r9/6lVEuWbu3KXm3mP33cvHQvLAjcennw50Z565fyxkDVOnLnC33XasO+KIXcPxray77rqq7uabj3YDB04zdyOeTI+DXXct52rX3j/8HBALyY7NNtskHJN3C58z1ozJmUK31bHjyHDszr17s6KC24927YbZ/0Vln322j/1VMihKmZZ0clnuQgghRGlAArYQYi1mzJjhGjdubMI1n2QceOCB7qijjsrYPUFRQUguW7Zs7Ft24Mrh1VdfNZ++2YAAePrpp8e+5Qn78W4UvOBYEkB8bN++vbm6yBZcZCCgMjngQWTFVUWVKlWs3og14HbjtNNOM5GfelNUdthhB3PXwkTBDz/8EAstCK57EMarV68eC0nPqlWrrE7jxuSiiy5KKvbS3vfZZx+3dGl2y/43FEw04eZm3333jYWIonDQQQfZJOJ3330XCxHZgp/fF174NexL18+Y6Rk9erarXHnHcAwtOE59991od/DBO4X995o+3XPooTub4OxBaNxmmy1c1aq7hfVgi1ho5sdtaHCT0qLFwNi34gPCevv2w8IxeXwsRJQGVO5CCCFE9pQJimhKhXhRUqyxxMaJ6mB6ss0jhB+sFvF/i//rTMH6Ewvnpk2bmniH4OHBwvPTTz8NX2y3Mb/aBx98cPiCW9V+w1IaoXjSpEnugw8+MKGa47H2fPLJJ83yFPBlixXg//73P7MebtiwoZs7d66777773DXXXJNvKY0Q99VXX7nvv/8+/1j8EXP9c845x5188sl2zXPPPdfSjOUpaWrVqpXbcccdLQ7A5+uCBQvsWEQ+/BY3aNDA4q9bt66rWLGiWatuvvnmdn3CiJtjevToYT618WnMfXiw3MZPOH6PsaI944wzLP1YcRMv1rVdunSxON58803zv02ecH3y9YQTTrBJBayeETHvuOMOOz+Ta2BFSZk2atTIROjLL7/crHSvvfZaK5fCQrngI/2dd95xxxxzTCx046EwfQybjVKnjj76aHfDDTdYGH6EDznkEPsbqG8IwtFJIl/HL7nkEvM176GeMgFDfXv00UetPnz44YcmVnvYsPS///2vO/PMM91HH32UsE4ngnp+9dVXu913393qGKsoksEkBgK3z5NBgwZZu+Jv0n7++eeb73jqI77qv/76a5s02mqrrcxvOhMdgNBOG+Ga+Num7XKP+Kru1q2bpf2www7Lb//8xqTL559/bj7GO3fubHWcOkebi4eNB2mP+Ay/7rrrYqHONh1lAof+hTThH5y+hz7A9zOp+qHFixebL/BRo0ZZGUTZdtttrR/geNKHT/z4Y7CkP/HEE62Ncm3y7YADDjD/5kzOET/91rhx42zijLTxneNpv//5z38snp9//tkm5eg3OJd+Kj4Moucy+URfRt4zQUm+UTdJA30+m+9yzwMHDrT7YJVF/GQG+cK+B9QvJlRKO9n0DUOGzAjHoZ/DPn5U2OceEZbFLmGbqBT26XuGcTj3668T3GefDTGxecstN3MPPniiO/XUfS3+YcNmhm3zL1et2p7huLONe+CBH8O6XSWstye4v/+e4z75ZEDYbrcK6/1it/32W7n69Y8L233emEDcH3/cP6xP+7lKlda07eHDZ7lOnUaGcZ3o+vad7O6881vXps1l4biduL/Ad3XDht3DZ4JjwjpbIRa6Npkc16rVYBOTW7W6JD+d6Vi9Oi8fGjfuE45p+4f3f3h+GHlDPtaosXc4NvYIx8a/w7HxuHDcOyFsc5uGY/ewcEztFo6xy8J+oarl4ZVXHh6Of9uE7WNJ2JcMDMfLieF4uSCMez87r0KFNekaPXqOWaojzI8fP9dE/6pV80T/ww7bJbzn5eH9DLJrnXfegeG4/72V7/PP/ycsy03N8puNCvl74MDpYfuqEravQ8P+IQjH5H7hmNzDJgEuv/wwSxP1g2tlkrbBg2eEY0t/V778lmG/8a+lrW3boSnL0oPlb8uWg+ye8I2OlT517txz81a6paqXMGHC3LXumwkN6tqoUbPt/vbdd3uzuMfCGr/cP/74t5s8eUH4LFbZVa5cYa0y9eT5Sh9g7YZ6XanS9nZt8sfDvftjWE2A5T/5yiQKdYN8//33yWGfvLmVPXlz001Hxc5ODMfRRtnwtEGDWuFzWN/wOWxKON5eYPlJXn344V/hWLjKDR06M+xX93a33nqMlcnixSvC/JoYpmu622OPbcNx/JAwXzdxf/011cpw6603s7LdfPNNU5Z7qvtKlz6xhsI8uwkRj+pR7lGelj5yWuZhREUiB1EIUSRUB9OTTR7hWxf/u5zTuXPnWGh68C+N7+s77rhjLd+7+E3Ff+7YsWPt+5w5c8xnco0aNYIXX3wxGD9+fH5Y8+bN7ZilS5cG99xzT1C/fv1gyZIlFuZ9TXONN99809J33XXXWVpffvllSwPn/fLLLxZX1K81//M93odvMh/Y+Hx9//331/K3jZ/r+PvzcT/88MNB06ZNg8mTJwdNmjQJdtllF/NH7MEv90MPPWT/++/kC/eAT22uVbdu3aBmzZrBe++9FzRr1sx8kH/xxRfBxx9/HFSsWNGuQbrIs2yvMW/ePAsjD+LvtyhQDvXq1bM82xgpTB9DWXqf6N27dw8qVapk5eDLBfg9vn75Op6onhJGmbVv397SxP9RhgwZErzwwgvB/Pnzk/p1TwR+uIkv2tYygfu666678svd1zXi8WFTp04Nzj333OCRRx4p4IeaNNJmfZ2M97HMd+I59dRTgwkTJljfQr3GPzi+w1u3bm3tBD/9iSBf8QMen7/kI/0bcQLXueWWW/Lrb3w/RBi/3X///cGyZXl+Sn2fwYe/YdWqVeY73PcLHPvKK6/k578vVx8vefHss8+u1ZcA7Yl+xMM9UD5Rf+m+zKL3R1jlypWDgQMHxkLWPhf//ZQZ99SwYUPrLzt06GB1xfv1pz+hvvbr18++RyEe+qFEv5VGyNtswC8x/onxU+zBP3Xr1oPtw998WrUaFPbtrwQ//vh32NfPDfv//mG+vxo8+miXoE2bIcGtt3YKy/G7cKxZEI4JncN6llcPFy5cbv6oo76lZ85cFLz6au8C/qg57uWXe4VtNq+d9uw50dKVzG/y0qUrg7fe6huOS3/Y38nI9DjuP1sf2OTD++/3C9v1C/n5F80b8oHfCWvS5E/Lv59+ynvmgES+obn/hx7qnJ8P/F+nzmfhePlV2Dfl+WQeNmymhXn/4fj8vuyytuHzy0fh88uvwV9/TQ3H6GEWd716HYLPPx8SPPHEz8Gll7Y1f9sdOoywe/W+t/v2/SdsX68HffpMsu/QqFGPtfIjk7RRbtdc0z7/GML5PVMf2O3bD7P65Pn557H539PVS+pVsvuePn1R2B8ODPbb703zbx2lS5cxdj4kKlMgH+6445vgzz+n2Hf8Y3OfV1zRLv/eu3cfH44FfcyHtv9OvlL2pJV8fu213vY3UI4cnwrqLHmKj/aaNT+2etysWf/wOayJhRPH9dd/ZX7jgXZUv/63Vi6+DLhegwbdwvGhUzg+rBnzmjcfsFYZJyr3VPe1ZEnq9ImCZNs/C5EI1aPcozwtfeSyzOVCRAhRgKVLl7pp06bZ38ncdWBZiG9fLA6xIMUSEr+o+ItO5HKkQ4cOFi/HA5Z7WCFiuYx1ZKVKlcz6ePLkybbkH7AExPpwzJgxZlUYBSvPe+65xyyL3333XbN05hr//IOF05ZmaegtPTMF/9hvv/22WbDywd8v1tvZgKuCG2+80axK8SWMexUsVD1YV5Mu74KD/7FKxVqc+yTvOIe8OPXUU82qGZ/TWOPiEgJrW66BGwnyzF+DYzyprjFs2DALyyVYxuJz+eabbzYrT7E2WLq+8MILtjoB6/f4+pwttB2sc7FG9v6Iw/Hc4qdNZOvvGYtjwBofq+RM4LqsEMB62pc7de3uu+82dyRY6QJx4pakR48e+dcBLJhZoeH7hN9++83aLiszgDhr165t1thYBtO30K5nzZplVv5YVuOWBYv0RGDdvN9++1kfEg9tyVtb08fRXvGXjXV2fD9EOoiHtFPXk4EbIdzF+PzD0jqRJbt3NUQZYeXM8VHf8aSBvCCueKJuihK5LCKM+yEf4/HH9+/f391+++22GoBVHhw7duxYcw1CmmHPPfe0+ycf4iGc1RpDhw6NhYiiMm3aQvfzz2PNarVMGaxUnFkSY7389dcjw3ZVLqwP+4Z9/w5mZX3JJYe6Dz44LxyvsLxfZhas3q9zuXKbh21yzconGDlytjvwwB3NShZ4jcCC8/jj97C408H5jz/+s3vttd7ujju+NetvrGPjyfS4woL1+Cmn7BO2xzWW/4RVr75XODaWs/zBEpawiy8+JBwbdzPr21SQD1Wq7JKfD/xfq9Y+4Xg53PIVOnQYET6/rAz7qrx2tcMOW4V98F5mRYu/b65D2XkXLeT/c8+d5tq1u8x8go8d+69ZR/v8pwyxkh8zJrUv+XRp+/ffpWEf/Jvdqz+GNGLZnClYEI8fP9esleG44/Zwe++d12+lq5dYCie77112Kev+85/9rKy6dh1ndQ6WL19llv9cBxKVKZDn5BFuaIBrHX10RbPgwmqceoX7jbPPPsCskgE/2sT79dcjzOc7VvPjxs21sgPagLeaTwb3UaPGXmGZVjRLZyzN69U7MqxHt7hjj93drKYpe28FTntjtQPW5q1aDbL7JJ+wuo4nUVg86e5ryZIVSdNHuBBCCLGxIwFbCFEAXhC82IEgnAjcICCiVqtWzQSzyy67LKFQ5MG1QTyIsYhgLH0HBFlcZ5x33nkmFOEeI5nfYC96AQIT1+/du3fS9GYCm94hvuGegQ+bV+JOIRsxkHSRf1EWLlxo/3NPf/zxh328SM4HweqJJ56wY4B8SbX5XqJr+PzN9Bq5pGfPniaoIgqKxFBeuGuhDJhwwe1FojaRKd51DW2EsgZcbsyePTvriRtAvATqT7zLi2QwGYIrjfhJriOOOML6BdxZMGkFXoz1G6gitnP+cccdZ9+B9ou7jpdffjm/3jJRhisi794GVyi0Dz85k4pk/thx74GLFcqEdDD5g7jOhBgTa8n6IfqpdGWGEM75mUKfU6dOHdvk06cX0Zg85bdcQ9xMlOGyJIqfdKBvoR61adPGBHvfN0dB8CZ9uJ0RuQGBc8SIWe6DD/qF9b6XfT7/fIgJggiYuBBAwMOfNOIirh48CJYIetdc0942g1uyZKUJXlH3IWwYyQaLHtwbzJu31J18cmZ1FbcEr712ZhjP7ebC4d13/zBhM55Mj1tXkBdxQ6PlXTLIqz/+mBx+puTnOx9E1ieeWOOWKFEcCOb//rskbCN5m1QiTpPnuI3ATUSUu+8+PmxfF1n6EIvbtBkStq/5sV8Tk0naRo6cZQI9rjWi7LnnmuejdLCp53PP/eLuvfcHq4fUM1yxQCb1MtV9I/IixH7//d8mhgOuQwhnEiAZ5GmPHriZ2ym/rvM/rm4+++wSmxT455/55l6D9Pi0IS4jMiOqL1u20q6DG46bbvraXHhQN5gIygTKl/N32mnN+EbZkS7yKAouUhD2EeoRzotCJvcFidInhBBClAYkYAshCoBFoBc4EJQQeRLhNy7kEy+oxoOohYUzHyDO6dOnm/Uw1n4ewvHri8hXtWrVhL5tE4HPV0S9XLP//vuHL2Z5lkJFZfHixSYO4cPai+TRD+FFZX1cIwoC499//20TCOnqQGmHiZC77rrL1a9f3yyXi7qpI6LwoYceGr7Qf2YW3fiHxkI5kfUtIMZieUs5+c9ZZ51lojd1nPaDFTL+4jOBepZI4GRCiVUZCOG+70CMRTT+9ttvbdLKr/BgogZIG+Iqm0Qmqrf4qs81TOq89957ZoXMSofoypHC9kPZQt+JBTv9LBNBQL2gHP0kYq5glQyW8PQR8XHzHf/l7BOAwM2KD2+hLtY9CGOIYvhsfvTRGgU+t99+7FqCWRR8Ob/yyhlu1123cZdf3s7VqtXM/fTT2HyL2tmzF9v/XtTEGhX/vS1bDgrbf0tXu3be56GHOptgecstHd1TT3XLt1qNguh4553Hu2rV9jDL3WRkelwiEG5vv/2bsH96Jv9DOmfPTr76obDgr5i8R7CNz3c+XshF/J84cZ59gG5t+vSFZgWbiViM5S3W6Y899pNZXWNBv9deqc/LJG3EhZVyqvoBvXpNKpCffPBBDldfXcU988yprnXrwe7II9+3NM6cmVdnilIvgUcCfF9Pnjzf9emTt/qmX78pJsamApF+xoxFVheSMWvWYlt1gB/4+LThIxxxF//yH3xwvonXxxzTxN1ww9d2T0B5cL/RPHn22dRjMtfEf3k8+NfeY4/yJuj7dldYMrmvZKzPtiOEEEJsKCRgCyHWArEJK+u//vrLNkksKghQCHdYNbMpIW4u2KQMdwre/QBCGgIf1qAPPPBAVoI0G8ux/D1T9weZgsUnAvvq1aszFvaSQfqwHkUoirdyzUX8sD6u4WECArENFzDZuqworVDXqeMIuo8//ri1r8KCSIxVN6462CiRiYRUExTUDQRsXHL4D5ugYt2MiwzOZXM/yjUV1CMEXl/mCKJREMYRRLHS9UIp/2PRzP3ywY0Fm1v6SQ/SxiQUrizi3atwLW/JnUu4Jn0SeUd7YcNHBHw+uMMpTD9UGHCZwmaJLVu2NPEYy2c2r8w1bKxJ/8vmjWxGG4Xv9MVsZMkmkZm0Z7X53IE1JeKot1KNgnV1OlEMi+uvvrrCde5c175ffHEb16nTKPsbwS1qybrJJmXM5ca55x5o1qj+g6iIIIl7BDbh47hEIKBxvegmgonI9Lh4sOhFHO3W7fr8T8OGp6QVSwsD1yLvsWRms8Eo5Dl5D2xoiJsILJX//HOqufbANUWjRqeaC4l04PrhxRd/DdvXiWH72jdsO+lfvTJNG+WL6JkKLOOj+cnnpJPyVnhgNc1GoEOG1Ld7xGqezTxxT1LUegm4G2FzRuojceH2wrsoSQZ1jzzCTYq/Tw/fsdBmNQJCNxbL8axYsdrEZOJgU0jcazRuXNvK7dprvzQRG8vzd945p0CesEliKmhDXJeNLqMwjDFJgZuYTMo2FZncVzLWZ9sRQgghNhQSsIUQa4FvWgQP/CZjNektKQsLwikiM5aniGX4d8bfdNTKr1evXiZs4d/WC1uZwvJ7BDHiXhfgkxaL06KAoIfoiFg0cODAWGge+MlGRCsq6+MagMj56aefhi+D1+ZPQADuUorq33ljh4kh3GNghYyYWFhoI/iIxicxwvTxxx9foCziQUTGj/Qpp5yS/0G0xmIb1xm0d9x6tG3bNnxJTmz5RjjuNRCUDz/8cLuXX3/9tcBkCb/hyuekk04ykdiDKEu7/+STT0xsj7qxIG2sdmjfvr1NikT7G1xV9O3bN/Ytc7Dmpl/wLnySwf2TNvo6/HLjb5uVBYXph6Jg4c21WamSCu4dAZs8efbZZy0tqcqxKGDZzaRHkyZNzOId5s2bZ2VO3cjENQv3RL6uq762NIKYBvjQjQp2/N2p08iUohViHJa4CGdnnLGf69jxKnMNMmjQdBM+hw6dYYK0B5ELUS/euvPKKw83wfLGG4+y3zkuEXmTV5uE7SP1xE6mx8WDSIjwjV9k/8HaGN/EuaZs2c3D8XL7cLwcFo6XeatCPOQf4jFQDoiHb755lvlqPvXUfcz/eDorapg3b5lZOx922Bpf1pmQSdr4HcGzb99/wvyO/ZgA3ExE85MPvqcBtxfUEyz5X3zxdPfuu+eaP2csoItSLz3eN3a3buPCvn+AWbP7yZRk4GqF47p0GZNfBp4//5ziWFWw887lzG0JLkKibjvIh2+/HWW+pH/77R8Tu4kPkR7f3KwywI0J+YaIH82TQw5J7gYPcNVSrdqeFm/UtzurFRD5TzxxT7uWB8tnxOgo5J13A5KITO4rGeuz7QghhBAbCgnYQoi18O4O7r33Xvfkk0+aH9iiiNhYXOPjFmEIQQpBG4vreHEJC0wstLHyHDBggAnHiGNYgbMpm4eN1jz8TfykFSEuGfi+RTBnEzhcFiC88b+HcL8hXhTSi5Wrd3VCHAg4CD8IdaSL+0jkTiGKF6rg6quvdh988IEJyghnCM6VK+dtvERc3DN5kC2ZXgM/veQpeTdixAgT59lIDhcDrVq1KiBIxoPwhbUm4iX+l3FdwQcfumxUWJh0b4zEWyZH8Zs6et/TUWhnifKQ8Phy8da7bOiYyM0FIjn1OhNYJYGPbjZnxd1EvLU+39u1a2duf2hLXPuGG25wHTt2NOHXgzsMrLoRS6MgyrL5KpbGTLLEuzrBncmxxx5rkyII/GwSiB9t/IXjKgXIU28Bng4EdsT9OXPmxELywMI56iufuGgH1Ge/cWOyfgjr7OimrImgv8CtC/nO+eRVOpgwZNULbauobn5S5Q9pYcNb6gXlEJ2o4H6ZmGIC6rvvvrN84nfCo30b+Un5kl8ie7BIRqTCBQViVvfu48N+uULY9x7iXnyxp7v11k7m8gGRslGjHq5iRTbX3NREL45ftapg3xAvJuJKBGtqxEdESKxkCSsMiH24fOAaQLXq3XuSbZaIUObJ9Lh4OD6VmJdrEJzJE/x/Y+E6fPjMfKvbq69uH46Xf4bj5exwvBxhwjGbEwKWu9wPmw9OmDDX0o04GbXEJf9x+0H5JGp+CK/Tpy8yAfK770abD2zOwcUKIiuCMoIlFsr4nZ40aV7atOGHmnrz1lt9TSDmusSJ5bK/z3jr7Xiw4EawBubrqDvEjRCL5Xa6epnuvoHNF/kMHjzDNlJMB0IsG1MSb/3634b3Nt7yrlmzAeYOZK+9tjML/8svPyx87hjk6tb9KnxG/dvy55VXetlkw3bbbWkW3/gR91SpsqutMMDtSjooW/IuamWOyH/TTUdZXjNp4Jk6daG5STn//IMsD4GJjtGjZ1sayJcBA6aZII/4Thn7cokvd8TwdPcFidInhBBClArCF50ikYMohCgSqoPpKWweLV26NPjmm2+CWrVqBdddd5393a1bt6Bdu3ZBnTp1LGzAgAHB6vApeuXKlUG/fv2CG2+8MShfvnzQuHHjYPz48RbPH3/8ERx33HGWjuiH45566qlg8eLFwYwZM4IrrrjCwg866CC71qeffmrfH3/88WDhwoV23BtvvGG/P/PMM8HXX38d3HrrrUGvXr0sDUCaSeO5554bVKpUKfjkk0+CmTNn2u+tWrWya9aoUSMYMWJEMGzYsOCzzz4Lqlatatc54YQTgjPPPDP/c+qppwYVKlQImjZtanHDtGnT7N6J5+WXXw7+/vtvu1e+X3rppUHfvn3tGK7L9WvXrh107drV0kUaSGs0L8gv7j2abuJ67rnn8vOP//01OJ58jl6DdP7www9pr+HhvqtVq2b3xv1zDvFz7DHHHBOMHj06dmRBiOOiiy7Kjzf+E82njQnuLVPmz58f/Pzzz8FVV11lZfn9999b/YtnxYoVwUsvvRT07NnTvlN2/H3//ffb9aiTlA1lT3m9//77QeXKla2c+vfvb+0NaFu0Ew/Ht27dOjjkkEMsnkaNGhU4PhWrwjfiLl26BDVr1gyqVKkSPPHEE5bGp59+Onj++ecL1CGgTT755JNWlz7//HP73HvvvcHEiRNjRxRkypQpwU033WT/J2L48OHBeeedl1+f+HvUqFEF+hbCyaPBgwfHzkoMaatXr57lVxTqOu2M++rcubP9Tn/i20G0H6IMfvrpp6BFixb2nX5o6tSp1u9wz3z4mzL39OnTx9opcfbo0cPCKL/49htfHpz3+uuvWxqiUJ6PPfaYXf/CCy+0dPO54YYbLIz/fRi/E0aZc170XP6nHlDvmjRpkt/HUDfbtm1rfQHHPfTQQ9Y3nnXWWXb/vXv3jqUkD+6DfCV/RfZj64oVq8Ky6hme1zC47LK2YT+el4/z5y8L69fPYbm8YL8ddNDbwZdfDg/rA3Vgbpjv1KsXwnGpRfDjj3+H/UVe/RkxYlbY/38SllvnsA5NCtq3HxY8+miXYPbsxWHdHRu25zF2XDp69pwYlvd7Fp/n7bf7WlqOO65JWKd62DXath1q9xAl0+OA+/z557HhWNnW7of7GjZs7f4xEdF8uPHGr8N2NCUYM+bftcLI008+GRCOja9b3vzwQ15+EV6nzmd27Msv97L0kb+9ek20tHMPfIhnxoxFsavSx04u8Lv/EM9TT3UN+7t5+dcjD9u1G2r36SEvKlT4r51Tv/63wdChM8L21dKO7d17kh1DHlSr9qEd99lngy1dmaTtn3/mWz0iLTVrfhz2Bx3C8WCgpYWymDBhbuzIxLzwwq/h89BHlubff59sdfD770fbtSFVvZw5c1HK+47StOlf9oknUZmuXLna4icdXM/n9ZNPdg37neWxMxkzVwbvvPN7ft7y/7vv/pFf78jHY475IBw7+4V931Rrd6Q3Ub30EGe3buPCsZtnxRfCPvIXS6OHc7lGlSrvWrxffz0iHPO+t/ij+LoWzbMWLdaUy+TJeWNGonJPdV/p0icKkm3/LEQiVI9yj/K09JHLMi/DP2GEhYYltkWMQogioTqYnlzkEZbBUavM8uWxwMnMtx5+b7G4xm0B8ayOWZiOHz/etWnTxqwu2eiRcCybsdYkbr5jEYjFX3Q5P8vzsQpkef52222Xdpl+FOLD+rMoPlxXrsQablmhl/pzvrdqzDb9mZLuGuQhVqXeQpTjsUjHjcOJJ55oVqEij3XVx5DnxLv55un9qK5PfDv07RTXNKksiX3fQJvadtttC7TVKNwrdYy4kh3jrw30MUVpp7gjwZr8jTfeWMva3bcPrhd/fz4N6fqhZJAfnJdp/whYRNMH8tkQUC70Cb78+M6Kjug9kAf4yaa/XlcbW5Y0CtM3cDgWlPhPjvc1TTgWvriQwD9xOrwlJ64KsFjFbQfWs1TTpUtX2nc+hYF0zp+/LGwrqy2dWH8m8o2d6XHFAdJI/sb7riYcS2iITz9Wv1hc45KB8lkds3odP35u+PwyJGwPtNvU7nfYYI8y8mXDdyyNo65a+J3yjC/3VGkD0oOrEuB3jk8UTyK4JvWD84kH1xqJ3MdkWy/j8a40krmmSQbnce+4wUjmy5m8pO7HH4PFMnnM+eRJYdOeCH/NVPXdp91fN1GZQ7JyT3ZfInMK0z8LEY/qUe5RnpY+clnmErBFiUd1MD0bMo9YFs9mcS+99JJtihgPLgiqVq1qbi3EhgVXCq1btzZ/yKkEy9KG+piSCSI1fvdxe3LaaafFQosfuC763//+Z+LwuvJ/nQuYEMBtEO6atIljHuobNm7wl9ywYffw+eX08Pll7TGxY8eR4fPLbuYKQghRvFD/LHKB6lHuUZ6WPnJZ5hKwRYlHdTA9GzKP8I+MP+ann37aXXHFFfl+qhGXunXrZlZ9derUsTSKDQd+gdmgj7KoUKFCLFSA+piSC/0LmxayeeEee+wRC93w4Ge7cePG5vcbP/XnnXeeq1GjRuzX4gf+sZncuvXWW4u1yL6+yaZvKFPmmdhfQgix/giCBrG/Shd6dhO5QPUo9yhPSx+5LHMJ2KLEozqYng2ZRwjVbCDIpnWDBw+OhToTbB544AFXq1Ytty5caIjsWLp0qblWoa6IgqiPKdng3oSVHsccc4zbb7/9YqEbll69erlrrrnGbbXVVu7FF190F154YbFte2zo2L9/f1e7dm3rI8Qa1Dds3OB6gk0TX3jhV9uE0HPeeQeGzy8nhs8vlRK6jxBCbHjUP4tcoHqUe5SnpY9clrkEbFHiUR1MT3HJI+8rN51PXSGKE+pjxLqA/hA/0+oLSy7qG0oPRfUDLYRYv6h/FrlA9Sj3KE9LH7kscwnYosSjOpge5ZEQhUftRwiRCPUNQghRPFH/LHKB6lHuUZ6WPnJZ5lq3L4QQQgghhBBCCCGEEKJYIgFbCCGEEEIIIYQQQgghRLFEArYQQgghhBBCCCGEEEKIYokEbCGEEEIIIYQQQgghhBDFEgnYQgghhBBCCCGEEEIIIYolErCFEEIIIYQQQgghhBBCFEskYAshhBBCCCGEEEIIIYQolkjAFkIIIUShWL16tfv333/dkiVLYiHOLV261AVBEPu2hoULFxY4rigQ1/Lly2PfMoM0zZgxw61atSoWUpDCxClEtowd+6/788+pbuXK1bGQ3PDbb/+4iRPnxb6tf1avDlyfPv/Y/WXDkiUrXffu4920aQtjIYlZtmyV++WXCWmPWxfMn7/M/fjjmLCPUP8ghBBCCLGhkIAthBBC5IAVK1a47t27u4ceesjVrl3bPfbYY27RokWxX9cwf/5898UXX7grr7zS3X777a5nz54W1rdvX3fvvffauRdeeKFr1qyZmzZtmhs5cqR77rnn3Nlnn+2uuuoqN2HChFhMiUFQrl+/vsXzzDPPuCFDhpjQnAjCif+NN96w+LnubbfdZunyH655xRVXuLFjx8bOyjvvyy+/dOeee6575513XIMGDey41q1bu7fffttEbM/o0aPdxRdf7MqXL+/Kli1rf48YMSL2a/YMHz7cnX766e6PP/6IhaRnwYIF7sMPP7R0bbrpprHQNRQmTiGyBRH2jTd+c3fe+W1OxWbiRcAuX37LWMj6pVevSWG7buOqV//ITZ2amcC8fPkq17LlIFez5sfuvvt+cPPmLYv9UpBVqwLXocOIsD9r4e655/ukx60LFi1a4V59tbc7/vgP3euv97F8FkIIIYQQGwYJ2EIIIUQO2Hzzzd0pp5ziXnrpJXfaaafZ/4i7K1eujB2Rx7bbbusuvfRSV61aNXf11Ve7k046ycL4fscdd7ipU6e6I4880tWrV8/ttttu7qCDDnJ3332322abbdznn3/u2rdvn9DC2fPXX3+5li1buunTp5tIfvjhh7tNNkk83BNO/HXr1rU4uR5i9vvvv5//adWqlbvgggtMGPd06tTJrvHJJ5+4p556yr388suuSZMmJsaPGTMmdpQzAf755593derUcd26dbP4SN/NN9/sxo8fHzsqc5gQQCAfNmxYLCQ9nMM9IbbvvffesdA18Pvrr79uEwhCrEu23HJT98QTJ7umTS9w++67Qyy06EyZsiDsH7Zw22+/VSxk/VKjxl7u4YdrxL5lxhZbbOquvfYId8891WIhidl00zLuwgsPdrfcckwsJD1YgefCWrpcuc3dgw9WD/vRw2MhQgghhBBiQyEBWwghhMghm222mYnSgHjbtm3bhILzLrvsspY1cJkyZUxUJpy/PVtssYXba6+9XM2aNd0333zjpkyZEvulILjoQFxGqEWM3mmnnWK/FB7Sc+yxx+anlWt8//337j//+Y/bddddLQywsH7iiSfsuh4smh999FF3/fXXm7iPdfebb77pBg0a5H788cfYUZlBHmK5fthhh7n99tsvFpoa3IW8++67dvwee+wRC12Dj3PPPfeMhQixbtl113Lu8MN3Cdt3LCAHDB483R1xxK45jTNbdtqprKtadU1/kCmbbprZq8hee20b+ys1WEm3azcsZ9bS5GmmaRRCCCGEEOsOPZEJIYQQ6wBvif3444+7X375JRZaeHbYYQd36623un79+rkffvghFlqQwYMHmzBevXr1WEhuwEobq3DAT/Ts2bPdwIED13KRgnh9yCGHxL45d+CBB7qDDz449i0P0oa1Of6os+HPP/90ixcvNlcfmYKrkq5du+ZPKMTj40SMF6IkglA7btzcsI0WfbKqOJOJiMw8Yfv2w8ynthBCCCGE2LgoEyQyC8sCLMSKGIUQRUJ1MD2FyaNly5a5Dh06uB49ephLgx133NEsKStXrmy/jxs3ziwo581b248nlo7nnHOOq1Chgl0Xa8tPP/3U/sbf7vnnn28WmVtvvbUJYZ999tlaQpinVq1a7oQTTnBz5sxxTZs2NbEJtwRsuIavYS+qxYM/YtI+YMCApJu2kT78/mJ9mS6dnlmzZrmvvvrK0hNP9L6jRNOy1VZbma9g8tPD9bCaxQ9vNnnnSZemo48+2kQ88pjrIwBixQpDhw51P/30k6UHNw/w3XffmZ9lrhmlXLlyJvRVqlTJyh7fxljnUgaUk4+L/E6WFyWRwrSfXr16mYsM8v6GG26wMHxaR8VdXHPss88+rkaNNUvvKWP8TV9yySXmmsOD1fOrr75qLkFoh+QxPp0Rqz24Kvnvf//rzjzzTPfRRx/Z9blGtK4lg3Z4zTXXWHpwpxGtX9TLLbfcMt/qmWvjMgRhnrr8wgsv2Hke/ExzfNSCPIq/Fn66cU2SCbhDwf3I/fffb/0RefS///2vQN7FQ5lhAU9dxuob/9tRiJMywT0LbRORGxcoqeIkL37++eek/RWW8sRDuWOxThlQTvQBtA8s6JmE8O2CcsVvOm0On+n0A+Q/fRL5e+qpp5q/cdp31DVLFKztqS+0xY4dO7o+ffpY/jPBQD7jroZVASL3ZNs3sBngV1+NcN9/Pzqsv+eGbTOvnY0YMct98skAt912W4X9+WJzBVK//nFuhx22csOGzQzHvr9ctWp7uooVt3EPPPBj2O6qhG3hhLBcNzHxulu3ce7GG4/K3xDx88+HhPWnZlhPl7vnnvvF4rj//hPdTTcdZccT1qXLmLAuHmOuP3CV4cHvM76phw+fGY4pS8zVx733nuCqVFnT18CkSfPDNtkvrHdl3OTJ88M+YHv3xRfD3HvvnWcuRTyDB89wzZsPcEOGzLCNK2+++eiwTh5qaYdWrQa7V17p5dq0ucwddFDyvgo/2/gO5ziu17Bhd/Oj/cwzp4Z93v72N+lp1KiHWblffvlhbrfdtgnbxqGuX78pRcqTZ5/9Jbz+xDCtl+SXmRCieKP3Q5ELVI9yj/K09JHTMg8jKhI5iEKIIqE6mJ5s82jx4sVBgwYNgi5dugSrV68Oli5dGtxzzz1BrVq1ggkTJsSOCoJ+/foFbdq0iX0LgkaNGgWnn356MGPGjFhIEHTv3j246667goULF9r3adOmBXXq1Anq169vYcOHDw+++OILu86sWbOC2rVrBy1btrRjJ02aFDRt2tSu/+CDD1qaOG7lypXBU089FVx66aXB3Llz7dhEcB+33XabffjbQ/xVqlSxa3vSpTMK6XrnnXdi3xLfdzw+LZQF9xRlypQpwTnnnBOccsopweTJk2OhuU3TsGHDgqpVq1p4lPnz5wePPvqopcFDnr788sv5edazZ09Ld48ePew7+LLyZQL8z/d0eVHSKEwfQ575ekw5VqpUycqOMvTwO8dFGTFiRMJyoiwII9/bt29vaeL/KEOGDAleeOEFK1PqGuXD8ZngyzO+rcyZMyd48cUXLV1RuI/LLrvM0lGhQoWgcePGwbx582K/pmbgwIHBhRdeWKDOpWLFihXBu+++a3UYfB7F5108M2fODM4666y18hLi4/R1PF2cQLlx/Wie+DQ1b948FpLX5q6//vpg6tSp9p02S9v19WD58uVBnz59grp161qbefbZZ4OPP/7YPsRFnSE9ixYtsrT6Ns/9+HKib2zSpImVX4cOHawMfdv76aefLA76abFuyKZvWLp0ZfDLLxPCdtM2LKcWYZnltbM5c5YEDz/cOf/7woXLg2ee6W7fx4+fG9aH/kHFiq+G/XSXcLwdEtx6a6dwXPguLP8Vdjxh/fpNCcfF1UH//lODhx7qHI5v7wbvvfdH0LXruLCuLQz75W4WB3E1bfqXhX399Yiwfrwe9iN5bQC49r33fh/8/PNY+07X3qrVoKBy5bfCfmy8hcHo0bODiy9uE9bxmfZ9xYpVweOP/xzmR8Owzk60MOCcxo372O/+O9ds0uRPixtathwU1vf3wjaUuq8iXu7r2Wd7BJ07j7G8ueWWjmHb+TTsSxbEjqJ99MjP31zkCUTjFEKUDArz7CZEPKpHuUd5WvrIZZnLhYgQYi169+5tFtYs82fGDGs+rAqx3uW7h03l+C0KVodYAgKbvmH5iJUl1ruAz1wsHvE7i7UuVpFYPEbj9WCFiCXj/PnzzYpyu+22s+O4Bi4N8AM8d+7c2NHZQRr9NTNJZxQsWuN95kbvOxlYy2KN++233xbYEG/IkCHuqKOOsrz0+ZnrNOHG4brrrjP3EzMirhtGjRrldt999wJ+i7EiJa/jIb54CPP5SLxYsmaSF6WJk08+2ayUsYJv1KhRUuvdTDnxxBPNip4NHX09Csdzi/+MM84okrUtdfG1114zS24+pBuf2/FQF7Febty4sX1/4IEH3PHHH2+rKeI3rYyC9Tb+s7GgrlixYiw0NT179rT6He+KJB30D1gtJ/KXXdg40+HbCCtYsBinrHzboh1jdU6bo+woJ1aXUJYzZ840K2r6Bz6sNgE27MSinTrk+4Eo9Be1a9c2C++xY8eaH3LaL9AfbL/99m7y5Mn2XWxY2MCxZs29XZUqBf1Ez5ixyKyBsXYGLH8vuOAg+7tSpe3caaftaxs+Yp2NNfEHH5zn3n77bLf11puZxfWECfPcAQdUCOteGXfkkbu5888/MKwzK81i+9RT9zFrZCy2d9mlXNhXO7PUJuz00/cL+4v93dChM+1a8OOPf1s6jjsuz188x9epc3A4Ru8djke/hf3NUnNZgqUzVtYHH5zntgRraq5bvnxe3QMsuXHncfbZB+RbW5M+4v766xHh2L3UwrKB+zr33APDdO9neXP99UeG6Z9hm1gmIhd5IoQQQgghigdSGIQQBUBgYon8vvvuawK157LLLjO/u2wklynDhg3LF6mj4Ebh0EMPNbcaiDtR8TQehN2dd97ZtWjRwsRbxDHcMyACIwQi7hSVTNKJ31/P4sWLs/bfC5tvvrmJVH/99Zd9gHuYNWtWvmsWT67ThMh87rnn2kRAly5dLAzRs2/fvuYWJNEEQjZwHwiT+++/fyxEeMjbyy+/3DY4ZEPBd955J6XImw6EX1yJ0B7ZJBFwVYFrjipVqtj3wnL44Ye7Bx980NyU8HnllVcKuDKJgqCKSw/8SDM5gvuTq6++2gTwZPeHGw3ck+DWIhMQX3///Xdzb5NtHV2wYIG5uYmnKHFmCuVBG432oYC7DzbEREBnYg4QvekDo+5gaONMRtAP0E69y59E+A076R/pJ7fddlu7fps2bdykSZMsH0TxZdtttzRR+Jpr2tvmg4jSiK7eVcU222xhwvDee29ngmyUiRPnmZuR7bZbM5GMr+iyZTe3Tzybb86EY97f1H3imzZtoYm7XLdz5zF2nhecAUEd0fenn8aGbXxWWKfmmZsSRPNo89lhh63dfvvtEPvm3D//zDe3Ibju+O9/e9kH4fvYY3c3oXjZsuz7wET3NXVqXvpTUdg8EUIIIYQQxQcJ2EKIAiCK4kuZ/1evXh0LLRyIKInEE6wEEcIRXRHMM4EXS/y7PvPMMybg4V85V2SbzoULF5rVcmFAIMSvLfeClSYC5AEHYKFW0Gp2XaSJ62DRjVUnlrvTpk0zH+aEFwXE6yZNmpg/cSw+xdpQvnfddZdZ4GJZX9RNHdkcEpHT+4/HjzL+leNXRHjwtXz77bdbO/Kfs846y0TvdBxxxBEFfJkjqGLx68H/9SeffGITLlWrVjW/04i38eBzGt/pN91001r1/dlnny2QNvyqI4jj/x3/z9RbLI353HLLLWZtjA98/o6uZsiERHESFxQ2zniYlMIHdTxMSGEZTdtONYnBcQjT2YAQTp7hSxvLcybLsplwFBsG/Fq/8soZbtddt3GXX97O1arVzMTi1atZcZkaBOLjj8+zli4sq1atDts0k6ArwnEn8Yom/FsvWLA8PDYI2/Ei9+ef7ItRcHI1nlmzFps1N5bOjz5ao8DnvvtOcPinLq74PBFCCCGEEMUHCdhCiAIgHiGEjBgxIt9C0IPgkong5fEiFWJrFMIRaPj4JfepQHz7v//7P7OmbNCggbkEIJ25Itt0/vPPP26nnfKWTmcLFplsxIgVNO4auCeEyHjWRZo4HtcNlG23bt3cb7/9Zm4fkomemcBEB4IgYihuJURysFhGxEaYZIM+b4VfGBCNsepGEP7666/d33//be4okoFbCQRsyt1/GjZsuJaFcCKYMGIVBO0f4ZpVD1jbI2R7aI9Y8uNShDixcI6CyI7rm3r16iV0hYFFdjRtWKkzIYN4fuGFF5pg7z+45eAaWDIfc8wxtrIhGxLFSVxQ2Djjoa0x2cTEUhTCsUDnN9/GU5HpcUD+4qIGq3jKItPzxIYHi+uvvrrCde5c175ffHEb16nTKPs7GbjoGDfuX3MvkgvYjBHLa4RsNluMggUzQvtWW62pU8nEbg9W42ysiCV2PCtWrF7rGkIIIYQQQqRCArYQogD4uUbgwZrSuyfwILhG/akizqSyoMbaGJcXv/76a4HjEGWxMMavtvfXmgqW0bMcnuPXhSiTTToR7bD+zNY6Mgrx4TIES9U99tgjoaC3rtKE7/CLLrrIvf3222Yli4/xeBClERwzmSRo166duTcgrSI95BO+pbF+9/6jCwNlg+UwFu8I00xEJKpHHoRTrJpPOeWU/A+Cd6aTF9Qx+gQsi4FJkET+5w888ECz6I/WReoSrlMQqRHCPUxMsQIAyJdo2qjfiLe4vfHuTPznxhtvNHcbuFHh3pOJ8EyoIEbHi8iJ4iQuSBdnplSqVMn2EGCSiPv3cM/0oYjwuPpIBm0QK3DyJZO0kI9t27a1MtZEUskCIXjMmH9NPMa3c8eOV7mTT67kBg2aHjsiMZyHD+eo3+migCuTo4+u6Pr1m2KuSaIgQp9wwp7mImSnncq6qlV3db//PtlcnyRj553LhePbtq558wEF/F0z7/Xtt6NMgBdCCCGEECJTJGALIdYCYQwR+5577nFffvmlLf3H5zQWflg/s/x+8ODB4UvuxJRuKxBLr7/+enOXwcZlHpa3Yy2MK40ouNTgkwz8xmIFioDbuXNnc3GCOIRIVBSySSc+pBHzUvntTgfiG+4LcCOAj29ApObj3basqzQxAYCAzSad+EveYYc11nu4POjUqZOVN8ImkxnpQPDDdYUoSLzlfBS/qSMCbTyUYyLXPYRHJzKADQgRhdkEkDjjQST3gnOmYMmfyK881uL4r/Z+mpkwYZPC+PbKZBMbeLIxK1DHsfRG0B4+fLi5OuFDH8Kqiqi4m2uwHKeO0z7i825dQ1u84YYbzJocP/MeyoRVLBdffHGBCSL6Un7zIHKTx1dddZVNPni4D0TwZOCPnPZLvn733XfmA5s+k/BELonEhgcRuFOnkfkWybgSwU/07rvn9Q/4iuYY3FpE6d9/qlluxxN/XKbg+7lu3aomZH/11fD89HDt3377x11++WHmb3v//XewjRSbNevv2rUbaq5OEKX//nuObUg5fToT24xHuEQ5zLVoMSiM9yv3ww9/u5EjZ7tXXullFthRv93x9OnzT1j329vxntmzk/epUdjcEcF8/vxlbsSIWSb0FzZPhBBCCCFE8UECthBiLXBP8NZbb5lQih9VxBiE7HvvvdcEUCwxEbix4EUgQhghDKEGy8xvvvnGhDOOxWUCLjMQc7Ci5tO6dWv34osvFhBPEZn4DaGlQ4cO5mLDi2+42MD1BYIX1p29e/e2+BCy33jjjYQbByKsIR4NGDDAPsRHOrEi79q1q4lDCDxcN5N0Eh+iORvcIeS9/PLLZkmLEEl8gwYNcp9//nlCwdCnheN83uC2gHvCIhV3CwjHxIsVZaZ5V9g0Yd197bXXWhqiUHYI61i44oIAsYy8Y/IC+B8RknxkA0GOZ/KgT58+lhb+j68DpQ3yhrxv1qyZ+acmn+LzAeHSb+roIf/YnBRf4kwO4aecsqN+kudszkfZ466FMqFsEDYpLyYkfFvieNoPPraZkKA++eMT4cuYySnKjfPY3ND7huaDOI7Peax7vZiKH2dEUurwe++9Z+2L++FvhG36EIRWXKW8+uqrNtHBpIv/IOBut91269RaGIt0LLlx0xNvhV1YEvUflC9/E8Zv9GFMQlDGWHffd9997oMPPrDJKPyfk0/kTzy4TaGNIfCTZ/R30ZUN1C1+5xqUE+VM3QDykuuxYoP+mkkDygzL/Ndff90suhNNmIj1B0Iwmx/27ftP2NZmhX3kqLDu5ImyHTviu/xnE4oRj9lA8KKLDg7r17yw3x8a1qkprlWrwbbJIvFgvcxGg/HuQ/CJ3bz5wLDtTw/b/tCwfsyyOL77bnRYP/8N688os5z+99+ldv1ffpkQtv9p4fg0zuKtXLlCOKaeZb+Rni5dxrrnn//FVau2h7v00jxXV1iK/9//neTq1TvShOkaNT4O6167MM4lYb+wrcU5alSe8HzddVXDen1OOGZPcmef3cpVr/5RWA+3tHtD5MaXdteu4yxtpJG0AvdLWhHF/XFffz0y/744jnvjGOjQYYR9h+OOy/MJfuyxTeze8N1d2DyZP3950jITQgghhBDrlzIBZl1FgBfxIkYhRJFQHUxPYfMIyz1EEywqWe7uLQYJR5xiabsPSwcCEiIdwmw0rkwh/fjkxm0GPmT5TpyIVKQvVyRLJ1aTbD7Hh80K+d1DWrBofvLJJ92dd96Zb32aK3KdpqlTp5oYfvfddxew7vR5Sv5G4yrtkN/kTa6hHRFvUf0tr29IM2kn3Qi1uK/gf9ohQmou22NRmTFjhk28sbEhk24bAvpKLPKT5U+rVq1sgoKPb3fZ+L6OwrUQq30/wXfaeCaumkT25KJvQKAF/EXjfxqBGCvoWDefEKyeEbnLll03fQfW1wi/XAcXJVtssWac8HDbWDn7YwARvFy5tdO0ZMlKu7ctt9w0fG5IXxe5PiI98eKbO1vIS/J16601jglRWllXz26idKF6lHuUp6WPXJa5BGxR4lEdTI/yqOggFrNx3TXXXGP5mYj+/fubRavfEG5dU9g04b4BgQsra5EetZ+SDStFWBnwwAMPFMuJGS9g8/+OO+4YCxUlAfUNQghRPFH/LHKB6lHuUZ6WPnJZ5hKwRYlHdTA9yqOigwU0m9alcnngrR+xslwfZJomPriAwd0Bm0fiKuKpp54yS2uRHrWfkg1lx6RNhQoVXK1ataw8ixO4hcE9jATskkc2fUOZMs/E/hIlnSBoEPtLCFFc0bObyAWqR7lHeVr6yGWZS8AWJR7VwfQoj0o3CNiPPPKI+djFv/VLL71kvrdFZqj9lHwov379+tmED5teUqYbGtyusFnj008/bT7y2XfgjDPO0MRSCUJ9gxBCFE/UP4tcoHqUe5SnpY9clrkEbFHiUR1Mj/JI4LOYTffwrVucfBSXBNR+xLog6j/cU7ZsWQnYJQj1DUIIUTxR/yxygepR7lGelj5yWeYSsEWJR3UwPcojIQqP2o8QIhHqG4QQonii/lnkAtWj3KM8LX3kssxlhieEEEIIIYQQQgghhBCiWCIBWwghhBBCCCGEEEIIIUSxRAK2EEIIIYQQQgghhBBCiGKJBGwhhBBCCCGEEEIIIYQQxRIJ2EIIIYQQQgghhBBCCCGKJRKwhRBCCCGEEEIIIYQQQhRLJGALIYQQQgghhBBCCCGEKJZIwBZCCCHWMStXrnT//vuvmzdvnguCwMJWr15t4VGmT5/u+vTp45YsWRILyR1cq1evXm7s2LGxkMRw3J9//pn2uFxBfgwfPtz99ddfsZCSxaJFi6xchRBCCCGEEEKsG8qEL455b9KFpEyZMvkv40JsCFQH06M8EqLwFLb9cE7//v3dq6++6rbffntXqVIlC0ek3nnnnd0ee+zhDj30UHfsscdaOLz88svuv//9r/v+++/d8ccfHwstOr/88otr3Lix+/rrr13Pnj1djRo1Yr+sDcL11Vdfbdd/5ZVX3JZbbhn7pSATJkxwXbt2tTgRvStWrOg23XTT2K/ORPhp06a5F154wR1zzDGx0IIMHTrU0vXxxx+7li1bumuuuSb2S8mBiYhvv/3WlS1b1p122mlWX0TpQGOrEEIUT9Q/i1ygepR7lKelj1yWuQRsUeJRHUyP8kiIwlOY9oOg+/rrr5vAy/8HH3xw7Jc8hgwZ4m6++Wb3+OOPuwsuuCAW6sySd9y4ce7www93m222WSw0N2B9fdJJJ6UVsLlXhGVE9l133TUW6tyqVavMUpq0eRCp77//fjd+/HjXqlUrt+OOO8Z+yYvn559/dsuWLXPnnntuLDRPIN9ll13cNttsY99HjhzprrjiCvfwww+XGAE7/h64188//9z+vvLKK63OiI0fja1CCFE8Uf8scoHqUe5RnpY+clnmciEihBBC5BAG6LZt27oWLVqYNXW8eA2IwFgmL126NBaSx3bbbeeOPPLInIvXUL58eVe5cuXYt+TwkEH6ouI1TJw40QT5TCEe7iVqwY2Y3a5dO/vfU6FCBRPLSwqJ7oF7RaTv1q2buV8RQgghhBBCCJE7JGALIYQQOWTUqFHmCuTCCy90hx12WCx0bapVq+b23HPP2Ld1D0Iybi4KA36ecYWSra/nnXbayZ1++un2N8J++/btXffu3e27Z5NNNingeqQ4k+weYNttt3VnnXWWa9q06TrxYS6EEEIIIYQQpRW5EBElHtXB9GSTRxyHb1usR7EcrVKlinv66afNqvCqq65yDzzwgFlMAm4SOnbsaJvOIY4NHDjQXABceumlBSxIcS/wv//9z82fP9/+xl0AxyFc9ejRww0YMMD8yGId6l0cjB492n7HgvO4444zy89oWPXq1V3v3r0LnFu7dm3zudupUyezbCWdZ599trk1QHD67rvv3GOPPWa/49YB8RAXDqeeeqrlEXD/v/76q/vss8/setzXgw8+aMcsXLjQ4iB/fDpI7x9//OH69evnli9fbn6NzznnHPNzjPsEhD+fDqxr8Rc8efJkt8UWW9i5Rx99tIl3hP3www9u1qxZlg6IP0ZsGLLtY6hbtJPOnTu7M844IxaaHkRP6jkC6EsvveQOOuggC+faffv2tXqLywpcjOACBJ/atLOqVataOH6uaY/42/7tt9+sPdxyyy1u6623tni8qw7aItbDDRs2dHPnznX33XeftUfqum//77//vllsP/HEE27KlCnWbj799FOr2yeffLJZaGNxnMqFCPEsWLDAjuV6xNmoUSOz7L788svdbrvt5q699lr7jevXrVvX4m7QoIH1C6T93nvvzU8/DB482DVv3txcsND/4IbF9zf0L998843r0qWLxfHmm29av/XBBx+Y+xPy9YQTTrC8e/bZZ6293XHHHXb/mVyDOJLdg3clMmjQIHfddde5Jk2a5NSHuSie6PlDCCGKJ+qfRS5QPco9ytPSR07LPIyoSOQgCiGKhOpgerLJo0mTJgUff/xxULFixeCpp56yzzfffBPccccdFs9dd90VLF682I7t0KFDULt27WDGjBn2/aeffgoqVaoU9OvXz77D77//Htx///3B/Pnz7Xvfvn0t7rffftu+E9dtt90W3HzzzcGiRYssjP/5Tri/lg977LHHgpUrV1pYonOhefPmQZUqVYLhw4cHy5cvD/r06RPUrVs3OP3004Nnn33W7o9P1apVLb09e/a081avXh20bt3aPvzNp0WLFgWOmTVrlt1zgwYN7HdPo0aNLH6fF9CyZcv8dHj4mzDS6Bk1alRQrVq14PHHHw8WLlyYf433338/doTYkGTTfnw9rVy5cjBw4MBYaHqo0/3797d2Rr0cMWJE7Jcg6N69e3DVVVcFc+bMse/jxo0LatSoEZxzzjnWjqgvf/zxR1C9evX8ujZ27FirU59//rl9B+Ikbq7x5ptvBp07dw6uu+46u7+XX37Z0jBz5szgs88+Cw455BCr0x5fJ6Nh4Nsgv3GMh3pM/fXtxsP58cf6uB9++OGgadOmweTJk4MmTZoEu+yyi/UpHvKhcePGwYoVK/K/0zY5dsmSJXYt2nnNmjWD9957L2jWrFlw3HHHBV988UV+n8Y1SNf48eOzvoZv74nuwUP7px8gDrHxo+cPIYQonqh/FrlA9Sj3KE9LH7ksc7kQEUIUAKvk8847z1wfYAGM9TWWlliVYonM8vlhw4bZsWxkhpUmxwHnYv2JNTEsWrTIvfvuu2Z9zHGw7777ulq1aq1lUcx3ZueA/+N/92FYSqY6l2tirYqFNGGbb765WV3ixmDmzJnukksucTfccIN9sMgE7gnraay3u3fvblaznMuHc3GD4I/xRK/pIYzrRvHpgLDPdX/99ZdZq0bv4ffff7c0Y91arly5WKjLt+oUJQcskidNmmSuOqK+nz1Y8WIVjIW2r19YTS9evNgs+uM3V2QlAf60cU+x1VZbWdjuu+9u1r1YO19//fX2P1bS4C2JOZ62iDuTeM4//3x3zz33WD2nfWLp3KFDB/fPP/9YXSd87733jh2dGfjHfvvtt83nN58XX3zRLL2zgb7hxhtvtPu7+OKL3VFHHWUWzUC7pg3Sl/jVHX51BqsayHfyjnOwxGbFRL169axt0eZZscGmi1zj1ltvNet1fw2OgXTXwFo9HZRRxYoVrY+kTIUQQgghhBBCFB0J2EKItUB0RWBF7PFCDmLcBRdc4KZOnepGjBhhYXfffbe5GkEsQ5Rt06aNiXe4DYAxY8bYZ6+99rLvwGZtuOdg6X6uYbk/Qlwi8Y37Ybk/Ipbn0EMPNbEOsYk0I8gPHTrU3AR4IQ5B67LLLjMRq6jg8gQ3JPvtt18sJA/ESPwhswEc9yBKLrQd2gx16d9//42FroF6eMwxx5iIinsefCYjKPsJnniY9ED0jsKE0Q477OBmzJiRP6nCpBOuMxBmCaeNkYZE0F49TJhQv6mbCNiFhTZHf/Doo4/a57nnnrMJIt9/ZALpip8Uor0AacOlx+eff57fNmmnxx57rE1O+Q0Vad+0c4T4RCS6hm9zmV4jFdwvkxf0g4jqQgghhBBCCCGKjgRsIUTG4PcVf7sexDj86uIfF6EaS8eoWI0ojFVz1HJ5XbFixQr30UcfmdiU6cZ4CE1RsRsRHqvVO++8M1+I8x/8f3tLc8AX9u23357/4Xsq8KuNX2ysz+PBfzeiGT63r776arNkxaJVlDwQhA888ECr+7SJZCCi+omieEE1Cha9hxxyiE2yzJ4928IQUmfNmmUTH9RXIC6E66eeesp8YbOBZPxESTLw0Y7VcK7Zf//9zSd8LuB+58yZY+0wvm3iwxrRuqisj2sIIYQQQgghhMgeCdhCiKzx1qJffPGFbWjGJm7/+c9/1rK2RJxDwP77779jIWvAOjUTi8ZMWL16tfvyyy9N6PMb32UD90Pasd7EatW7Y4iCQI41rAd3H1hn+g/fk4H4iGUnFuzJYHIA61CsQdloL1sXDqJ4wCQHLneoU7imKGodR9y++eabXc2aNW3jweHDh7vWrVvbhqCIqrQxYCNRJl6YAGHDweimhOmgbpNu76IkV+DahMkk2mdR84H8ZCIskZU46c/FyoVcXoP+hEkFIYQQQgghhBBFR29XQoiMYTk/wgyWlfPmzTPfvPiIRXxNBCIs7hLwH4tfWg9i1s8//5zS8jQbvvnmG3NxgsiXDYhVCOkI3/ibxvcutGrVqoDghisAxHpErGxBEMc1yHXXXbeWwO9BGP/qq6/cjz/+6B5//PECbk5EyQO/1nXr1nXt2rVzvXr1ioUWHtodLjFeeuklqxtXXnmlTRxhOQ3UY1yGsPphn332sbBswHL76KOPzthiO1t+++03W91QFHA9hDV38+bNC/iipu18++235r+6qOTiGpQFlvK4cslmEkEIIYQQQgghRHIkYAshkoJ7EO9/FxGnR48e5i83auXMhnS4xkDcwY0Gvl+xVCQcURhXBp9++ql7+OGHzRKbD+IbLguiLjkyhfRELaEBi9c6deqkFcRxy4FFuIfNJhGYcRmAJSv3ddFFF9kGdPgoxoKW+yC9uPkoTHoRFOvXr19gc8Z48Cn+1ltv2YaZCP5YrMb7PRYlB8qasjzppJNsQoI6VBQ+/vhjq6dsAIrYzOaAiKTxPpYHDBhgQjGTL507d7ZzqEf8H6330ckk/mYC6N577zW/2slAjEUgx80G18UlTvT6hCfy+T1hwgSbmPFufRB2EYe5LvWe9CLQe7/5ycB9x+WXX24+95kc+OGHH6x/euWVV2xiCYt0IC7umTaULZleI9E9eOgHyYsjjjgi5xbtQgghhBBCCFFakYAthEgKgtmbb75pFpRNmjQxceauu+4yS2LEHMQehCyEn4YNG5obDfzyvv7662aJiEsMhGBcH2AhigjMZnP4qa5evboJbVgnI7whFnEcG6chGHFNPvxNGL9xDP59EecQj/y5uE/gb+LDVUfXrl1NtENQR0CL8s4775g1Zffu3d2rr77q/u///s8ssIH7evDBB83nLRbRbKx4zTXX2D0hLCOykQZEq549e1o6EBP79Onj+vbta+FYaiNg+XQMHjzYrkcYH9JE2vgNYbNfv34m7hM/4jnCZMuWLS0+NqRERJeYXfJgVUKzZs1ss9LbbrvN3H2wySL1Dgtfwk855RQTSoEypj4kqruHHXaYnctGgmw8ijU2H0ThDz74wCZf8D+PqMrvTMiwQeRpp53mPvnkE2sjpIcVETfccIO5/GFSpmPHjlb36tWr504++WS7FnUUQZu6TB0kvbQrBOxTTz3V7omNT7EER7hldQXtlLRzL7Vr187/cH0su7mun8Dxm6HSB5AuwP0P7cTXdybEfBqwYKdt05+wioH2y4aTZ599tvUhuP2g3ZBG0tqpUydLN/2Vzz/+j2930WsQPyJ7umt44u8BQdvDJrf0E0xeCCGEEEIIIYTIDWWCeFPGLMHisYhRCFEkVAfTk20eIaIi3CJIXXzxxSbS4qIDi+p4sML0YjXX4TuCWry1MpaRiEyIQYWxZC4quAXBspKPd+VBWhK59SCvEMixJN9Q6RXFh6L2MdH6BPhGTlb34uFc3O1gHY0o7S2VsTAeNWqUbf7JJqq4v6EdMsnE5BLX4DvCeLwrC8KJh2P8sZlC/PQFmaQ9GcnSlSn0Man6pFyQ7hrJ7oGNZLGSf+SRR/L9k4uNFz1/CCFE8UT9s8gFqke5R3la+shlmcsCWwiREgQaNmNLJhTxOyIYHZP/nkjw5Xzi2dBiMGIdYiCfZCIc98I9FYf0ipJPtD7xSVX34sEyGethLKupiz4O/DVjHYwVsLdu5nfi9oI03xOJxD6e6LGZwrWKIl5DsnRlSro+KReku0aie0C4ZpPNG2+8UeK1EEIIIYQQQuQQCdhCiLXYGH0wb2z3I0oH/fv3NwH7+++/N+tnDxbCbdq0cQcccICJ42LDgnU9boduueWWpJvaCiGEEEIIIYQoHBKwhRAFQBjDv/PQoUNt00Y2ZSzMhmjFBdLOPeDn1vvU5R6FKAngZx5/2Q888IBZA2PNjbue22+/3Xy3Y4UtNiz0J/gTZ8Pa6Aa3QgghhBBCCCFyg3xgixKP6mB6sskj7/vVUxg/ucUJBOx58+YVEOHLli1bJBcGonRRHPoYri+/7EIUL/T8IYQQxRP1zyIXqB7lHuVp6SOXZS4BW5R4VAfTozwSovCo/QghEqG+QQghiifqn0UuUD3KPcrT0kcuy1wuRIQQQgghhBBCCCGEEEIUSyRgCyGEEEIIIYQQQgghhCiWSMAWQgghhBBCCCGEEEIIUSzJiQ9sIYQQQgghhBBCCCGEEMKTKx/Y2sRRlHhUB9OjPBKi8Kj9CCESob5BCCGKJ+qfRS5QPco9ytPSRy7LXC5EhBBCCCGEEEIIIYQQQhRDnPt/PfMfZ35kaxIAAAAASUVORK5CYII=;" parent="1" vertex="1">
          <mxGeometry x="530" y="-390" width="1456" height="142" as="geometry" />
        </mxCell>
        <mxCell id="23PltFtee5-7gZN0qqk8-23" value="" style="endArrow=none;html=1;rounded=0;strokeColor=#000000;align=center;verticalAlign=middle;fontFamily=Helvetica;fontSize=11;fontColor=default;labelBackgroundColor=default;" parent="1" edge="1">
          <mxGeometry width="50" height="50" relative="1" as="geometry">
            <mxPoint x="245" y="760" as="sourcePoint" />
            <mxPoint x="285" y="720" as="targetPoint" />
          </mxGeometry>
        </mxCell>
        <mxCell id="23PltFtee5-7gZN0qqk8-24" value="Соединение основное 1 Гбит/с" style="edgeLabel;html=1;align=left;verticalAlign=middle;resizable=0;points=[];fontFamily=Helvetica;fontSize=11;fontColor=default;labelBackgroundColor=default;" parent="23PltFtee5-7gZN0qqk8-23" connectable="0" vertex="1">
          <mxGeometry x="0.3819" y="-2" relative="1" as="geometry">
            <mxPoint x="36" y="6" as="offset" />
          </mxGeometry>
        </mxCell>
        <mxCell id="23PltFtee5-7gZN0qqk8-25" value="" style="endArrow=none;html=1;rounded=0;strokeColor=#00FF00;align=center;verticalAlign=middle;fontFamily=Helvetica;fontSize=11;fontColor=default;labelBackgroundColor=default;" parent="1" edge="1">
          <mxGeometry width="50" height="50" relative="1" as="geometry">
            <mxPoint x="240" y="820" as="sourcePoint" />
            <mxPoint x="280" y="780" as="targetPoint" />
          </mxGeometry>
        </mxCell>
        <mxCell id="23PltFtee5-7gZN0qqk8-26" value="Соединение резервное 1 Гбит/с" style="edgeLabel;html=1;align=left;verticalAlign=middle;resizable=0;points=[];fontFamily=Helvetica;fontSize=11;fontColor=default;labelBackgroundColor=default;" parent="23PltFtee5-7gZN0qqk8-25" connectable="0" vertex="1">
          <mxGeometry x="0.3819" y="-2" relative="1" as="geometry">
            <mxPoint x="36" y="6" as="offset" />
          </mxGeometry>
        </mxCell>
        <mxCell id="23PltFtee5-7gZN0qqk8-27" value="" style="endArrow=none;html=1;rounded=0;strokeColor=#990000;align=center;verticalAlign=middle;fontFamily=Helvetica;fontSize=11;fontColor=default;labelBackgroundColor=default;" parent="1" edge="1">
          <mxGeometry width="50" height="50" relative="1" as="geometry">
            <mxPoint x="500" y="750" as="sourcePoint" />
            <mxPoint x="540" y="710" as="targetPoint" />
          </mxGeometry>
        </mxCell>
        <mxCell id="23PltFtee5-7gZN0qqk8-28" value="Соединение основное 10 Гбит/с" style="edgeLabel;html=1;align=left;verticalAlign=middle;resizable=0;points=[];fontFamily=Helvetica;fontSize=11;fontColor=default;labelBackgroundColor=default;" parent="23PltFtee5-7gZN0qqk8-27" connectable="0" vertex="1">
          <mxGeometry x="0.3819" y="-2" relative="1" as="geometry">
            <mxPoint x="36" y="6" as="offset" />
          </mxGeometry>
        </mxCell>
        <mxCell id="23PltFtee5-7gZN0qqk8-29" value="" style="endArrow=none;html=1;rounded=0;strokeColor=#000099;align=center;verticalAlign=middle;fontFamily=Helvetica;fontSize=11;fontColor=default;labelBackgroundColor=default;" parent="1" edge="1">
          <mxGeometry width="50" height="50" relative="1" as="geometry">
            <mxPoint x="495" y="810" as="sourcePoint" />
            <mxPoint x="535" y="770" as="targetPoint" />
          </mxGeometry>
        </mxCell>
        <mxCell id="23PltFtee5-7gZN0qqk8-30" value="Соединение резервное 10 Гбит/с" style="edgeLabel;html=1;align=left;verticalAlign=middle;resizable=0;points=[];fontFamily=Helvetica;fontSize=11;fontColor=default;labelBackgroundColor=default;" parent="23PltFtee5-7gZN0qqk8-29" connectable="0" vertex="1">
          <mxGeometry x="0.3819" y="-2" relative="1" as="geometry">
            <mxPoint x="36" y="6" as="offset" />
          </mxGeometry>
        </mxCell>
        <mxCell id="23PltFtee5-7gZN0qqk8-31" style="edgeStyle=none;rounded=0;orthogonalLoop=1;jettySize=auto;html=1;exitX=0.5;exitY=1;exitDx=0;exitDy=0;exitPerimeter=0;entryX=0.5;entryY=0;entryDx=0;entryDy=0;entryPerimeter=0;strokeColor=#000066;align=center;verticalAlign=middle;fontFamily=Helvetica;fontSize=11;fontColor=default;labelBackgroundColor=default;endArrow=none;endFill=0;" parent="1" source="OuvUhGnFTSXVDVeN6YIj-12" target="OuvUhGnFTSXVDVeN6YIj-10" edge="1">
          <mxGeometry relative="1" as="geometry" />
        </mxCell>
        <mxCell id="23PltFtee5-7gZN0qqk8-32" style="edgeStyle=none;rounded=0;orthogonalLoop=1;jettySize=auto;html=1;exitX=0.5;exitY=1;exitDx=0;exitDy=0;exitPerimeter=0;entryX=0.5;entryY=0;entryDx=0;entryDy=0;entryPerimeter=0;strokeColor=#000066;align=center;verticalAlign=middle;fontFamily=Helvetica;fontSize=11;fontColor=default;labelBackgroundColor=default;endArrow=none;endFill=0;" parent="1" source="OuvUhGnFTSXVDVeN6YIj-13" target="23PltFtee5-7gZN0qqk8-2" edge="1">
          <mxGeometry relative="1" as="geometry" />
        </mxCell>
        <mxCell id="23PltFtee5-7gZN0qqk8-33" value="&lt;font face=&quot;Times New Roman&quot; style=&quot;font-size: 18px;&quot;&gt;&lt;b&gt;Уровень ядра&lt;/b&gt;&lt;/font&gt;" style="text;html=1;align=center;verticalAlign=middle;resizable=0;points=[];autosize=1;strokeColor=none;fillColor=none;fontFamily=Helvetica;fontSize=11;fontColor=default;labelBackgroundColor=default;strokeWidth=3;" parent="1" vertex="1">
          <mxGeometry x="-378" y="45" width="130" height="40" as="geometry" />
        </mxCell>
        <mxCell id="bDeuPqKoO-e9YfsH-q5c-1" value="" style="sketch=0;points=[[0.015,0.015,0],[0.985,0.015,0],[0.985,0.985,0],[0.015,0.985,0],[0.25,0,0],[0.5,0,0],[0.75,0,0],[1,0.25,0],[1,0.5,0],[1,0.75,0],[0.75,1,0],[0.5,1,0],[0.25,1,0],[0,0.75,0],[0,0.5,0],[0,0.25,0]];verticalLabelPosition=bottom;html=1;verticalAlign=top;aspect=fixed;align=center;pointerEvents=1;shape=mxgraph.cisco19.rect;prIcon=l3_switch;fillColor=#dae8fc;strokeColor=#6c8ebf;flipH=0;movable=1;resizable=1;rotatable=1;deletable=1;editable=1;locked=0;connectable=1;" vertex="1" parent="1">
          <mxGeometry x="500" y="640" width="50" height="50" as="geometry" />
        </mxCell>
        <mxCell id="bDeuPqKoO-e9YfsH-q5c-2" value="&lt;span style=&quot;color: rgb(0, 0, 0); font-family: Helvetica; font-size: 11px; font-style: normal; font-variant-ligatures: normal; font-variant-caps: normal; font-weight: 400; letter-spacing: normal; orphans: 2; text-indent: 0px; text-transform: none; widows: 2; word-spacing: 0px; -webkit-text-stroke-width: 0px; white-space: nowrap; background-color: rgb(255, 255, 255); text-decoration-thickness: initial; text-decoration-style: initial; text-decoration-color: initial; float: none; display: inline !important;&quot;&gt;Коммутатор L3 резервный&lt;/span&gt;" style="text;whiteSpace=wrap;html=1;fontFamily=Helvetica;fontSize=11;fontColor=default;labelBackgroundColor=default;align=left;verticalAlign=middle;" vertex="1" parent="1">
          <mxGeometry x="570" y="645" width="110" height="40" as="geometry" />
        </mxCell>
        <mxCell id="bDeuPqKoO-e9YfsH-q5c-3" style="edgeStyle=none;rounded=0;orthogonalLoop=1;jettySize=auto;html=1;exitX=0.704;exitY=0.001;exitDx=0;exitDy=0;exitPerimeter=0;entryX=0.5;entryY=0;entryDx=0;entryDy=0;entryPerimeter=0;strokeColor=default;align=center;verticalAlign=middle;fontFamily=Helvetica;fontSize=11;fontColor=default;labelBackgroundColor=default;endArrow=none;endFill=0;" edge="1" parent="1" source="-28X3IPU-qpVwxlm2ra_-195" target="1KV0u5xqLlpl0TTELTNx-13">
          <mxGeometry relative="1" as="geometry">
            <mxPoint x="1580" y="1420" as="sourcePoint" />
            <mxPoint x="1580" y="1330" as="targetPoint" />
          </mxGeometry>
        </mxCell>
        <mxCell id="bDeuPqKoO-e9YfsH-q5c-4" style="edgeStyle=none;rounded=0;orthogonalLoop=1;jettySize=auto;html=1;exitX=0.5;exitY=0;exitDx=0;exitDy=0;exitPerimeter=0;strokeColor=default;align=center;verticalAlign=middle;fontFamily=Helvetica;fontSize=11;fontColor=default;labelBackgroundColor=default;endArrow=none;endFill=0;" edge="1" parent="1" source="-28X3IPU-qpVwxlm2ra_-179">
          <mxGeometry relative="1" as="geometry">
            <mxPoint x="1580" y="1250" as="sourcePoint" />
            <mxPoint x="1480" y="1240" as="targetPoint" />
          </mxGeometry>
        </mxCell>
        <mxCell id="bDeuPqKoO-e9YfsH-q5c-5" value="&lt;font face=&quot;Times New Roman&quot; style=&quot;font-size: 18px;&quot;&gt;&lt;b&gt;Легенда&lt;/b&gt;&lt;/font&gt;" style="text;html=1;align=center;verticalAlign=middle;resizable=0;points=[];autosize=1;strokeColor=none;fillColor=none;fontFamily=Helvetica;fontSize=11;fontColor=default;labelBackgroundColor=default;strokeWidth=3;" vertex="1" parent="1">
          <mxGeometry x="-175" y="720" width="90" height="40" as="geometry" />
        </mxCell>
        <mxCell id="bDeuPqKoO-e9YfsH-q5c-6" value="" style="sketch=0;points=[[0.015,0.015,0],[0.985,0.015,0],[0.985,0.985,0],[0.015,0.985,0],[0.25,0,0],[0.5,0,0],[0.75,0,0],[1,0.25,0],[1,0.5,0],[1,0.75,0],[0.75,1,0],[0.5,1,0],[0.25,1,0],[0,0.75,0],[0,0.5,0],[0,0.25,0]];verticalLabelPosition=bottom;html=1;verticalAlign=top;aspect=fixed;align=center;pointerEvents=1;shape=mxgraph.cisco19.rect;prIcon=l2_switch;fillColor=#FAFAFA;strokeColor=#97D077;" vertex="1" parent="1">
          <mxGeometry x="1257.5" y="1750" width="50" height="50" as="geometry" />
        </mxCell>
        <mxCell id="bDeuPqKoO-e9YfsH-q5c-7" value="" style="sketch=0;points=[[0.015,0.015,0],[0.985,0.015,0],[0.985,0.985,0],[0.015,0.985,0],[0.25,0,0],[0.5,0,0],[0.75,0,0],[1,0.25,0],[1,0.5,0],[1,0.75,0],[0.75,1,0],[0.5,1,0],[0.25,1,0],[0,0.75,0],[0,0.5,0],[0,0.25,0]];verticalLabelPosition=bottom;html=1;verticalAlign=top;aspect=fixed;align=center;pointerEvents=1;shape=mxgraph.cisco19.rect;prIcon=l2_switch;fillColor=#FAFAFA;strokeColor=#005073;" vertex="1" parent="1">
          <mxGeometry x="1257.5" y="1680" width="50" height="50" as="geometry" />
        </mxCell>
        <mxCell id="bDeuPqKoO-e9YfsH-q5c-8" value="" style="sketch=0;points=[[0.015,0.015,0],[0.985,0.015,0],[0.985,0.985,0],[0.015,0.985,0],[0.25,0,0],[0.5,0,0],[0.75,0,0],[1,0.25,0],[1,0.5,0],[1,0.75,0],[0.75,1,0],[0.5,1,0],[0.25,1,0],[0,0.75,0],[0,0.5,0],[0,0.25,0]];verticalLabelPosition=bottom;html=1;verticalAlign=top;aspect=fixed;align=center;pointerEvents=1;shape=mxgraph.cisco19.rect;prIcon=l3_switch;fillColor=#FAFAFA;strokeColor=#005073;flipH=0;movable=1;resizable=1;rotatable=1;deletable=1;editable=1;locked=0;connectable=1;" vertex="1" parent="1">
          <mxGeometry x="1257.5" y="1820" width="50" height="50" as="geometry" />
        </mxCell>
        <mxCell id="bDeuPqKoO-e9YfsH-q5c-9" value="" style="sketch=0;points=[[0.5,0,0],[1,0.5,0],[0.5,1,0],[0,0.5,0],[0.145,0.145,0],[0.8555,0.145,0],[0.855,0.8555,0],[0.145,0.855,0]];verticalLabelPosition=bottom;html=1;verticalAlign=top;aspect=fixed;align=center;pointerEvents=1;shape=mxgraph.cisco19.rect;prIcon=router;fillColor=#FAFAFA;strokeColor=#005073;fontFamily=Helvetica;fontSize=11;fontColor=default;labelBackgroundColor=default;" vertex="1" parent="1">
          <mxGeometry x="1502.5" y="1685" width="50" height="50" as="geometry" />
        </mxCell>
        <mxCell id="bDeuPqKoO-e9YfsH-q5c-10" value="&lt;span style=&quot;color: rgb(0, 0, 0); font-family: Helvetica; font-size: 11px; font-style: normal; font-variant-ligatures: normal; font-variant-caps: normal; font-weight: 400; letter-spacing: normal; orphans: 2; text-indent: 0px; text-transform: none; widows: 2; word-spacing: 0px; -webkit-text-stroke-width: 0px; white-space: nowrap; background-color: rgb(255, 255, 255); text-decoration-thickness: initial; text-decoration-style: initial; text-decoration-color: initial; float: none; display: inline !important;&quot;&gt;Коммутатор L2 для камер&lt;/span&gt;" style="text;whiteSpace=wrap;html=1;fontFamily=Helvetica;fontSize=11;fontColor=default;labelBackgroundColor=default;align=left;verticalAlign=middle;" vertex="1" parent="1">
          <mxGeometry x="1322.5" y="1755" width="110" height="40" as="geometry" />
        </mxCell>
        <mxCell id="bDeuPqKoO-e9YfsH-q5c-11" value="&lt;span style=&quot;color: rgb(0, 0, 0); font-family: Helvetica; font-size: 11px; font-style: normal; font-variant-ligatures: normal; font-variant-caps: normal; font-weight: 400; letter-spacing: normal; orphans: 2; text-indent: 0px; text-transform: none; widows: 2; word-spacing: 0px; -webkit-text-stroke-width: 0px; white-space: nowrap; background-color: rgb(255, 255, 255); text-decoration-thickness: initial; text-decoration-style: initial; text-decoration-color: initial; float: none; display: inline !important;&quot;&gt;Коммутатор L3&lt;/span&gt;" style="text;whiteSpace=wrap;html=1;fontFamily=Helvetica;fontSize=11;fontColor=default;labelBackgroundColor=default;align=left;verticalAlign=middle;" vertex="1" parent="1">
          <mxGeometry x="1327.5" y="1825" width="110" height="40" as="geometry" />
        </mxCell>
        <mxCell id="bDeuPqKoO-e9YfsH-q5c-12" value="Маршрутизатор" style="text;html=1;align=left;verticalAlign=middle;resizable=0;points=[];autosize=1;strokeColor=none;fillColor=none;fontFamily=Helvetica;fontSize=11;fontColor=default;labelBackgroundColor=default;" vertex="1" parent="1">
          <mxGeometry x="1572.5" y="1695" width="100" height="30" as="geometry" />
        </mxCell>
        <mxCell id="bDeuPqKoO-e9YfsH-q5c-13" value="&lt;span style=&quot;color: rgb(0, 0, 0); font-family: Helvetica; font-size: 11px; font-style: normal; font-variant-ligatures: normal; font-variant-caps: normal; font-weight: 400; letter-spacing: normal; orphans: 2; text-indent: 0px; text-transform: none; widows: 2; word-spacing: 0px; -webkit-text-stroke-width: 0px; white-space: nowrap; background-color: rgb(255, 255, 255); text-decoration-thickness: initial; text-decoration-style: initial; text-decoration-color: initial; float: none; display: inline !important;&quot;&gt;Коммутатор L2&lt;/span&gt;" style="text;whiteSpace=wrap;html=1;fontFamily=Helvetica;fontSize=11;fontColor=default;labelBackgroundColor=default;align=left;verticalAlign=middle;" vertex="1" parent="1">
          <mxGeometry x="1322.5" y="1685" width="110" height="40" as="geometry" />
        </mxCell>
        <mxCell id="bDeuPqKoO-e9YfsH-q5c-14" value="" style="endArrow=none;html=1;rounded=0;strokeColor=#000000;align=center;verticalAlign=middle;fontFamily=Helvetica;fontSize=11;fontColor=default;labelBackgroundColor=default;" edge="1" parent="1">
          <mxGeometry width="50" height="50" relative="1" as="geometry">
            <mxPoint x="1507.5" y="1800" as="sourcePoint" />
            <mxPoint x="1547.5" y="1760" as="targetPoint" />
          </mxGeometry>
        </mxCell>
        <mxCell id="bDeuPqKoO-e9YfsH-q5c-15" value="Соединение основное 1 Гбит/с" style="edgeLabel;html=1;align=left;verticalAlign=middle;resizable=0;points=[];fontFamily=Helvetica;fontSize=11;fontColor=default;labelBackgroundColor=default;" connectable="0" vertex="1" parent="bDeuPqKoO-e9YfsH-q5c-14">
          <mxGeometry x="0.3819" y="-2" relative="1" as="geometry">
            <mxPoint x="36" y="6" as="offset" />
          </mxGeometry>
        </mxCell>
        <mxCell id="bDeuPqKoO-e9YfsH-q5c-16" value="" style="endArrow=none;html=1;rounded=0;strokeColor=#00FF00;align=center;verticalAlign=middle;fontFamily=Helvetica;fontSize=11;fontColor=default;labelBackgroundColor=default;" edge="1" parent="1">
          <mxGeometry width="50" height="50" relative="1" as="geometry">
            <mxPoint x="1502.5" y="1860" as="sourcePoint" />
            <mxPoint x="1542.5" y="1820" as="targetPoint" />
          </mxGeometry>
        </mxCell>
        <mxCell id="bDeuPqKoO-e9YfsH-q5c-17" value="Соединение резервное 1 Гбит/с" style="edgeLabel;html=1;align=left;verticalAlign=middle;resizable=0;points=[];fontFamily=Helvetica;fontSize=11;fontColor=default;labelBackgroundColor=default;" connectable="0" vertex="1" parent="bDeuPqKoO-e9YfsH-q5c-16">
          <mxGeometry x="0.3819" y="-2" relative="1" as="geometry">
            <mxPoint x="36" y="6" as="offset" />
          </mxGeometry>
        </mxCell>
        <mxCell id="bDeuPqKoO-e9YfsH-q5c-18" value="" style="endArrow=none;html=1;rounded=0;strokeColor=#990000;align=center;verticalAlign=middle;fontFamily=Helvetica;fontSize=11;fontColor=default;labelBackgroundColor=default;" edge="1" parent="1">
          <mxGeometry width="50" height="50" relative="1" as="geometry">
            <mxPoint x="1762.5" y="1790" as="sourcePoint" />
            <mxPoint x="1802.5" y="1750" as="targetPoint" />
          </mxGeometry>
        </mxCell>
        <mxCell id="bDeuPqKoO-e9YfsH-q5c-19" value="Соединение основное 10 Гбит/с" style="edgeLabel;html=1;align=left;verticalAlign=middle;resizable=0;points=[];fontFamily=Helvetica;fontSize=11;fontColor=default;labelBackgroundColor=default;" connectable="0" vertex="1" parent="bDeuPqKoO-e9YfsH-q5c-18">
          <mxGeometry x="0.3819" y="-2" relative="1" as="geometry">
            <mxPoint x="36" y="6" as="offset" />
          </mxGeometry>
        </mxCell>
        <mxCell id="bDeuPqKoO-e9YfsH-q5c-20" value="" style="endArrow=none;html=1;rounded=0;strokeColor=#000099;align=center;verticalAlign=middle;fontFamily=Helvetica;fontSize=11;fontColor=default;labelBackgroundColor=default;" edge="1" parent="1">
          <mxGeometry width="50" height="50" relative="1" as="geometry">
            <mxPoint x="1757.5" y="1850" as="sourcePoint" />
            <mxPoint x="1797.5" y="1810" as="targetPoint" />
          </mxGeometry>
        </mxCell>
        <mxCell id="bDeuPqKoO-e9YfsH-q5c-21" value="Соединение резервное 10 Гбит/с" style="edgeLabel;html=1;align=left;verticalAlign=middle;resizable=0;points=[];fontFamily=Helvetica;fontSize=11;fontColor=default;labelBackgroundColor=default;" connectable="0" vertex="1" parent="bDeuPqKoO-e9YfsH-q5c-20">
          <mxGeometry x="0.3819" y="-2" relative="1" as="geometry">
            <mxPoint x="36" y="6" as="offset" />
          </mxGeometry>
        </mxCell>
        <mxCell id="bDeuPqKoO-e9YfsH-q5c-22" value="" style="sketch=0;points=[[0.015,0.015,0],[0.985,0.015,0],[0.985,0.985,0],[0.015,0.985,0],[0.25,0,0],[0.5,0,0],[0.75,0,0],[1,0.25,0],[1,0.5,0],[1,0.75,0],[0.75,1,0],[0.5,1,0],[0.25,1,0],[0,0.75,0],[0,0.5,0],[0,0.25,0]];verticalLabelPosition=bottom;html=1;verticalAlign=top;aspect=fixed;align=center;pointerEvents=1;shape=mxgraph.cisco19.rect;prIcon=l3_switch;fillColor=#dae8fc;strokeColor=#6c8ebf;flipH=0;movable=1;resizable=1;rotatable=1;deletable=1;editable=1;locked=0;connectable=1;" vertex="1" parent="1">
          <mxGeometry x="1762.5" y="1680" width="50" height="50" as="geometry" />
        </mxCell>
        <mxCell id="bDeuPqKoO-e9YfsH-q5c-23" value="&lt;span style=&quot;color: rgb(0, 0, 0); font-family: Helvetica; font-size: 11px; font-style: normal; font-variant-ligatures: normal; font-variant-caps: normal; font-weight: 400; letter-spacing: normal; orphans: 2; text-indent: 0px; text-transform: none; widows: 2; word-spacing: 0px; -webkit-text-stroke-width: 0px; white-space: nowrap; background-color: rgb(255, 255, 255); text-decoration-thickness: initial; text-decoration-style: initial; text-decoration-color: initial; float: none; display: inline !important;&quot;&gt;Коммутатор L3 резервный&lt;/span&gt;" style="text;whiteSpace=wrap;html=1;fontFamily=Helvetica;fontSize=11;fontColor=default;labelBackgroundColor=default;align=left;verticalAlign=middle;" vertex="1" parent="1">
          <mxGeometry x="1832.5" y="1685" width="110" height="40" as="geometry" />
        </mxCell>
        <mxCell id="bDeuPqKoO-e9YfsH-q5c-24" value="&lt;font face=&quot;Times New Roman&quot; style=&quot;font-size: 18px;&quot;&gt;&lt;b&gt;Легенда&lt;/b&gt;&lt;/font&gt;" style="text;html=1;align=center;verticalAlign=middle;resizable=0;points=[];autosize=1;strokeColor=none;fillColor=none;fontFamily=Helvetica;fontSize=11;fontColor=default;labelBackgroundColor=default;strokeWidth=3;" vertex="1" parent="1">
          <mxGeometry x="1087.5" y="1760" width="90" height="40" as="geometry" />
        </mxCell>
      </root>
    </mxGraphModel>
  </diagram>
</mxfile>
